<svg width="515" height="81" viewBox="0 0 515 81" fill="none" xmlns="http://www.w3.org/2000/svg">
<path fill-rule="evenodd" clip-rule="evenodd" d="M0 40.2245V80.449H38.5856C72.7672 80.449 77.1712 80.4176 77.1712 80.1735C77.1712 79.9898 77.3462 79.898 77.6962 79.898C78.0462 79.898 78.2212 79.8061 78.2212 79.6225C78.2212 79.4709 78.3393 79.3469 78.4837 79.3469C78.6281 79.3469 78.7462 79.223 78.7462 79.0714C78.7462 78.9199 78.8643 78.7959 79.0087 78.7959C79.153 78.7959 79.2711 78.6719 79.2711 78.5204C79.2711 78.3689 79.3893 78.2449 79.5336 78.2449C79.7086 78.2449 79.7961 78.0612 79.7961 77.6939C79.7961 77.3265 79.8836 77.1429 80.0586 77.1429C80.2336 77.1429 80.3211 76.9592 80.3211 76.5918C80.3211 76.2245 80.4086 76.0408 80.5836 76.0408C80.8144 76.0408 80.8461 74.4489 80.8461 62.8163C80.8461 51.1837 80.8144 49.5918 80.5836 49.5918C80.4086 49.5918 80.3211 49.4082 80.3211 49.0408C80.3211 48.6735 80.2336 48.4898 80.0586 48.4898C79.9142 48.4898 79.7961 48.3658 79.7961 48.2143C79.7961 48.0628 79.678 47.9388 79.5336 47.9388C79.3893 47.9388 79.2711 47.8148 79.2711 47.6633C79.2711 47.5117 79.153 47.3878 79.0087 47.3878C78.8643 47.3878 78.7462 47.2638 78.7462 47.1122C78.7462 46.9607 78.6281 46.8367 78.4837 46.8367C78.3393 46.8367 78.2212 46.7128 78.2212 46.5612C78.2212 46.4097 78.1031 46.2857 77.9587 46.2857C77.8143 46.2857 77.6962 46.1617 77.6962 46.0102C77.6962 45.8265 77.5212 45.7347 77.1712 45.7347C76.8213 45.7347 76.6463 45.6429 76.6463 45.4592C76.6463 45.2755 76.4713 45.1837 76.1213 45.1837C75.7713 45.1837 75.5963 45.0918 75.5963 44.9082C75.5963 44.7245 75.4213 44.6327 75.0714 44.6327C74.7214 44.6327 74.5464 44.5408 74.5464 44.3571C74.5464 44.1735 74.3714 44.0816 74.0214 44.0816C73.6714 44.0816 73.4964 43.9898 73.4964 43.8061C73.4964 43.6224 73.3214 43.5306 72.9715 43.5306C72.6215 43.5306 72.4465 43.4388 72.4465 43.2551C72.4465 43.0714 72.2715 42.9796 71.9215 42.9796C71.5715 42.9796 71.3965 42.8878 71.3965 42.7041C71.3965 42.5204 71.2215 42.4286 70.8716 42.4286C70.5216 42.4286 70.3466 42.3367 70.3466 42.1531C70.3466 42.0015 70.2285 41.8776 70.0841 41.8776C69.9397 41.8776 69.8216 41.7536 69.8216 41.602C69.8216 41.4184 69.6466 41.3265 69.2966 41.3265C68.9467 41.3265 68.7717 41.2347 68.7717 41.051C68.7717 40.8673 68.5967 40.7755 68.2467 40.7755C67.8967 40.7755 67.7217 40.6837 67.7217 40.5C67.7217 40.3163 67.5467 40.2245 67.1967 40.2245C66.8468 40.2245 66.6718 40.1327 66.6718 39.949C66.6718 39.7975 66.5536 39.6735 66.4093 39.6735C66.2649 39.6735 66.1468 39.5495 66.1468 39.398C66.1468 39.2143 66.3218 39.1224 66.6718 39.1224C67.0217 39.1224 67.1967 39.0306 67.1967 38.8469C67.1967 38.6954 67.3149 38.5714 67.4592 38.5714C67.6036 38.5714 67.7217 38.4474 67.7217 38.2959C67.7217 38.1122 67.8967 38.0204 68.2467 38.0204C68.5967 38.0204 68.7717 37.9286 68.7717 37.7449C68.7717 37.5612 68.9467 37.4694 69.2966 37.4694C69.6466 37.4694 69.8216 37.3776 69.8216 37.1939C69.8216 37.0102 69.9966 36.9184 70.3466 36.9184C70.6966 36.9184 70.8716 36.8265 70.8716 36.6429C70.8716 36.4913 70.9897 36.3673 71.134 36.3673C71.2784 36.3673 71.3965 36.2434 71.3965 36.0918C71.3965 35.9082 71.5715 35.8163 71.9215 35.8163C72.2715 35.8163 72.4465 35.7245 72.4465 35.5408C72.4465 35.3571 72.6215 35.2653 72.9715 35.2653C73.3214 35.2653 73.4964 35.1735 73.4964 34.9898C73.4964 34.8061 73.6714 34.7143 74.0214 34.7143C74.3714 34.7143 74.5464 34.6224 74.5464 34.4388C74.5464 34.2872 74.6645 34.1633 74.8089 34.1633C74.9532 34.1633 75.0714 34.0393 75.0714 33.8878C75.0714 33.7041 75.2463 33.6122 75.5963 33.6122C75.9463 33.6122 76.1213 33.5204 76.1213 33.3367C76.1213 33.1531 76.2963 33.0612 76.6463 33.0612C76.9963 33.0612 77.1712 32.9694 77.1712 32.7857C77.1712 32.6342 77.2894 32.5102 77.4337 32.5102C77.5781 32.5102 77.6962 32.3862 77.6962 32.2347C77.6962 32.0832 77.8143 31.9592 77.9587 31.9592C78.1031 31.9592 78.2212 31.8352 78.2212 31.6837C78.2212 31.5321 78.3393 31.4082 78.4837 31.4082C78.6281 31.4082 78.7462 31.2842 78.7462 31.1327C78.7462 30.9811 78.8643 30.8571 79.0087 30.8571C79.153 30.8571 79.2711 30.7332 79.2711 30.5816C79.2711 30.4301 79.3893 30.3061 79.5336 30.3061C79.7281 30.3061 79.7961 30.0918 79.7961 29.4796C79.7961 28.8674 79.8642 28.6531 80.0586 28.6531C80.2891 28.6531 80.3211 27.2448 80.3211 17.0816C80.3211 6.91843 80.2891 5.5102 80.0586 5.5102C79.8642 5.5102 79.7961 5.29586 79.7961 4.68367C79.7961 4.07149 79.7281 3.85714 79.5336 3.85714C79.3893 3.85714 79.2711 3.73316 79.2711 3.58163C79.2711 3.4301 79.153 3.30612 79.0087 3.30612C78.8337 3.30612 78.7462 3.12245 78.7462 2.7551C78.7462 2.38776 78.6587 2.20408 78.4837 2.20408C78.3393 2.20408 78.2212 2.0801 78.2212 1.92857C78.2212 1.7449 78.0462 1.65306 77.6962 1.65306C77.3462 1.65306 77.1712 1.56122 77.1712 1.37755C77.1712 1.19388 76.9963 1.10204 76.6463 1.10204C76.2963 1.10204 76.1213 1.0102 76.1213 0.826531C76.1213 0.612184 75.888 0.55102 75.0714 0.55102C74.2547 0.55102 74.0214 0.489857 74.0214 0.27551C74.0214 0.0314082 69.7924 0 37.0107 0H0V40.2245ZM110.77 0.27551C110.77 0.427041 110.652 0.55102 110.507 0.55102C110.275 0.55102 110.245 5.11218 110.245 40.5V80.449H119.432H128.619V47.9388V15.4286H149.618H170.617V27V38.5714H158.017H145.418V47.3878C145.418 55.102 145.451 56.2041 145.68 56.2041C145.825 56.2041 145.943 56.3281 145.943 56.4796C145.943 56.6311 146.061 56.7551 146.205 56.7551C146.35 56.7551 146.468 56.8791 146.468 57.0306C146.468 57.1821 146.586 57.3061 146.73 57.3061C146.875 57.3061 146.993 57.4301 146.993 57.5816C146.993 57.7332 147.111 57.8571 147.255 57.8571C147.4 57.8571 147.518 57.9811 147.518 58.1327C147.518 58.2842 147.636 58.4082 147.78 58.4082C147.925 58.4082 148.043 58.5321 148.043 58.6837C148.043 58.8352 148.161 58.9592 148.305 58.9592C148.45 58.9592 148.568 59.0832 148.568 59.2347C148.568 59.4184 148.743 59.5102 149.093 59.5102C149.443 59.5102 149.618 59.602 149.618 59.7857C149.618 59.9372 149.736 60.0612 149.88 60.0612C150.025 60.0612 150.143 60.1852 150.143 60.3367C150.143 60.4883 150.261 60.6122 150.405 60.6122C150.55 60.6122 150.668 60.7362 150.668 60.8878C150.668 61.0393 150.786 61.1633 150.93 61.1633C151.075 61.1633 151.193 61.2872 151.193 61.4388C151.193 61.5903 151.311 61.7143 151.455 61.7143C151.6 61.7143 151.718 61.8383 151.718 61.9898C151.718 62.1413 151.836 62.2653 151.98 62.2653C152.124 62.2653 152.243 62.3893 152.243 62.5408C152.243 62.6923 152.361 62.8163 152.505 62.8163C152.649 62.8163 152.768 62.9403 152.768 63.0918C152.768 63.2434 152.886 63.3673 153.03 63.3673C153.174 63.3673 153.293 63.4913 153.293 63.6429C153.293 63.8265 153.468 63.9184 153.818 63.9184C154.168 63.9184 154.342 64.0102 154.342 64.1939C154.342 64.3454 154.461 64.4694 154.605 64.4694C154.749 64.4694 154.867 64.5934 154.867 64.7449C154.867 64.8964 154.986 65.0204 155.13 65.0204C155.274 65.0204 155.392 65.1444 155.392 65.2959C155.392 65.4474 155.511 65.5714 155.655 65.5714C155.799 65.5714 155.917 65.6954 155.917 65.8469C155.917 65.9985 156.036 66.1225 156.18 66.1225C156.324 66.1225 156.442 66.2464 156.442 66.398C156.442 66.5495 156.561 66.6735 156.705 66.6735C156.849 66.6735 156.967 66.7974 156.967 66.949C156.967 67.1005 157.085 67.2245 157.23 67.2245C157.374 67.2245 157.492 67.3485 157.492 67.5C157.492 67.6515 157.61 67.7755 157.755 67.7755C157.899 67.7755 158.017 67.8995 158.017 68.051C158.017 68.2347 158.192 68.3265 158.542 68.3265C158.892 68.3265 159.067 68.4184 159.067 68.602C159.067 68.7536 159.185 68.8775 159.33 68.8775C159.474 68.8775 159.592 69.0015 159.592 69.1531C159.592 69.3046 159.71 69.4286 159.855 69.4286C159.999 69.4286 160.117 69.5526 160.117 69.7041C160.117 69.8556 160.235 69.9796 160.38 69.9796C160.524 69.9796 160.642 70.1036 160.642 70.2551C160.642 70.4066 160.76 70.5306 160.905 70.5306C161.049 70.5306 161.167 70.6546 161.167 70.8061C161.167 70.9577 161.285 71.0816 161.43 71.0816C161.574 71.0816 161.692 71.2056 161.692 71.3571C161.692 71.5087 161.81 71.6327 161.955 71.6327C162.099 71.6327 162.217 71.7566 162.217 71.9082C162.217 72.0918 162.392 72.1837 162.742 72.1837C163.092 72.1837 163.267 72.2755 163.267 72.4592C163.267 72.6107 163.385 72.7347 163.53 72.7347C163.674 72.7347 163.792 72.8587 163.792 73.0102C163.792 73.1617 163.91 73.2857 164.055 73.2857C164.199 73.2857 164.317 73.4097 164.317 73.5612C164.317 73.7128 164.435 73.8367 164.58 73.8367C164.724 73.8367 164.842 73.9607 164.842 74.1122C164.842 74.2638 164.96 74.3878 165.104 74.3878C165.249 74.3878 165.367 74.5117 165.367 74.6633C165.367 74.8148 165.485 74.9388 165.629 74.9388C165.774 74.9388 165.892 75.0628 165.892 75.2143C165.892 75.3658 166.01 75.4898 166.154 75.4898C166.299 75.4898 166.417 75.6138 166.417 75.7653C166.417 75.9168 166.535 76.0408 166.679 76.0408C166.824 76.0408 166.942 76.1648 166.942 76.3163C166.942 76.5 167.117 76.5918 167.467 76.5918C167.817 76.5918 167.992 76.6837 167.992 76.8673C167.992 77.0189 168.11 77.1429 168.254 77.1429C168.399 77.1429 168.517 77.2668 168.517 77.4184C168.517 77.5699 168.635 77.6939 168.779 77.6939C168.924 77.6939 169.042 77.8179 169.042 77.9694C169.042 78.1209 169.16 78.2449 169.304 78.2449C169.449 78.2449 169.567 78.3689 169.567 78.5204C169.567 78.6719 169.685 78.7959 169.829 78.7959C169.974 78.7959 170.092 78.9199 170.092 79.0714C170.092 79.223 170.21 79.3469 170.354 79.3469C170.499 79.3469 170.617 79.4709 170.617 79.6225C170.617 79.774 170.735 79.898 170.879 79.898C171.024 79.898 171.142 80.0219 171.142 80.1735C171.142 80.4156 172.542 80.449 182.691 80.449C192.841 80.449 194.241 80.4156 194.241 80.1735C194.241 80.0219 194.122 79.898 193.978 79.898C193.834 79.898 193.716 79.774 193.716 79.6225C193.716 79.4709 193.597 79.3469 193.453 79.3469C193.309 79.3469 193.191 79.223 193.191 79.0714C193.191 78.9199 193.072 78.7959 192.928 78.7959C192.784 78.7959 192.666 78.6719 192.666 78.5204C192.666 78.3689 192.548 78.2449 192.403 78.2449C192.259 78.2449 192.141 78.1209 192.141 77.9694C192.141 77.8179 192.023 77.6939 191.878 77.6939C191.734 77.6939 191.616 77.5699 191.616 77.4184C191.616 77.2347 191.441 77.1429 191.091 77.1429C190.741 77.1429 190.566 77.051 190.566 76.8673C190.566 76.7158 190.448 76.5918 190.303 76.5918C190.159 76.5918 190.041 76.4679 190.041 76.3163C190.041 76.1648 189.923 76.0408 189.778 76.0408C189.634 76.0408 189.516 75.9168 189.516 75.7653C189.516 75.6138 189.398 75.4898 189.253 75.4898C189.109 75.4898 188.991 75.3658 188.991 75.2143C188.991 75.0628 188.873 74.9388 188.728 74.9388C188.584 74.9388 188.466 74.8148 188.466 74.6633C188.466 74.4796 188.291 74.3878 187.941 74.3878C187.591 74.3878 187.416 74.2959 187.416 74.1122C187.416 73.9607 187.298 73.8367 187.153 73.8367C187.009 73.8367 186.891 73.7128 186.891 73.5612C186.891 73.4097 186.773 73.2857 186.628 73.2857C186.484 73.2857 186.366 73.1617 186.366 73.0102C186.366 72.8587 186.248 72.7347 186.103 72.7347C185.959 72.7347 185.841 72.6107 185.841 72.4592C185.841 72.3077 185.723 72.1837 185.578 72.1837C185.434 72.1837 185.316 72.0597 185.316 71.9082C185.316 71.7566 185.198 71.6327 185.054 71.6327C184.909 71.6327 184.791 71.5087 184.791 71.3571C184.791 71.1735 184.616 71.0816 184.266 71.0816C183.916 71.0816 183.741 70.9898 183.741 70.8061C183.741 70.6546 183.623 70.5306 183.479 70.5306C183.334 70.5306 183.216 70.4066 183.216 70.2551C183.216 70.1036 183.098 69.9796 182.954 69.9796C182.809 69.9796 182.691 69.8556 182.691 69.7041C182.691 69.5526 182.573 69.4286 182.429 69.4286C182.284 69.4286 182.166 69.3046 182.166 69.1531C182.166 69.0015 182.048 68.8775 181.904 68.8775C181.759 68.8775 181.641 68.7536 181.641 68.602C181.641 68.4184 181.466 68.3265 181.116 68.3265C180.766 68.3265 180.591 68.2347 180.591 68.051C180.591 67.8995 180.473 67.7755 180.329 67.7755C180.184 67.7755 180.066 67.6515 180.066 67.5C180.066 67.3485 179.948 67.2245 179.804 67.2245C179.659 67.2245 179.541 67.1005 179.541 66.949C179.541 66.7974 179.423 66.6735 179.279 66.6735C179.134 66.6735 179.016 66.5495 179.016 66.398C179.016 66.2464 178.898 66.1225 178.754 66.1225C178.609 66.1225 178.491 65.9985 178.491 65.8469C178.491 65.6954 178.373 65.5714 178.229 65.5714C178.084 65.5714 177.966 65.4474 177.966 65.2959C177.966 65.1122 177.791 65.0204 177.441 65.0204C177.091 65.0204 176.916 64.9286 176.916 64.7449C176.916 64.5934 176.798 64.4694 176.654 64.4694C176.51 64.4694 176.391 64.3454 176.391 64.1939C176.391 64.0424 176.273 63.9184 176.129 63.9184C175.985 63.9184 175.866 63.7944 175.866 63.6429C175.866 63.4913 175.748 63.3673 175.604 63.3673C175.46 63.3673 175.341 63.2434 175.341 63.0918C175.341 62.9403 175.223 62.8163 175.079 62.8163C174.935 62.8163 174.817 62.6923 174.817 62.5408C174.817 62.3571 174.642 62.2653 174.292 62.2653C173.942 62.2653 173.767 62.1735 173.767 61.9898C173.767 61.8383 173.648 61.7143 173.504 61.7143C173.36 61.7143 173.242 61.5903 173.242 61.4388C173.242 61.2872 173.123 61.1633 172.979 61.1633C172.835 61.1633 172.717 61.0393 172.717 60.8878C172.717 60.7362 172.598 60.6122 172.454 60.6122C172.31 60.6122 172.192 60.4883 172.192 60.3367C172.192 60.1852 172.074 60.0612 171.929 60.0612C171.785 60.0612 171.667 59.9372 171.667 59.7857C171.667 59.6342 171.549 59.5102 171.404 59.5102C171.26 59.5102 171.142 59.3862 171.142 59.2347C171.142 59.051 170.967 58.9592 170.617 58.9592C170.267 58.9592 170.092 58.8673 170.092 58.6837C170.092 58.5321 169.974 58.4082 169.829 58.4082C169.685 58.4082 169.567 58.2842 169.567 58.1327C169.567 57.9811 169.449 57.8571 169.304 57.8571C169.16 57.8571 169.042 57.7332 169.042 57.5816C169.042 57.4301 168.924 57.3061 168.779 57.3061C168.635 57.3061 168.517 57.1821 168.517 57.0306C168.517 56.8791 168.399 56.7551 168.254 56.7551C168.11 56.7551 167.992 56.6311 167.992 56.4796C167.992 56.2959 167.817 56.2041 167.467 56.2041C167.117 56.2041 166.942 56.1122 166.942 55.9286C166.942 55.777 166.824 55.6531 166.679 55.6531C166.535 55.6531 166.417 55.5291 166.417 55.3776C166.417 55.226 166.299 55.102 166.154 55.102C166.01 55.102 165.892 54.9781 165.892 54.8265C165.892 54.675 165.774 54.551 165.629 54.551C165.485 54.551 165.367 54.427 165.367 54.2755C165.367 54.124 165.249 54 165.104 54C164.96 54 164.842 53.876 164.842 53.7245C164.842 53.573 164.724 53.449 164.58 53.449C164.435 53.449 164.317 53.325 164.317 53.1735C164.317 52.9898 164.142 52.898 163.792 52.898C163.442 52.898 163.267 52.8061 163.267 52.6224C163.267 52.3807 164.521 52.3469 173.504 52.3469C182.487 52.3469 183.741 52.3131 183.741 52.0714C183.741 51.8674 183.945 51.7959 184.529 51.7959C185.112 51.7959 185.316 51.7245 185.316 51.5204C185.316 51.3367 185.491 51.2449 185.841 51.2449C186.191 51.2449 186.366 51.1531 186.366 50.9694C186.366 50.8179 186.484 50.6939 186.628 50.6939C186.773 50.6939 186.891 50.5699 186.891 50.4184C186.891 50.2668 187.009 50.1429 187.153 50.1429C187.328 50.1429 187.416 49.9592 187.416 49.5918C187.416 49.2245 187.503 49.0408 187.678 49.0408C187.853 49.0408 187.941 48.8571 187.941 48.4898C187.941 48.1224 188.028 47.9388 188.203 47.9388C188.398 47.9388 188.466 47.7244 188.466 47.1122C188.466 46.5001 188.534 46.2857 188.728 46.2857C188.96 46.2857 188.991 43.9591 188.991 26.449C188.991 8.93884 188.96 6.61225 188.728 6.61225C188.524 6.61225 188.466 6.36741 188.466 5.5102C188.466 4.653 188.408 4.40816 188.203 4.40816C188.028 4.40816 187.941 4.22449 187.941 3.85714C187.941 3.4898 187.853 3.30612 187.678 3.30612C187.534 3.30612 187.416 3.18214 187.416 3.03061C187.416 2.87908 187.298 2.7551 187.153 2.7551C187.009 2.7551 186.891 2.63112 186.891 2.47959C186.891 2.32806 186.773 2.20408 186.628 2.20408C186.484 2.20408 186.366 2.0801 186.366 1.92857C186.366 1.77704 186.248 1.65306 186.103 1.65306C185.959 1.65306 185.841 1.52908 185.841 1.37755C185.841 1.19388 185.666 1.10204 185.316 1.10204C184.966 1.10204 184.791 1.0102 184.791 0.826531C184.791 0.612184 184.558 0.55102 183.741 0.55102C182.924 0.55102 182.691 0.489857 182.691 0.27551C182.691 0.0315918 178.579 0 146.73 0C114.882 0 110.77 0.0315918 110.77 0.27551ZM253.563 0.27551C253.563 0.427041 253.445 0.55102 253.3 0.55102C253.125 0.55102 253.038 0.734694 253.038 1.10204C253.038 1.46939 252.95 1.65306 252.775 1.65306C252.6 1.65306 252.513 1.83673 252.513 2.20408C252.513 2.57143 252.425 2.7551 252.25 2.7551C252.075 2.7551 251.988 2.93878 251.988 3.30612C251.988 3.67347 251.9 3.85714 251.725 3.85714C251.55 3.85714 251.463 4.04082 251.463 4.40816C251.463 4.77551 251.375 4.95918 251.2 4.95918C251.025 4.95918 250.938 5.14286 250.938 5.5102C250.938 5.87755 250.85 6.06122 250.675 6.06122C250.5 6.06122 250.413 6.2449 250.413 6.61225C250.413 6.97959 250.325 7.16327 250.15 7.16327C249.975 7.16327 249.888 7.34694 249.888 7.71429C249.888 8.08163 249.8 8.26531 249.625 8.26531C249.45 8.26531 249.363 8.44898 249.363 8.81633C249.363 9.18367 249.275 9.36735 249.1 9.36735C248.925 9.36735 248.838 9.55102 248.838 9.91837C248.838 10.2857 248.75 10.4694 248.575 10.4694C248.4 10.4694 248.313 10.6531 248.313 11.0204C248.313 11.3878 248.225 11.5714 248.05 11.5714C247.875 11.5714 247.788 11.7551 247.788 12.1224C247.788 12.4898 247.7 12.6735 247.525 12.6735C247.35 12.6735 247.263 12.8571 247.263 13.2245C247.263 13.5918 247.175 13.7755 247.001 13.7755C246.826 13.7755 246.738 13.9592 246.738 14.3265C246.738 14.6939 246.651 14.8776 246.476 14.8776C246.281 14.8776 246.213 15.0919 246.213 15.7041C246.213 16.3163 246.145 16.5306 245.951 16.5306C245.776 16.5306 245.688 16.7143 245.688 17.0816C245.688 17.449 245.601 17.6327 245.426 17.6327C245.251 17.6327 245.163 17.8163 245.163 18.1837C245.163 18.551 245.076 18.7347 244.901 18.7347C244.726 18.7347 244.638 18.9184 244.638 19.2857C244.638 19.6531 244.551 19.8367 244.376 19.8367C244.201 19.8367 244.113 20.0204 244.113 20.3878C244.113 20.7551 244.026 20.9388 243.851 20.9388C243.676 20.9388 243.588 21.1224 243.588 21.4898C243.588 21.8571 243.501 22.0408 243.326 22.0408C243.151 22.0408 243.063 22.2245 243.063 22.5918C243.063 22.9592 242.976 23.1429 242.801 23.1429C242.626 23.1429 242.538 23.3265 242.538 23.6939C242.538 24.0612 242.451 24.2449 242.276 24.2449C242.101 24.2449 242.013 24.4286 242.013 24.7959C242.013 25.1633 241.926 25.3469 241.751 25.3469C241.576 25.3469 241.488 25.5306 241.488 25.898C241.488 26.2653 241.401 26.449 241.226 26.449C241.051 26.449 240.963 26.6327 240.963 27C240.963 27.3673 240.876 27.551 240.701 27.551C240.526 27.551 240.438 27.7347 240.438 28.102C240.438 28.4694 240.351 28.6531 240.176 28.6531C240.001 28.6531 239.913 28.8367 239.913 29.2041C239.913 29.5714 239.826 29.7551 239.651 29.7551C239.476 29.7551 239.388 29.9388 239.388 30.3061C239.388 30.6735 239.301 30.8571 239.126 30.8571C238.931 30.8571 238.863 31.0715 238.863 31.6837C238.863 32.2959 238.795 32.5102 238.601 32.5102C238.426 32.5102 238.338 32.6939 238.338 33.0612C238.338 33.4286 238.251 33.6122 238.076 33.6122C237.901 33.6122 237.813 33.7959 237.813 34.1633C237.813 34.5306 237.726 34.7143 237.551 34.7143C237.376 34.7143 237.288 34.898 237.288 35.2653C237.288 35.6327 237.201 35.8163 237.026 35.8163C236.851 35.8163 236.764 36 236.764 36.3673C236.764 36.7347 236.676 36.9184 236.501 36.9184C236.326 36.9184 236.239 37.102 236.239 37.4694C236.239 37.8367 236.151 38.0204 235.976 38.0204C235.801 38.0204 235.714 38.2041 235.714 38.5714C235.714 38.9388 235.626 39.1224 235.451 39.1224C235.276 39.1224 235.189 39.3061 235.189 39.6735C235.189 40.0408 235.101 40.2245 234.926 40.2245C234.751 40.2245 234.664 40.4082 234.664 40.7755C234.664 41.1429 234.576 41.3265 234.401 41.3265C234.226 41.3265 234.139 41.5102 234.139 41.8776C234.139 42.2449 234.051 42.4286 233.876 42.4286C233.701 42.4286 233.614 42.6122 233.614 42.9796C233.614 43.3469 233.526 43.5306 233.351 43.5306C233.176 43.5306 233.089 43.7143 233.089 44.0816C233.089 44.449 233.001 44.6327 232.826 44.6327C232.651 44.6327 232.564 44.8163 232.564 45.1837C232.564 45.551 232.476 45.7347 232.301 45.7347C232.126 45.7347 232.039 45.9184 232.039 46.2857C232.039 46.6531 231.951 46.8367 231.776 46.8367C231.601 46.8367 231.514 47.0204 231.514 47.3878C231.514 47.7551 231.426 47.9388 231.251 47.9388C231.057 47.9388 230.989 48.1531 230.989 48.7653C230.989 49.3775 230.921 49.5918 230.726 49.5918C230.551 49.5918 230.464 49.7755 230.464 50.1429C230.464 50.5102 230.376 50.6939 230.201 50.6939C230.026 50.6939 229.939 50.8776 229.939 51.2449C229.939 51.6122 229.851 51.7959 229.676 51.7959C229.501 51.7959 229.414 51.9796 229.414 52.3469C229.414 52.7143 229.326 52.898 229.151 52.898C228.976 52.898 228.889 53.0816 228.889 53.449C228.889 53.8163 228.801 54 228.626 54C228.451 54 228.364 54.1837 228.364 54.551C228.364 54.9184 228.276 55.102 228.101 55.102C227.926 55.102 227.839 55.2857 227.839 55.6531C227.839 56.0204 227.751 56.2041 227.576 56.2041C227.401 56.2041 227.314 56.3878 227.314 56.7551C227.314 57.1224 227.226 57.3061 227.051 57.3061C226.876 57.3061 226.789 57.4898 226.789 57.8571C226.789 58.2245 226.701 58.4082 226.527 58.4082C226.352 58.4082 226.264 58.5918 226.264 58.9592C226.264 59.3265 226.177 59.5102 226.002 59.5102C225.827 59.5102 225.739 59.6939 225.739 60.0612C225.739 60.4286 225.652 60.6122 225.477 60.6122C225.302 60.6122 225.214 60.7959 225.214 61.1633C225.214 61.5306 225.127 61.7143 224.952 61.7143C224.777 61.7143 224.689 61.898 224.689 62.2653C224.689 62.6327 224.602 62.8163 224.427 62.8163C224.252 62.8163 224.164 63 224.164 63.3673C224.164 63.7347 224.077 63.9184 223.902 63.9184C223.727 63.9184 223.639 64.102 223.639 64.4694C223.639 64.8367 223.552 65.0204 223.377 65.0204C223.182 65.0204 223.114 65.2348 223.114 65.8469C223.114 66.4591 223.046 66.6735 222.852 66.6735C222.677 66.6735 222.589 66.8571 222.589 67.2245C222.589 67.5918 222.502 67.7755 222.327 67.7755C222.152 67.7755 222.064 67.9592 222.064 68.3265C222.064 68.6939 221.977 68.8775 221.802 68.8775C221.627 68.8775 221.539 69.0612 221.539 69.4286C221.539 69.7959 221.452 69.9796 221.277 69.9796C221.102 69.9796 221.014 70.1633 221.014 70.5306C221.014 70.898 220.927 71.0816 220.752 71.0816C220.577 71.0816 220.489 71.2653 220.489 71.6327C220.489 72 220.402 72.1837 220.227 72.1837C220.052 72.1837 219.964 72.3673 219.964 72.7347C219.964 73.102 219.877 73.2857 219.702 73.2857C219.527 73.2857 219.439 73.4694 219.439 73.8367C219.439 74.2041 219.352 74.3878 219.177 74.3878C219.002 74.3878 218.914 74.5714 218.914 74.9388C218.914 75.3061 218.827 75.4898 218.652 75.4898C218.477 75.4898 218.389 75.6735 218.389 76.0408C218.389 76.4082 218.302 76.5918 218.127 76.5918C217.952 76.5918 217.864 76.7755 217.864 77.1429C217.864 77.5102 217.777 77.6939 217.602 77.6939C217.427 77.6939 217.339 77.8775 217.339 78.2449C217.339 78.6122 217.252 78.7959 217.077 78.7959C216.902 78.7959 216.814 78.9796 216.814 79.3469C216.814 79.7143 216.727 79.898 216.552 79.898C216.377 79.898 216.29 80.0816 216.29 80.449V81H225.739C234.022 81 235.189 80.966 235.189 80.7245C235.189 80.573 235.307 80.449 235.451 80.449C235.626 80.449 235.714 80.2653 235.714 79.898C235.714 79.5306 235.801 79.3469 235.976 79.3469C236.151 79.3469 236.239 79.1633 236.239 78.7959C236.239 78.4286 236.326 78.2449 236.501 78.2449C236.676 78.2449 236.764 78.0612 236.764 77.6939C236.764 77.3265 236.851 77.1429 237.026 77.1429C237.201 77.1429 237.288 76.9592 237.288 76.5918C237.288 76.2245 237.376 76.0408 237.551 76.0408C237.726 76.0408 237.813 75.8571 237.813 75.4898C237.813 75.1225 237.901 74.9388 238.076 74.9388C238.251 74.9388 238.338 74.7551 238.338 74.3878C238.338 74.0204 238.426 73.8367 238.601 73.8367C238.776 73.8367 238.863 73.6531 238.863 73.2857C238.863 72.9184 238.951 72.7347 239.126 72.7347C239.32 72.7347 239.388 72.5203 239.388 71.9082C239.388 71.296 239.456 71.0816 239.651 71.0816C239.826 71.0816 239.913 70.898 239.913 70.5306C239.913 70.1633 240.001 69.9796 240.176 69.9796C240.351 69.9796 240.438 69.7959 240.438 69.4286C240.438 69.0612 240.526 68.8775 240.701 68.8775C240.876 68.8775 240.963 68.6939 240.963 68.3265C240.963 67.9592 241.051 67.7755 241.226 67.7755C241.401 67.7755 241.488 67.5918 241.488 67.2245C241.488 66.8571 241.576 66.6735 241.751 66.6735C241.926 66.6735 242.013 66.4898 242.013 66.1225C242.013 65.7551 242.101 65.5714 242.276 65.5714C242.451 65.5714 242.538 65.3878 242.538 65.0204C242.538 64.6531 242.626 64.4694 242.801 64.4694C242.976 64.4694 243.063 64.2857 243.063 63.9184C243.063 63.551 243.151 63.3673 243.326 63.3673C243.52 63.3673 243.588 63.153 243.588 62.5408C243.588 61.9286 243.656 61.7143 243.851 61.7143C244.026 61.7143 244.113 61.5306 244.113 61.1633C244.113 60.7959 244.201 60.6122 244.376 60.6122C244.551 60.6122 244.638 60.4286 244.638 60.0612C244.638 59.6939 244.726 59.5102 244.901 59.5102C245.076 59.5102 245.163 59.3265 245.163 58.9592C245.163 58.5918 245.251 58.4082 245.426 58.4082C245.601 58.4082 245.688 58.2245 245.688 57.8571C245.688 57.4898 245.776 57.3061 245.951 57.3061C246.126 57.3061 246.213 57.1224 246.213 56.7551C246.213 56.3878 246.301 56.2041 246.476 56.2041C246.651 56.2041 246.738 56.0204 246.738 55.6531C246.738 55.2857 246.826 55.102 247.001 55.102C247.175 55.102 247.263 54.9184 247.263 54.551C247.263 54.1837 247.35 54 247.525 54C247.7 54 247.788 53.8163 247.788 53.449C247.788 53.0816 247.875 52.898 248.05 52.898C248.245 52.898 248.313 52.6836 248.313 52.0714C248.313 51.4592 248.381 51.2449 248.575 51.2449C248.75 51.2449 248.838 51.0612 248.838 50.6939C248.838 50.3265 248.925 50.1429 249.1 50.1429C249.275 50.1429 249.363 49.9592 249.363 49.5918C249.363 49.2245 249.45 49.0408 249.625 49.0408C249.8 49.0408 249.888 48.8571 249.888 48.4898C249.888 48.1224 249.975 47.9388 250.15 47.9388C250.325 47.9388 250.413 47.7551 250.413 47.3878C250.413 47.0204 250.5 46.8367 250.675 46.8367C250.85 46.8367 250.938 46.6531 250.938 46.2857C250.938 45.9184 251.025 45.7347 251.2 45.7347C251.375 45.7347 251.463 45.551 251.463 45.1837C251.463 44.8163 251.55 44.6327 251.725 44.6327C251.9 44.6327 251.988 44.449 251.988 44.0816C251.988 43.7143 252.075 43.5306 252.25 43.5306C252.445 43.5306 252.513 43.3163 252.513 42.7041C252.513 42.0919 252.581 41.8776 252.775 41.8776C252.95 41.8776 253.038 41.6939 253.038 41.3265C253.038 40.9592 253.125 40.7755 253.3 40.7755C253.475 40.7755 253.563 40.5918 253.563 40.2245C253.563 39.8571 253.65 39.6735 253.825 39.6735C254 39.6735 254.088 39.4898 254.088 39.1224C254.088 38.7551 254.175 38.5714 254.35 38.5714C254.525 38.5714 254.613 38.3878 254.613 38.0204C254.613 37.6531 254.7 37.4694 254.875 37.4694C255.05 37.4694 255.138 37.2857 255.138 36.9184C255.138 36.551 255.225 36.3673 255.4 36.3673C255.575 36.3673 255.663 36.1837 255.663 35.8163C255.663 35.449 255.75 35.2653 255.925 35.2653C256.1 35.2653 256.188 35.0816 256.188 34.7143C256.188 34.3469 256.275 34.1633 256.45 34.1633C256.644 34.1633 256.713 33.9489 256.713 33.3367C256.713 32.7246 256.781 32.5102 256.975 32.5102C257.15 32.5102 257.238 32.3265 257.238 31.9592C257.238 31.5918 257.325 31.4082 257.5 31.4082C257.675 31.4082 257.762 31.2245 257.762 30.8571C257.762 30.4898 257.85 30.3061 258.025 30.3061C258.2 30.3061 258.287 30.1224 258.287 29.7551C258.287 29.3878 258.375 29.2041 258.55 29.2041C258.725 29.2041 258.812 29.0204 258.812 28.6531C258.812 28.2857 258.9 28.102 259.075 28.102C259.25 28.102 259.337 27.9184 259.337 27.551C259.337 27.1837 259.425 27 259.6 27C259.775 27 259.862 26.8163 259.862 26.449C259.862 26.0816 259.95 25.898 260.125 25.898C260.3 25.898 260.387 25.7143 260.387 25.3469C260.387 24.9796 260.475 24.7959 260.65 24.7959C260.844 24.7959 260.912 24.5816 260.912 23.9694C260.912 23.3572 260.98 23.1429 261.175 23.1429C261.35 23.1429 261.437 22.9592 261.437 22.5918C261.437 22.2245 261.525 22.0408 261.7 22.0408C261.875 22.0408 261.962 21.8571 261.962 21.4898C261.962 21.1224 262.05 20.9388 262.225 20.9388C262.369 20.9388 262.487 21.0628 262.487 21.2143C262.487 21.3658 262.605 21.4898 262.75 21.4898C262.925 21.4898 263.012 21.6735 263.012 22.0408C263.012 22.4082 263.1 22.5918 263.275 22.5918C263.45 22.5918 263.537 22.7755 263.537 23.1429C263.537 23.5102 263.625 23.6939 263.8 23.6939C263.994 23.6939 264.062 23.9082 264.062 24.5204C264.062 25.1326 264.13 25.3469 264.325 25.3469C264.5 25.3469 264.587 25.5306 264.587 25.898C264.587 26.2653 264.675 26.449 264.85 26.449C265.025 26.449 265.112 26.6327 265.112 27C265.112 27.3673 265.2 27.551 265.375 27.551C265.55 27.551 265.637 27.7347 265.637 28.102C265.637 28.4694 265.725 28.6531 265.9 28.6531C266.075 28.6531 266.162 28.8367 266.162 29.2041C266.162 29.5714 266.25 29.7551 266.425 29.7551C266.6 29.7551 266.687 29.9388 266.687 30.3061C266.687 30.6735 266.775 30.8571 266.95 30.8571C267.144 30.8571 267.212 31.0715 267.212 31.6837C267.212 32.2959 267.28 32.5102 267.475 32.5102C267.65 32.5102 267.737 32.6939 267.737 33.0612C267.737 33.4286 267.824 33.6122 267.999 33.6122C268.174 33.6122 268.262 33.7959 268.262 34.1633C268.262 34.5306 268.349 34.7143 268.524 34.7143C268.699 34.7143 268.787 34.898 268.787 35.2653C268.787 35.6327 268.874 35.8163 269.049 35.8163C269.224 35.8163 269.312 36 269.312 36.3673C269.312 36.7347 269.399 36.9184 269.574 36.9184C269.749 36.9184 269.837 37.102 269.837 37.4694C269.837 37.8367 269.924 38.0204 270.099 38.0204C270.274 38.0204 270.362 38.2041 270.362 38.5714C270.362 38.9388 270.449 39.1224 270.624 39.1224C270.819 39.1224 270.887 39.3368 270.887 39.949C270.887 40.5612 270.955 40.7755 271.149 40.7755C271.324 40.7755 271.412 40.9592 271.412 41.3265C271.412 41.6939 271.499 41.8776 271.674 41.8776C271.849 41.8776 271.937 42.0612 271.937 42.4286C271.937 42.7959 272.024 42.9796 272.199 42.9796C272.374 42.9796 272.462 43.1633 272.462 43.5306C272.462 43.898 272.549 44.0816 272.724 44.0816C272.899 44.0816 272.987 44.2653 272.987 44.6327C272.987 45 273.074 45.1837 273.249 45.1837C273.424 45.1837 273.512 45.3673 273.512 45.7347C273.512 46.102 273.599 46.2857 273.774 46.2857C273.969 46.2857 274.037 46.5001 274.037 47.1122C274.037 47.7244 274.105 47.9388 274.299 47.9388C274.474 47.9388 274.562 48.1224 274.562 48.4898C274.562 48.8571 274.649 49.0408 274.824 49.0408C274.999 49.0408 275.087 49.2245 275.087 49.5918C275.087 49.9592 275.174 50.1429 275.349 50.1429C275.524 50.1429 275.612 50.3265 275.612 50.6939C275.612 51.0612 275.699 51.2449 275.874 51.2449C276.049 51.2449 276.137 51.4286 276.137 51.7959C276.137 52.1633 276.224 52.3469 276.399 52.3469C276.574 52.3469 276.662 52.5306 276.662 52.898C276.662 53.2653 276.749 53.449 276.924 53.449C277.099 53.449 277.187 53.6327 277.187 54C277.187 54.3673 277.274 54.551 277.449 54.551C277.643 54.551 277.712 54.7654 277.712 55.3776C277.712 55.9897 277.78 56.2041 277.974 56.2041C278.149 56.2041 278.236 56.3878 278.236 56.7551C278.236 57.1224 278.324 57.3061 278.499 57.3061C278.674 57.3061 278.761 57.4898 278.761 57.8571C278.761 58.2245 278.849 58.4082 279.024 58.4082C279.199 58.4082 279.286 58.5918 279.286 58.9592C279.286 59.3265 279.374 59.5102 279.549 59.5102C279.724 59.5102 279.811 59.6939 279.811 60.0612C279.811 60.4286 279.899 60.6122 280.074 60.6122C280.249 60.6122 280.336 60.7959 280.336 61.1633C280.336 61.5306 280.424 61.7143 280.599 61.7143C280.774 61.7143 280.861 61.898 280.861 62.2653C280.861 62.6327 280.949 62.8163 281.124 62.8163C281.318 62.8163 281.386 63.0307 281.386 63.6429C281.386 64.255 281.454 64.4694 281.649 64.4694C281.824 64.4694 281.911 64.6531 281.911 65.0204C281.911 65.3878 281.999 65.5714 282.174 65.5714C282.349 65.5714 282.436 65.7551 282.436 66.1225C282.436 66.4898 282.524 66.6735 282.699 66.6735C282.874 66.6735 282.961 66.8571 282.961 67.2245C282.961 67.5918 283.049 67.7755 283.224 67.7755C283.399 67.7755 283.486 67.9592 283.486 68.3265C283.486 68.6939 283.574 68.8775 283.749 68.8775C283.924 68.8775 284.011 69.0612 284.011 69.4286C284.011 69.7959 284.099 69.9796 284.274 69.9796C284.468 69.9796 284.536 70.1939 284.536 70.8061C284.536 71.4183 284.604 71.6327 284.799 71.6327C284.974 71.6327 285.061 71.8163 285.061 72.1837C285.061 72.551 285.149 72.7347 285.324 72.7347C285.499 72.7347 285.586 72.9184 285.586 73.2857C285.586 73.6531 285.674 73.8367 285.849 73.8367C286.024 73.8367 286.111 74.0204 286.111 74.3878C286.111 74.7551 286.199 74.9388 286.374 74.9388C286.549 74.9388 286.636 75.1225 286.636 75.4898C286.636 75.8571 286.724 76.0408 286.899 76.0408C287.074 76.0408 287.161 76.2245 287.161 76.5918C287.161 76.9592 287.249 77.1429 287.424 77.1429C287.599 77.1429 287.686 77.3265 287.686 77.6939C287.686 78.0612 287.774 78.2449 287.949 78.2449C288.143 78.2449 288.211 78.4592 288.211 79.0714C288.211 79.6836 288.279 79.898 288.473 79.898C288.648 79.898 288.736 80.0816 288.736 80.449V81H298.448C306.964 81 308.16 80.966 308.16 80.7245C308.16 80.573 308.042 80.449 307.898 80.449C307.723 80.449 307.635 80.2653 307.635 79.898C307.635 79.5306 307.548 79.3469 307.373 79.3469C307.178 79.3469 307.11 79.1326 307.11 78.5204C307.11 77.9082 307.042 77.6939 306.848 77.6939C306.673 77.6939 306.585 77.5102 306.585 77.1429C306.585 76.7755 306.498 76.5918 306.323 76.5918C306.148 76.5918 306.06 76.4082 306.06 76.0408C306.06 75.6735 305.973 75.4898 305.798 75.4898C305.623 75.4898 305.535 75.3061 305.535 74.9388C305.535 74.5714 305.448 74.3878 305.273 74.3878C305.098 74.3878 305.01 74.2041 305.01 73.8367C305.01 73.4694 304.923 73.2857 304.748 73.2857C304.573 73.2857 304.485 73.102 304.485 72.7347C304.485 72.3673 304.398 72.1837 304.223 72.1837C304.048 72.1837 303.96 72 303.96 71.6327C303.96 71.2653 303.873 71.0816 303.698 71.0816C303.523 71.0816 303.435 70.898 303.435 70.5306C303.435 70.1633 303.348 69.9796 303.173 69.9796C302.998 69.9796 302.91 69.7959 302.91 69.4286C302.91 69.0612 302.823 68.8775 302.648 68.8775C302.473 68.8775 302.385 68.6939 302.385 68.3265C302.385 67.9592 302.298 67.7755 302.123 67.7755C301.948 67.7755 301.86 67.5918 301.86 67.2245C301.86 66.8571 301.773 66.6735 301.598 66.6735C301.403 66.6735 301.335 66.4591 301.335 65.8469C301.335 65.2348 301.267 65.0204 301.073 65.0204C300.898 65.0204 300.81 64.8367 300.81 64.4694C300.81 64.102 300.723 63.9184 300.548 63.9184C300.373 63.9184 300.285 63.7347 300.285 63.3673C300.285 63 300.198 62.8163 300.023 62.8163C299.848 62.8163 299.76 62.6327 299.76 62.2653C299.76 61.898 299.673 61.7143 299.498 61.7143C299.323 61.7143 299.235 61.5306 299.235 61.1633C299.235 60.7959 299.148 60.6122 298.973 60.6122C298.798 60.6122 298.711 60.4286 298.711 60.0612C298.711 59.6939 298.623 59.5102 298.448 59.5102C298.273 59.5102 298.186 59.3265 298.186 58.9592C298.186 58.5918 298.098 58.4082 297.923 58.4082C297.748 58.4082 297.661 58.2245 297.661 57.8571C297.661 57.4898 297.573 57.3061 297.398 57.3061C297.223 57.3061 297.136 57.1224 297.136 56.7551C297.136 56.3878 297.048 56.2041 296.873 56.2041C296.698 56.2041 296.611 56.0204 296.611 55.6531C296.611 55.2857 296.523 55.102 296.348 55.102C296.173 55.102 296.086 54.9184 296.086 54.551C296.086 54.1837 295.998 54 295.823 54C295.648 54 295.561 53.8163 295.561 53.449C295.561 53.0816 295.473 52.898 295.298 52.898C295.104 52.898 295.036 52.6836 295.036 52.0714C295.036 51.4592 294.968 51.2449 294.773 51.2449C294.598 51.2449 294.511 51.0612 294.511 50.6939C294.511 50.3265 294.423 50.1429 294.248 50.1429C294.073 50.1429 293.986 49.9592 293.986 49.5918C293.986 49.2245 293.898 49.0408 293.723 49.0408C293.548 49.0408 293.461 48.8571 293.461 48.4898C293.461 48.1224 293.373 47.9388 293.198 47.9388C293.023 47.9388 292.936 47.7551 292.936 47.3878C292.936 47.0204 292.848 46.8367 292.673 46.8367C292.498 46.8367 292.411 46.6531 292.411 46.2857C292.411 45.9184 292.323 45.7347 292.148 45.7347C291.973 45.7347 291.886 45.551 291.886 45.1837C291.886 44.8163 291.798 44.6327 291.623 44.6327C291.448 44.6327 291.361 44.449 291.361 44.0816C291.361 43.7143 291.273 43.5306 291.098 43.5306C290.923 43.5306 290.836 43.3469 290.836 42.9796C290.836 42.6122 290.748 42.4286 290.573 42.4286C290.398 42.4286 290.311 42.2449 290.311 41.8776C290.311 41.5102 290.223 41.3265 290.048 41.3265C289.873 41.3265 289.786 41.1429 289.786 40.7755C289.786 40.4082 289.698 40.2245 289.523 40.2245C289.329 40.2245 289.261 40.0101 289.261 39.398C289.261 38.7858 289.193 38.5714 288.998 38.5714C288.823 38.5714 288.736 38.3878 288.736 38.0204C288.736 37.6531 288.648 37.4694 288.473 37.4694C288.298 37.4694 288.211 37.2857 288.211 36.9184C288.211 36.551 288.124 36.3673 287.949 36.3673C287.774 36.3673 287.686 36.1837 287.686 35.8163C287.686 35.449 287.599 35.2653 287.424 35.2653C287.249 35.2653 287.161 35.0816 287.161 34.7143C287.161 34.3469 287.074 34.1633 286.899 34.1633C286.724 34.1633 286.636 33.9796 286.636 33.6122C286.636 33.2449 286.549 33.0612 286.374 33.0612C286.199 33.0612 286.111 32.8776 286.111 32.5102C286.111 32.1429 286.024 31.9592 285.849 31.9592C285.674 31.9592 285.586 31.7755 285.586 31.4082C285.586 31.0408 285.499 30.8571 285.324 30.8571C285.149 30.8571 285.061 30.6735 285.061 30.3061C285.061 29.9388 284.974 29.7551 284.799 29.7551C284.624 29.7551 284.536 29.5714 284.536 29.2041C284.536 28.8367 284.449 28.6531 284.274 28.6531C284.099 28.6531 284.011 28.4694 284.011 28.102C284.011 27.7347 283.924 27.551 283.749 27.551C283.574 27.551 283.486 27.3673 283.486 27C283.486 26.6327 283.399 26.449 283.224 26.449C283.029 26.449 282.961 26.2346 282.961 25.6224C282.961 25.0103 282.893 24.7959 282.699 24.7959C282.524 24.7959 282.436 24.6122 282.436 24.2449C282.436 23.8776 282.349 23.6939 282.174 23.6939C281.999 23.6939 281.911 23.5102 281.911 23.1429C281.911 22.7755 281.824 22.5918 281.649 22.5918C281.474 22.5918 281.386 22.4082 281.386 22.0408C281.386 21.6735 281.299 21.4898 281.124 21.4898C280.949 21.4898 280.861 21.3061 280.861 20.9388C280.861 20.5714 280.774 20.3878 280.599 20.3878C280.424 20.3878 280.336 20.2041 280.336 19.8367C280.336 19.4694 280.249 19.2857 280.074 19.2857C279.899 19.2857 279.811 19.102 279.811 18.7347C279.811 18.3673 279.724 18.1837 279.549 18.1837C279.374 18.1837 279.286 18 279.286 17.6327C279.286 17.2653 279.199 17.0816 279.024 17.0816C278.849 17.0816 278.761 16.898 278.761 16.5306C278.761 16.1633 278.674 15.9796 278.499 15.9796C278.324 15.9796 278.236 15.7959 278.236 15.4286C278.236 15.0612 278.149 14.8776 277.974 14.8776C277.799 14.8776 277.712 14.6939 277.712 14.3265C277.712 13.9592 277.624 13.7755 277.449 13.7755C277.255 13.7755 277.187 13.5612 277.187 12.949C277.187 12.3368 277.118 12.1224 276.924 12.1224C276.749 12.1224 276.662 11.9388 276.662 11.5714C276.662 11.2041 276.574 11.0204 276.399 11.0204C276.224 11.0204 276.137 10.8367 276.137 10.4694C276.137 10.102 276.049 9.91837 275.874 9.91837C275.699 9.91837 275.612 9.73469 275.612 9.36735C275.612 9 275.524 8.81633 275.349 8.81633C275.174 8.81633 275.087 8.63265 275.087 8.26531C275.087 7.89796 274.999 7.71429 274.824 7.71429C274.649 7.71429 274.562 7.53061 274.562 7.16327C274.562 6.79592 274.474 6.61225 274.299 6.61225C274.124 6.61225 274.037 6.42857 274.037 6.06122C274.037 5.69388 273.949 5.5102 273.774 5.5102C273.599 5.5102 273.512 5.32653 273.512 4.95918C273.512 4.59184 273.424 4.40816 273.249 4.40816C273.074 4.40816 272.987 4.22449 272.987 3.85714C272.987 3.4898 272.899 3.30612 272.724 3.30612C272.549 3.30612 272.462 3.12245 272.462 2.7551C272.462 2.38776 272.374 2.20408 272.199 2.20408C272.024 2.20408 271.937 2.02041 271.937 1.65306C271.937 1.28571 271.849 1.10204 271.674 1.10204C271.499 1.10204 271.412 0.918367 271.412 0.55102V0H262.487C254.671 0 253.563 0.0341633 253.563 0.27551ZM313.935 0.826531C313.935 1.43871 314.003 1.65306 314.197 1.65306C314.392 1.65306 314.46 1.86741 314.46 2.47959C314.46 3.09178 314.528 3.30612 314.722 3.30612C314.897 3.30612 314.985 3.4898 314.985 3.85714C314.985 4.22449 315.072 4.40816 315.247 4.40816C315.422 4.40816 315.51 4.59184 315.51 4.95918C315.51 5.32653 315.597 5.5102 315.772 5.5102C315.947 5.5102 316.035 5.69388 316.035 6.06122C316.035 6.42857 316.122 6.61225 316.297 6.61225C316.472 6.61225 316.56 6.79592 316.56 7.16327C316.56 7.53061 316.647 7.71429 316.822 7.71429C316.997 7.71429 317.085 7.89796 317.085 8.26531C317.085 8.63265 317.172 8.81633 317.347 8.81633C317.522 8.81633 317.61 9 317.61 9.36735C317.61 9.73469 317.697 9.91837 317.872 9.91837C318.047 9.91837 318.135 10.102 318.135 10.4694C318.135 10.8367 318.222 11.0204 318.397 11.0204C318.572 11.0204 318.66 11.2041 318.66 11.5714C318.66 11.9388 318.747 12.1224 318.922 12.1224C319.097 12.1224 319.185 12.3061 319.185 12.6735C319.185 13.0408 319.272 13.2245 319.447 13.2245C319.622 13.2245 319.709 13.4082 319.709 13.7755C319.709 14.1429 319.797 14.3265 319.972 14.3265C320.147 14.3265 320.234 14.5102 320.234 14.8776C320.234 15.2449 320.322 15.4286 320.497 15.4286C320.691 15.4286 320.759 15.6429 320.759 16.2551C320.759 16.8673 320.827 17.0816 321.022 17.0816C321.197 17.0816 321.284 17.2653 321.284 17.6327C321.284 18 321.372 18.1837 321.547 18.1837C321.722 18.1837 321.809 18.3673 321.809 18.7347C321.809 19.102 321.897 19.2857 322.072 19.2857C322.247 19.2857 322.334 19.4694 322.334 19.8367C322.334 20.2041 322.422 20.3878 322.597 20.3878C322.772 20.3878 322.859 20.5714 322.859 20.9388C322.859 21.3061 322.947 21.4898 323.122 21.4898C323.297 21.4898 323.384 21.6735 323.384 22.0408C323.384 22.4082 323.472 22.5918 323.647 22.5918C323.822 22.5918 323.909 22.7755 323.909 23.1429C323.909 23.5102 323.997 23.6939 324.172 23.6939C324.347 23.6939 324.434 23.8776 324.434 24.2449C324.434 24.6122 324.522 24.7959 324.697 24.7959C324.872 24.7959 324.959 24.9796 324.959 25.3469C324.959 25.7143 325.047 25.898 325.222 25.898C325.397 25.898 325.484 26.0816 325.484 26.449C325.484 26.8163 325.572 27 325.747 27C325.922 27 326.009 27.1837 326.009 27.551C326.009 27.9184 326.097 28.102 326.272 28.102C326.466 28.102 326.534 28.3164 326.534 28.9286C326.534 29.5408 326.602 29.7551 326.797 29.7551C326.972 29.7551 327.059 29.9388 327.059 30.3061C327.059 30.6735 327.147 30.8571 327.322 30.8571C327.497 30.8571 327.584 31.0408 327.584 31.4082C327.584 31.7755 327.672 31.9592 327.847 31.9592C328.022 31.9592 328.109 32.1429 328.109 32.5102C328.109 32.8776 328.197 33.0612 328.372 33.0612C328.547 33.0612 328.634 33.2449 328.634 33.6122C328.634 33.9796 328.722 34.1633 328.897 34.1633C329.072 34.1633 329.159 34.3469 329.159 34.7143C329.159 35.0816 329.247 35.2653 329.422 35.2653C329.596 35.2653 329.684 35.449 329.684 35.8163C329.684 36.1837 329.771 36.3673 329.946 36.3673C330.121 36.3673 330.209 36.551 330.209 36.9184C330.209 37.2857 330.296 37.4694 330.471 37.4694C330.646 37.4694 330.734 37.6531 330.734 38.0204C330.734 38.3878 330.821 38.5714 330.996 38.5714C331.171 38.5714 331.259 38.7551 331.259 39.1224C331.259 39.4898 331.346 39.6735 331.521 39.6735C331.696 39.6735 331.784 39.8571 331.784 40.2245C331.784 40.5918 331.871 40.7755 332.046 40.7755C332.221 40.7755 332.309 40.9592 332.309 41.3265C332.309 41.6939 332.396 41.8776 332.571 41.8776C332.766 41.8776 332.834 42.0919 332.834 42.7041C332.834 43.3163 332.902 43.5306 333.096 43.5306C333.271 43.5306 333.359 43.7143 333.359 44.0816C333.359 44.449 333.446 44.6327 333.621 44.6327C333.796 44.6327 333.884 44.8163 333.884 45.1837C333.884 45.551 333.971 45.7347 334.146 45.7347C334.321 45.7347 334.409 45.9184 334.409 46.2857C334.409 46.6531 334.496 46.8367 334.671 46.8367C334.846 46.8367 334.934 47.0204 334.934 47.3878C334.934 47.7551 335.021 47.9388 335.196 47.9388C335.371 47.9388 335.459 48.1224 335.459 48.4898C335.459 48.8571 335.546 49.0408 335.721 49.0408C335.896 49.0408 335.984 49.2245 335.984 49.5918C335.984 49.9592 336.071 50.1429 336.246 50.1429C336.421 50.1429 336.509 50.3265 336.509 50.6939C336.509 51.0612 336.596 51.2449 336.771 51.2449C336.946 51.2449 337.034 51.4286 337.034 51.7959C337.034 52.1633 337.121 52.3469 337.296 52.3469C337.471 52.3469 337.559 52.5306 337.559 52.898C337.559 53.2653 337.646 53.449 337.821 53.449C337.996 53.449 338.084 53.6327 338.084 54C338.084 54.3673 338.171 54.551 338.346 54.551C338.54 54.551 338.609 54.7654 338.609 55.3776C338.609 55.9897 338.677 56.2041 338.871 56.2041C339.046 56.2041 339.134 56.3878 339.134 56.7551C339.134 57.1224 339.221 57.3061 339.396 57.3061C339.571 57.3061 339.659 57.4898 339.659 57.8571C339.659 58.2245 339.746 58.4082 339.921 58.4082C340.096 58.4082 340.183 58.5918 340.183 58.9592C340.183 59.3265 340.271 59.5102 340.446 59.5102C340.621 59.5102 340.708 59.6939 340.708 60.0612C340.708 60.4286 340.796 60.6122 340.971 60.6122C341.146 60.6122 341.233 60.7959 341.233 61.1633C341.233 61.5306 341.321 61.7143 341.496 61.7143C341.671 61.7143 341.758 61.898 341.758 62.2653C341.758 62.6327 341.846 62.8163 342.021 62.8163C342.196 62.8163 342.283 63 342.283 63.3673C342.283 63.7347 342.371 63.9184 342.546 63.9184C342.721 63.9184 342.808 64.102 342.808 64.4694C342.808 64.8367 342.896 65.0204 343.071 65.0204C343.246 65.0204 343.333 65.2041 343.333 65.5714C343.333 65.9388 343.421 66.1225 343.596 66.1225C343.771 66.1225 343.858 66.3061 343.858 66.6735C343.858 67.0408 343.946 67.2245 344.121 67.2245C344.296 67.2245 344.383 67.4082 344.383 67.7755C344.383 68.1429 344.471 68.3265 344.646 68.3265C344.84 68.3265 344.908 68.5409 344.908 69.1531C344.908 69.7652 344.976 69.9796 345.171 69.9796C345.346 69.9796 345.433 70.1633 345.433 70.5306C345.433 70.898 345.521 71.0816 345.696 71.0816C345.871 71.0816 345.958 71.2653 345.958 71.6327C345.958 72 346.046 72.1837 346.221 72.1837C346.396 72.1837 346.483 72.3673 346.483 72.7347C346.483 73.102 346.571 73.2857 346.746 73.2857C346.921 73.2857 347.008 73.4694 347.008 73.8367C347.008 74.2041 347.096 74.3878 347.271 74.3878C347.446 74.3878 347.533 74.5714 347.533 74.9388C347.533 75.3061 347.621 75.4898 347.796 75.4898C347.971 75.4898 348.058 75.6735 348.058 76.0408C348.058 76.4082 348.146 76.5918 348.321 76.5918C348.496 76.5918 348.583 76.7755 348.583 77.1429C348.583 77.5102 348.671 77.6939 348.846 77.6939C349.021 77.6939 349.108 77.8775 349.108 78.2449C349.108 78.6122 349.196 78.7959 349.371 78.7959C349.546 78.7959 349.633 78.9796 349.633 79.3469C349.633 79.7143 349.721 79.898 349.896 79.898C350.07 79.898 350.158 80.0816 350.158 80.449V81H359.345C367.395 81 368.532 80.9658 368.532 80.7245C368.532 80.573 368.65 80.449 368.795 80.449C368.97 80.449 369.057 80.2653 369.057 79.898C369.057 79.5306 369.145 79.3469 369.32 79.3469C369.495 79.3469 369.582 79.1633 369.582 78.7959C369.582 78.4286 369.67 78.2449 369.845 78.2449C370.02 78.2449 370.107 78.0612 370.107 77.6939C370.107 77.3265 370.195 77.1429 370.37 77.1429C370.544 77.1429 370.632 76.9592 370.632 76.5918C370.632 76.2245 370.72 76.0408 370.895 76.0408C371.069 76.0408 371.157 75.8571 371.157 75.4898C371.157 75.1225 371.244 74.9388 371.419 74.9388C371.594 74.9388 371.682 74.7551 371.682 74.3878C371.682 74.0204 371.769 73.8367 371.944 73.8367C372.139 73.8367 372.207 73.6224 372.207 73.0102C372.207 72.398 372.275 72.1837 372.469 72.1837C372.644 72.1837 372.732 72 372.732 71.6327C372.732 71.2653 372.819 71.0816 372.994 71.0816C373.169 71.0816 373.257 70.898 373.257 70.5306C373.257 70.1633 373.344 69.9796 373.519 69.9796C373.694 69.9796 373.782 69.7959 373.782 69.4286C373.782 69.0612 373.869 68.8775 374.044 68.8775C374.219 68.8775 374.307 68.6939 374.307 68.3265C374.307 67.9592 374.394 67.7755 374.569 67.7755C374.744 67.7755 374.832 67.5918 374.832 67.2245C374.832 66.8571 374.919 66.6735 375.094 66.6735C375.269 66.6735 375.357 66.4898 375.357 66.1225C375.357 65.7551 375.444 65.5714 375.619 65.5714C375.794 65.5714 375.882 65.3878 375.882 65.0204C375.882 64.6531 375.969 64.4694 376.144 64.4694C376.319 64.4694 376.407 64.2857 376.407 63.9184C376.407 63.551 376.494 63.3673 376.669 63.3673C376.844 63.3673 376.932 63.1837 376.932 62.8163C376.932 62.449 377.019 62.2653 377.194 62.2653C377.369 62.2653 377.457 62.0816 377.457 61.7143C377.457 61.3469 377.544 61.1633 377.719 61.1633C377.894 61.1633 377.982 60.9796 377.982 60.6122C377.982 60.2449 378.069 60.0612 378.244 60.0612C378.419 60.0612 378.507 59.8776 378.507 59.5102C378.507 59.1429 378.594 58.9592 378.769 58.9592C378.944 58.9592 379.032 58.7755 379.032 58.4082C379.032 58.0408 379.119 57.8571 379.294 57.8571C379.469 57.8571 379.557 57.6735 379.557 57.3061C379.557 56.9388 379.644 56.7551 379.819 56.7551C380.013 56.7551 380.082 56.5408 380.082 55.9286C380.082 55.3164 380.15 55.102 380.344 55.102C380.519 55.102 380.607 54.9184 380.607 54.551C380.607 54.1837 380.694 54 380.869 54C381.044 54 381.132 53.8163 381.132 53.449C381.132 53.0816 381.219 52.898 381.394 52.898C381.569 52.898 381.656 52.7143 381.656 52.3469C381.656 51.9796 381.744 51.7959 381.919 51.7959C382.094 51.7959 382.181 51.6122 382.181 51.2449C382.181 50.8776 382.269 50.6939 382.444 50.6939C382.619 50.6939 382.706 50.5102 382.706 50.1429C382.706 49.7755 382.794 49.5918 382.969 49.5918C383.144 49.5918 383.231 49.4082 383.231 49.0408C383.231 48.6735 383.319 48.4898 383.494 48.4898C383.669 48.4898 383.756 48.3061 383.756 47.9388C383.756 47.5714 383.844 47.3878 384.019 47.3878C384.194 47.3878 384.281 47.2041 384.281 46.8367C384.281 46.4694 384.369 46.2857 384.544 46.2857C384.719 46.2857 384.806 46.102 384.806 45.7347C384.806 45.3673 384.894 45.1837 385.069 45.1837C385.244 45.1837 385.331 45 385.331 44.6327C385.331 44.2653 385.419 44.0816 385.594 44.0816C385.769 44.0816 385.856 43.898 385.856 43.5306C385.856 43.1633 385.944 42.9796 386.119 42.9796C386.294 42.9796 386.381 42.7959 386.381 42.4286C386.381 42.0612 386.469 41.8776 386.644 41.8776C386.819 41.8776 386.906 41.6939 386.906 41.3265C386.906 40.9592 386.994 40.7755 387.169 40.7755C387.344 40.7755 387.431 40.5918 387.431 40.2245C387.431 39.8571 387.519 39.6735 387.694 39.6735C387.888 39.6735 387.956 39.4591 387.956 38.8469C387.956 38.2348 388.024 38.0204 388.219 38.0204C388.394 38.0204 388.481 37.8367 388.481 37.4694C388.481 37.102 388.569 36.9184 388.744 36.9184C388.919 36.9184 389.006 36.7347 389.006 36.3673C389.006 36 389.094 35.8163 389.269 35.8163C389.444 35.8163 389.531 35.6327 389.531 35.2653C389.531 34.898 389.619 34.7143 389.794 34.7143C389.969 34.7143 390.056 34.5306 390.056 34.1633C390.056 33.7959 390.144 33.6122 390.319 33.6122C390.494 33.6122 390.581 33.4286 390.581 33.0612C390.581 32.6939 390.669 32.5102 390.844 32.5102C391.019 32.5102 391.106 32.3265 391.106 31.9592C391.106 31.5918 391.194 31.4082 391.368 31.4082C391.543 31.4082 391.631 31.2245 391.631 30.8571C391.631 30.4898 391.718 30.3061 391.893 30.3061C392.068 30.3061 392.156 30.1224 392.156 29.7551C392.156 29.3878 392.243 29.2041 392.418 29.2041C392.593 29.2041 392.681 29.0204 392.681 28.6531C392.681 28.2857 392.768 28.102 392.943 28.102C393.118 28.102 393.206 27.9184 393.206 27.551C393.206 27.1837 393.293 27 393.468 27C393.643 27 393.731 26.8163 393.731 26.449C393.731 26.0816 393.818 25.898 393.993 25.898C394.168 25.898 394.256 25.7143 394.256 25.3469C394.256 24.9796 394.343 24.7959 394.518 24.7959C394.693 24.7959 394.781 24.6122 394.781 24.2449C394.781 23.8776 394.868 23.6939 395.043 23.6939C395.238 23.6939 395.306 23.4795 395.306 22.8673C395.306 22.2552 395.374 22.0408 395.568 22.0408C395.743 22.0408 395.831 21.8571 395.831 21.4898C395.831 21.1224 395.918 20.9388 396.093 20.9388C396.268 20.9388 396.356 20.7551 396.356 20.3878C396.356 20.0204 396.443 19.8367 396.618 19.8367C396.793 19.8367 396.881 19.6531 396.881 19.2857C396.881 18.9184 396.968 18.7347 397.143 18.7347C397.318 18.7347 397.406 18.551 397.406 18.1837C397.406 17.8163 397.493 17.6327 397.668 17.6327C397.843 17.6327 397.931 17.449 397.931 17.0816C397.931 16.7143 398.018 16.5306 398.193 16.5306C398.368 16.5306 398.456 16.3469 398.456 15.9796C398.456 15.6122 398.543 15.4286 398.718 15.4286C398.893 15.4286 398.981 15.2449 398.981 14.8776C398.981 14.5102 399.068 14.3265 399.243 14.3265C399.418 14.3265 399.506 14.1429 399.506 13.7755C399.506 13.4082 399.593 13.2245 399.768 13.2245C399.943 13.2245 400.031 13.0408 400.031 12.6735C400.031 12.3061 400.118 12.1224 400.293 12.1224C400.468 12.1224 400.556 11.9388 400.556 11.5714C400.556 11.2041 400.643 11.0204 400.818 11.0204C400.993 11.0204 401.081 10.8367 401.081 10.4694C401.081 10.102 401.168 9.91837 401.343 9.91837C401.518 9.91837 401.605 9.73469 401.605 9.36735C401.605 9 401.693 8.81633 401.868 8.81633C402.043 8.81633 402.13 8.63265 402.13 8.26531C402.13 7.89796 402.218 7.71429 402.393 7.71429C402.568 7.71429 402.655 7.53061 402.655 7.16327C402.655 6.79592 402.743 6.61225 402.918 6.61225C403.112 6.61225 403.18 6.3979 403.18 5.78571C403.18 5.17353 403.249 4.95918 403.443 4.95918C403.618 4.95918 403.705 4.77551 403.705 4.40816C403.705 4.04082 403.793 3.85714 403.968 3.85714C404.143 3.85714 404.23 3.67347 404.23 3.30612C404.23 2.93878 404.318 2.7551 404.493 2.7551C404.668 2.7551 404.755 2.57143 404.755 2.20408C404.755 1.83673 404.843 1.65306 405.018 1.65306C405.212 1.65306 405.28 1.43871 405.28 0.826531V0H396.093C388.044 0 386.906 0.0341633 386.906 0.27551C386.906 0.427041 386.788 0.55102 386.644 0.55102C386.499 0.55102 386.381 0.675 386.381 0.826531C386.381 0.978061 386.263 1.10204 386.119 1.10204C385.944 1.10204 385.856 1.28571 385.856 1.65306C385.856 2.02041 385.769 2.20408 385.594 2.20408C385.419 2.20408 385.331 2.38776 385.331 2.7551C385.331 3.12245 385.244 3.30612 385.069 3.30612C384.874 3.30612 384.806 3.52047 384.806 4.13265C384.806 4.74484 384.738 4.95918 384.544 4.95918C384.369 4.95918 384.281 5.14286 384.281 5.5102C384.281 5.87755 384.194 6.06122 384.019 6.06122C383.844 6.06122 383.756 6.2449 383.756 6.61225C383.756 6.97959 383.669 7.16327 383.494 7.16327C383.319 7.16327 383.231 7.34694 383.231 7.71429C383.231 8.08163 383.144 8.26531 382.969 8.26531C382.794 8.26531 382.706 8.44898 382.706 8.81633C382.706 9.18367 382.619 9.36735 382.444 9.36735C382.269 9.36735 382.181 9.55102 382.181 9.91837C382.181 10.2857 382.094 10.4694 381.919 10.4694C381.744 10.4694 381.656 10.6531 381.656 11.0204C381.656 11.3878 381.569 11.5714 381.394 11.5714C381.219 11.5714 381.132 11.7551 381.132 12.1224C381.132 12.4898 381.044 12.6735 380.869 12.6735C380.675 12.6735 380.607 12.8878 380.607 13.5C380.607 14.1122 380.538 14.3265 380.344 14.3265C380.169 14.3265 380.082 14.5102 380.082 14.8776C380.082 15.2449 379.994 15.4286 379.819 15.4286C379.644 15.4286 379.557 15.6122 379.557 15.9796C379.557 16.3469 379.469 16.5306 379.294 16.5306C379.119 16.5306 379.032 16.7143 379.032 17.0816C379.032 17.449 378.944 17.6327 378.769 17.6327C378.594 17.6327 378.507 17.8163 378.507 18.1837C378.507 18.551 378.419 18.7347 378.244 18.7347C378.069 18.7347 377.982 18.9184 377.982 19.2857C377.982 19.6531 377.894 19.8367 377.719 19.8367C377.544 19.8367 377.457 20.0204 377.457 20.3878C377.457 20.7551 377.369 20.9388 377.194 20.9388C377.019 20.9388 376.932 21.1224 376.932 21.4898C376.932 21.8571 376.844 22.0408 376.669 22.0408C376.475 22.0408 376.407 22.2552 376.407 22.8673C376.407 23.4795 376.339 23.6939 376.144 23.6939C375.969 23.6939 375.882 23.8776 375.882 24.2449C375.882 24.6122 375.794 24.7959 375.619 24.7959C375.444 24.7959 375.357 24.9796 375.357 25.3469C375.357 25.7143 375.269 25.898 375.094 25.898C374.919 25.898 374.832 26.0816 374.832 26.449C374.832 26.8163 374.744 27 374.569 27C374.394 27 374.307 27.1837 374.307 27.551C374.307 27.9184 374.219 28.102 374.044 28.102C373.869 28.102 373.782 28.2857 373.782 28.6531C373.782 29.0204 373.694 29.2041 373.519 29.2041C373.344 29.2041 373.257 29.3878 373.257 29.7551C373.257 30.1224 373.169 30.3061 372.994 30.3061C372.819 30.3061 372.732 30.4898 372.732 30.8571C372.732 31.2245 372.644 31.4082 372.469 31.4082C372.275 31.4082 372.207 31.6225 372.207 32.2347C372.207 32.8469 372.139 33.0612 371.944 33.0612C371.769 33.0612 371.682 33.2449 371.682 33.6122C371.682 33.9796 371.594 34.1633 371.419 34.1633C371.244 34.1633 371.157 34.3469 371.157 34.7143C371.157 35.0816 371.069 35.2653 370.895 35.2653C370.72 35.2653 370.632 35.449 370.632 35.8163C370.632 36.1837 370.544 36.3673 370.37 36.3673C370.195 36.3673 370.107 36.551 370.107 36.9184C370.107 37.2857 370.02 37.4694 369.845 37.4694C369.67 37.4694 369.582 37.6531 369.582 38.0204C369.582 38.3878 369.495 38.5714 369.32 38.5714C369.145 38.5714 369.057 38.7551 369.057 39.1224C369.057 39.4898 368.97 39.6735 368.795 39.6735C368.62 39.6735 368.532 39.8571 368.532 40.2245C368.532 40.5918 368.445 40.7755 368.27 40.7755C368.075 40.7755 368.007 40.9899 368.007 41.602C368.007 42.2142 367.939 42.4286 367.745 42.4286C367.57 42.4286 367.482 42.6122 367.482 42.9796C367.482 43.3469 367.395 43.5306 367.22 43.5306C367.045 43.5306 366.957 43.7143 366.957 44.0816C366.957 44.449 366.87 44.6327 366.695 44.6327C366.52 44.6327 366.432 44.8163 366.432 45.1837C366.432 45.551 366.345 45.7347 366.17 45.7347C365.995 45.7347 365.907 45.9184 365.907 46.2857C365.907 46.6531 365.82 46.8367 365.645 46.8367C365.47 46.8367 365.382 47.0204 365.382 47.3878C365.382 47.7551 365.295 47.9388 365.12 47.9388C364.945 47.9388 364.857 48.1224 364.857 48.4898C364.857 48.8571 364.77 49.0408 364.595 49.0408C364.42 49.0408 364.332 49.2245 364.332 49.5918C364.332 49.9592 364.245 50.1429 364.07 50.1429C363.875 50.1429 363.807 50.3572 363.807 50.9694C363.807 51.5816 363.739 51.7959 363.545 51.7959C363.37 51.7959 363.282 51.9796 363.282 52.3469C363.282 52.7143 363.195 52.898 363.02 52.898C362.845 52.898 362.757 53.0816 362.757 53.449C362.757 53.8163 362.67 54 362.495 54C362.32 54 362.232 54.1837 362.232 54.551C362.232 54.9184 362.145 55.102 361.97 55.102C361.795 55.102 361.707 55.2857 361.707 55.6531C361.707 56.0204 361.62 56.2041 361.445 56.2041C361.27 56.2041 361.182 56.3878 361.182 56.7551C361.182 57.1224 361.095 57.3061 360.92 57.3061C360.745 57.3061 360.658 57.4898 360.658 57.8571C360.658 58.2245 360.57 58.4082 360.395 58.4082C360.22 58.4082 360.133 58.5918 360.133 58.9592C360.133 59.3265 360.045 59.5102 359.87 59.5102C359.695 59.5102 359.608 59.6939 359.608 60.0612C359.608 60.4286 359.52 60.6122 359.345 60.6122C359.17 60.6122 359.083 60.4286 359.083 60.0612C359.083 59.6939 358.995 59.5102 358.82 59.5102C358.645 59.5102 358.558 59.3265 358.558 58.9592C358.558 58.5918 358.47 58.4082 358.295 58.4082C358.101 58.4082 358.033 58.1938 358.033 57.5816C358.033 56.9694 357.965 56.7551 357.77 56.7551C357.595 56.7551 357.508 56.5714 357.508 56.2041C357.508 55.8367 357.42 55.6531 357.245 55.6531C357.07 55.6531 356.983 55.4694 356.983 55.102C356.983 54.7347 356.895 54.551 356.72 54.551C356.545 54.551 356.458 54.3673 356.458 54C356.458 53.6327 356.37 53.449 356.195 53.449C356.02 53.449 355.933 53.2653 355.933 52.898C355.933 52.5306 355.845 52.3469 355.67 52.3469C355.495 52.3469 355.408 52.1633 355.408 51.7959C355.408 51.4286 355.32 51.2449 355.145 51.2449C354.97 51.2449 354.883 51.0612 354.883 50.6939C354.883 50.3265 354.795 50.1429 354.62 50.1429C354.426 50.1429 354.358 49.9285 354.358 49.3163C354.358 48.7041 354.29 48.4898 354.095 48.4898C353.92 48.4898 353.833 48.3061 353.833 47.9388C353.833 47.5714 353.745 47.3878 353.57 47.3878C353.395 47.3878 353.308 47.2041 353.308 46.8367C353.308 46.4694 353.22 46.2857 353.045 46.2857C352.87 46.2857 352.783 46.102 352.783 45.7347C352.783 45.3673 352.695 45.1837 352.52 45.1837C352.345 45.1837 352.258 45 352.258 44.6327C352.258 44.2653 352.17 44.0816 351.995 44.0816C351.82 44.0816 351.733 43.898 351.733 43.5306C351.733 43.1633 351.645 42.9796 351.47 42.9796C351.276 42.9796 351.208 42.7652 351.208 42.1531C351.208 41.5409 351.14 41.3265 350.945 41.3265C350.77 41.3265 350.683 41.1429 350.683 40.7755C350.683 40.4082 350.595 40.2245 350.42 40.2245C350.245 40.2245 350.158 40.0408 350.158 39.6735C350.158 39.3061 350.07 39.1224 349.896 39.1224C349.721 39.1224 349.633 38.9388 349.633 38.5714C349.633 38.2041 349.546 38.0204 349.371 38.0204C349.196 38.0204 349.108 37.8367 349.108 37.4694C349.108 37.102 349.021 36.9184 348.846 36.9184C348.671 36.9184 348.583 36.7347 348.583 36.3673C348.583 36 348.496 35.8163 348.321 35.8163C348.146 35.8163 348.058 35.6327 348.058 35.2653C348.058 34.898 347.971 34.7143 347.796 34.7143C347.601 34.7143 347.533 34.4999 347.533 33.8878C347.533 33.2756 347.465 33.0612 347.271 33.0612C347.096 33.0612 347.008 32.8776 347.008 32.5102C347.008 32.1429 346.921 31.9592 346.746 31.9592C346.571 31.9592 346.483 31.7755 346.483 31.4082C346.483 31.0408 346.396 30.8571 346.221 30.8571C346.046 30.8571 345.958 30.6735 345.958 30.3061C345.958 29.9388 345.871 29.7551 345.696 29.7551C345.521 29.7551 345.433 29.5714 345.433 29.2041C345.433 28.8367 345.346 28.6531 345.171 28.6531C344.996 28.6531 344.908 28.4694 344.908 28.102C344.908 27.7347 344.821 27.551 344.646 27.551C344.471 27.551 344.383 27.3673 344.383 27C344.383 26.6327 344.296 26.449 344.121 26.449C343.926 26.449 343.858 26.2346 343.858 25.6224C343.858 25.0103 343.79 24.7959 343.596 24.7959C343.421 24.7959 343.333 24.6122 343.333 24.2449C343.333 23.8776 343.246 23.6939 343.071 23.6939C342.896 23.6939 342.808 23.5102 342.808 23.1429C342.808 22.7755 342.721 22.5918 342.546 22.5918C342.371 22.5918 342.283 22.4082 342.283 22.0408C342.283 21.6735 342.196 21.4898 342.021 21.4898C341.846 21.4898 341.758 21.3061 341.758 20.9388C341.758 20.5714 341.671 20.3878 341.496 20.3878C341.321 20.3878 341.233 20.2041 341.233 19.8367C341.233 19.4694 341.146 19.2857 340.971 19.2857C340.777 19.2857 340.708 19.0714 340.708 18.4592C340.708 17.847 340.64 17.6327 340.446 17.6327C340.271 17.6327 340.183 17.449 340.183 17.0816C340.183 16.7143 340.096 16.5306 339.921 16.5306C339.746 16.5306 339.659 16.3469 339.659 15.9796C339.659 15.6122 339.571 15.4286 339.396 15.4286C339.221 15.4286 339.134 15.2449 339.134 14.8776C339.134 14.5102 339.046 14.3265 338.871 14.3265C338.696 14.3265 338.609 14.1429 338.609 13.7755C338.609 13.4082 338.521 13.2245 338.346 13.2245C338.171 13.2245 338.084 13.0408 338.084 12.6735C338.084 12.3061 337.996 12.1224 337.821 12.1224C337.646 12.1224 337.559 11.9388 337.559 11.5714C337.559 11.2041 337.471 11.0204 337.296 11.0204C337.102 11.0204 337.034 10.8061 337.034 10.1939C337.034 9.58169 336.966 9.36735 336.771 9.36735C336.596 9.36735 336.509 9.18367 336.509 8.81633C336.509 8.44898 336.421 8.26531 336.246 8.26531C336.071 8.26531 335.984 8.08163 335.984 7.71429C335.984 7.34694 335.896 7.16327 335.721 7.16327C335.546 7.16327 335.459 6.97959 335.459 6.61225C335.459 6.2449 335.371 6.06122 335.196 6.06122C335.021 6.06122 334.934 5.87755 334.934 5.5102C334.934 5.14286 334.846 4.95918 334.671 4.95918C334.496 4.95918 334.409 4.77551 334.409 4.40816C334.409 4.04082 334.321 3.85714 334.146 3.85714C333.971 3.85714 333.884 3.67347 333.884 3.30612C333.884 2.93878 333.796 2.7551 333.621 2.7551C333.427 2.7551 333.359 2.54076 333.359 1.92857C333.359 1.31639 333.291 1.10204 333.096 1.10204C332.952 1.10204 332.834 0.978061 332.834 0.826531C332.834 0.675 332.716 0.55102 332.571 0.55102C332.427 0.55102 332.309 0.427041 332.309 0.27551C332.309 0.0341633 331.171 0 323.122 0H313.935V0.826531ZM437.304 0.27551C437.304 0.489857 437.07 0.55102 436.254 0.55102C435.437 0.55102 435.204 0.612184 435.204 0.826531C435.204 1.0102 435.029 1.10204 434.679 1.10204C434.329 1.10204 434.154 1.19388 434.154 1.37755C434.154 1.52908 434.036 1.65306 433.891 1.65306C433.747 1.65306 433.629 1.77704 433.629 1.92857C433.629 2.0801 433.511 2.20408 433.366 2.20408C433.222 2.20408 433.104 2.32806 433.104 2.47959C433.104 2.63112 432.986 2.7551 432.841 2.7551C432.697 2.7551 432.579 2.87908 432.579 3.03061C432.579 3.18214 432.461 3.30612 432.316 3.30612C432.122 3.30612 432.054 3.52047 432.054 4.13265C432.054 4.74484 431.986 4.95918 431.792 4.95918C431.559 4.95918 431.529 9.03067 431.529 40.5C431.529 71.9693 431.559 76.0408 431.792 76.0408C431.967 76.0408 432.054 76.2245 432.054 76.5918C432.054 76.9592 432.142 77.1429 432.316 77.1429C432.491 77.1429 432.579 77.3265 432.579 77.6939C432.579 78.0612 432.667 78.2449 432.841 78.2449C432.986 78.2449 433.104 78.3689 433.104 78.5204C433.104 78.6719 433.222 78.7959 433.366 78.7959C433.511 78.7959 433.629 78.9199 433.629 79.0714C433.629 79.223 433.747 79.3469 433.891 79.3469C434.036 79.3469 434.154 79.4709 434.154 79.6225C434.154 79.8061 434.329 79.898 434.679 79.898C435.029 79.898 435.204 79.9898 435.204 80.1735C435.204 80.4176 439.52 80.449 473.002 80.449C506.484 80.449 510.8 80.4176 510.8 80.1735C510.8 79.9898 510.975 79.898 511.325 79.898C511.675 79.898 511.85 79.8061 511.85 79.6225C511.85 79.4388 512.025 79.3469 512.375 79.3469C512.725 79.3469 512.9 79.2551 512.9 79.0714C512.9 78.9199 513.018 78.7959 513.163 78.7959C513.338 78.7959 513.425 78.6122 513.425 78.2449C513.425 77.8775 513.513 77.6939 513.688 77.6939C513.832 77.6939 513.95 77.5699 513.95 77.4184C513.95 77.2668 514.068 77.1429 514.213 77.1429C514.407 77.1429 514.475 76.9285 514.475 76.3163C514.475 75.7041 514.543 75.4898 514.737 75.4898C514.97 75.4898 515 71.4797 515 40.5C515 9.52035 514.97 5.5102 514.737 5.5102C514.543 5.5102 514.475 5.29586 514.475 4.68367C514.475 4.07149 514.407 3.85714 514.213 3.85714C514.038 3.85714 513.95 3.67347 513.95 3.30612C513.95 2.93878 513.863 2.7551 513.688 2.7551C513.543 2.7551 513.425 2.63112 513.425 2.47959C513.425 2.32806 513.307 2.20408 513.163 2.20408C513.018 2.20408 512.9 2.0801 512.9 1.92857C512.9 1.77704 512.782 1.65306 512.638 1.65306C512.493 1.65306 512.375 1.52908 512.375 1.37755C512.375 1.19388 512.2 1.10204 511.85 1.10204C511.5 1.10204 511.325 1.0102 511.325 0.826531C511.325 0.606122 511.063 0.55102 510.013 0.55102C508.963 0.55102 508.7 0.495918 508.7 0.27551C508.7 0.0315918 504.617 0 473.002 0C441.387 0 437.304 0.0315918 437.304 0.27551ZM18.3741 40.5V66.1225H40.423H62.472V59.2347V52.3469H61.947C61.597 52.3469 61.422 52.2551 61.422 52.0714C61.422 51.8878 61.247 51.7959 60.897 51.7959C60.5471 51.7959 60.3721 51.7041 60.3721 51.5204C60.3721 51.3689 60.2539 51.2449 60.1096 51.2449C59.9652 51.2449 59.8471 51.1209 59.8471 50.9694C59.8471 50.7857 59.6721 50.6939 59.3221 50.6939C58.9721 50.6939 58.7971 50.602 58.7971 50.4184C58.7971 50.2347 58.6222 50.1429 58.2722 50.1429C57.9222 50.1429 57.7472 50.051 57.7472 49.8673C57.7472 49.6837 57.5722 49.5918 57.2222 49.5918C56.8722 49.5918 56.6972 49.5 56.6972 49.3163C56.6972 49.1648 56.5791 49.0408 56.4348 49.0408C56.2904 49.0408 56.1723 48.9168 56.1723 48.7653C56.1723 48.5816 55.9973 48.4898 55.6473 48.4898C55.2973 48.4898 55.1223 48.398 55.1223 48.2143C55.1223 48.0306 54.9473 47.9388 54.5973 47.9388C54.2474 47.9388 54.0724 47.8469 54.0724 47.6633C54.0724 47.4796 53.8974 47.3878 53.5474 47.3878C53.1974 47.3878 53.0224 47.2959 53.0224 47.1122C53.0224 46.9607 52.9043 46.8367 52.7599 46.8367C52.6156 46.8367 52.4975 46.7128 52.4975 46.5612C52.4975 46.3776 52.3225 46.2857 51.9725 46.2857C51.6225 46.2857 51.4475 46.1939 51.4475 46.0102C51.4475 45.8587 51.3294 45.7347 51.185 45.7347C50.9568 45.7347 50.9225 44.9082 50.9225 39.398C50.9225 33.8878 50.9568 33.0612 51.185 33.0612C51.3294 33.0612 51.4475 32.9372 51.4475 32.7857C51.4475 32.602 51.6225 32.5102 51.9725 32.5102C52.3225 32.5102 52.4975 32.4184 52.4975 32.2347C52.4975 32.0832 52.6156 31.9592 52.7599 31.9592C52.9043 31.9592 53.0224 31.8352 53.0224 31.6837C53.0224 31.5 53.1974 31.4082 53.5474 31.4082C53.8974 31.4082 54.0724 31.3163 54.0724 31.1327C54.0724 30.9811 54.1905 30.8571 54.3349 30.8571C54.4792 30.8571 54.5973 30.7332 54.5973 30.5816C54.5973 30.398 54.7723 30.3061 55.1223 30.3061C55.4723 30.3061 55.6473 30.2143 55.6473 30.0306C55.6473 29.8469 55.8223 29.7551 56.1723 29.7551C56.5223 29.7551 56.6972 29.6633 56.6972 29.4796C56.6972 29.3281 56.8154 29.2041 56.9597 29.2041C57.1041 29.2041 57.2222 29.0801 57.2222 28.9286C57.2222 28.7449 57.3972 28.6531 57.7472 28.6531C58.0972 28.6531 58.2722 28.5612 58.2722 28.3776C58.2722 28.226 58.3903 28.102 58.5347 28.102C58.679 28.102 58.7971 27.9781 58.7971 27.8265C58.7971 27.6429 58.9721 27.551 59.3221 27.551C59.6721 27.551 59.8471 27.4592 59.8471 27.2755C59.8471 27.0918 60.0221 27 60.3721 27C60.7221 27 60.897 26.9082 60.897 26.7245C60.897 26.573 61.0152 26.449 61.1595 26.449C61.3039 26.449 61.422 26.325 61.422 26.1735C61.422 26.0219 61.5401 25.898 61.6845 25.898C61.912 25.898 61.947 25.1633 61.947 20.3878V14.8776H40.1605H18.3741V40.5ZM449.903 40.5V65.5714H473.265H496.626V40.5V15.4286H473.265H449.903V40.5Z" fill="#171717"/>
</svg>
