<svg width="21" height="20" viewBox="0 0 21 20" fill="none" xmlns="http://www.w3.org/2000/svg">
<g id="Group 427319228">
<path id="Vector" d="M20.9062 10C20.9062 4.47715 16.4291 0 10.9063 0C5.3834 0 0.90625 4.47715 0.90625 10C0.90625 14.9913 4.5631 19.1283 9.34375 19.8785V12.8906H6.80469V10H9.34375V7.79688C9.34375 5.29062 10.8367 3.90625 13.1209 3.90625C14.215 3.90625 15.3594 4.10156 15.3594 4.10156V6.5625H14.0984C12.8562 6.5625 12.4688 7.33334 12.4688 8.12417V10H15.2422L14.7988 12.8906H12.4687V19.8785C17.2494 19.1283 20.9062 14.9913 20.9062 10Z" fill="#979797"/>
<path id="Vector_2" d="M14.7988 12.8906L15.2422 10H12.4687V8.12415C12.4687 7.33334 12.8561 6.56249 14.0984 6.56249H15.3594V4.10156C15.3594 4.10156 14.215 3.90625 13.1209 3.90625C10.8367 3.90625 9.34374 5.29062 9.34374 7.79688V10H6.80469V12.8906H9.34374V19.8785C9.86064 19.9595 10.3831 20.0001 10.9062 20C11.4378 20 11.9596 19.9584 12.4687 19.8785V12.8906H14.7988Z" fill="#0B0B0B"/>
</g>
</svg>
