<svg width="17" height="17" viewBox="0 0 17 17" fill="none" xmlns="http://www.w3.org/2000/svg">
<g id="globe_15d73oar6fyh 1" clip-path="url(#clip0_388_338)">
<g id="Group">
<path id="Vector" d="M4.99488 4.89947H8.15202V8.15167H4.63684C4.65731 6.99186 4.78325 5.89449 4.99488 4.89947ZM4.99488 12.1005H8.15202V8.84798H4.63684C4.65731 10.0085 4.78325 11.1052 4.99488 12.1005ZM8.15167 4.20247V0.0208163C6.8739 0.271653 5.77792 1.88839 5.16037 4.20247H8.15167ZM12.7302 12.1005H16.2111C16.6767 11.1052 16.9535 10.0085 16.999 8.84798H13.0605C13.0407 10.0099 12.9297 11.1038 12.7302 12.1005ZM12.7302 4.89947C12.9287 5.89553 13.0407 6.99047 13.0602 8.15167H17C16.9525 6.99186 16.6767 5.89449 16.2121 4.89947H12.7302ZM12.5724 4.20247H15.8457C14.7092 2.26308 12.8294 0.818776 10.5945 0.252918C11.4531 1.10396 12.1425 2.47922 12.5724 4.20247ZM8.15167 16.9788V12.7975H5.16037C5.77792 15.1109 6.8739 16.7273 8.15167 16.9788ZM11.8393 4.20247C11.2228 1.88908 10.1264 0.272347 8.84833 0.0208163V4.20247H11.8393ZM12.3639 8.84798H8.84833V12.1005H12.0055C12.2168 11.1052 12.343 10.0085 12.3639 8.84798ZM0 8.84798C0.0468367 10.0085 0.323347 11.1052 0.788592 12.1005H4.26873C4.07029 11.1038 3.95822 10.0099 3.93949 8.84798H0ZM4.42763 12.7975H1.15461C2.29153 14.7369 4.1709 16.1816 6.40622 16.7474C5.54755 15.896 4.85784 14.5208 4.42763 12.7975ZM12.5724 12.7975C12.1425 14.5208 11.4535 15.8964 10.5945 16.7474C12.8291 16.1816 14.7074 14.7362 15.8457 12.7975H12.5724ZM4.42763 4.20247C4.85784 2.47922 5.54651 1.10396 6.40588 0.252918C4.1709 0.818429 2.29222 2.26343 1.15461 4.20247H4.42763ZM12.0055 4.89947H8.84833V8.15167H12.3639C12.343 6.99186 12.2168 5.89449 12.0055 4.89947ZM0.788592 4.89947C0.323347 5.89449 0.0464898 6.99186 0 8.15167H3.93949C3.95857 6.99047 4.07029 5.89553 4.26873 4.89947H0.788592ZM8.84833 12.7975V16.9792C10.1264 16.728 11.2228 15.1116 11.8393 12.7975H8.84833Z" fill="white"/>
</g>
</g>
<defs>
<clipPath id="clip0_388_338">
<rect width="17" height="17" fill="white"/>
</clipPath>
</defs>
</svg>
