<svg width="158" height="25" viewBox="0 0 158 25" fill="none" xmlns="http://www.w3.org/2000/svg">
<path id="Vector" fill-rule="evenodd" clip-rule="evenodd" d="M0 12.415V24.8299H11.8379C22.3247 24.8299 23.6758 24.8202 23.6758 24.7449C23.6758 24.6882 23.7295 24.6599 23.8369 24.6599C23.9443 24.6599 23.998 24.6315 23.998 24.5748C23.998 24.5281 24.0342 24.4898 24.0785 24.4898C24.1228 24.4898 24.159 24.4515 24.159 24.4048C24.159 24.358 24.1953 24.3197 24.2396 24.3197C24.2838 24.3197 24.3201 24.2815 24.3201 24.2347C24.3201 24.1879 24.3563 24.1497 24.4006 24.1497C24.4543 24.1497 24.4811 24.093 24.4811 23.9796C24.4811 23.8662 24.508 23.8095 24.5617 23.8095C24.6154 23.8095 24.6422 23.7528 24.6422 23.6395C24.6422 23.5261 24.669 23.4694 24.7227 23.4694C24.7935 23.4694 24.8033 22.9781 24.8033 19.3878C24.8033 15.7974 24.7935 15.3061 24.7227 15.3061C24.669 15.3061 24.6422 15.2494 24.6422 15.1361C24.6422 15.0227 24.6154 14.966 24.5617 14.966C24.5174 14.966 24.4811 14.9277 24.4811 14.881C24.4811 14.8342 24.4449 14.7959 24.4006 14.7959C24.3563 14.7959 24.3201 14.7577 24.3201 14.7109C24.3201 14.6641 24.2838 14.6258 24.2396 14.6258C24.1953 14.6258 24.159 14.5876 24.159 14.5408C24.159 14.494 24.1228 14.4558 24.0785 14.4558C24.0342 14.4558 23.998 14.4175 23.998 14.3707C23.998 14.324 23.9617 14.2857 23.9174 14.2857C23.8731 14.2857 23.8369 14.2474 23.8369 14.2007C23.8369 14.144 23.7832 14.1156 23.6758 14.1156C23.5685 14.1156 23.5148 14.0873 23.5148 14.0306C23.5148 13.9739 23.4611 13.9456 23.3537 13.9456C23.2463 13.9456 23.1927 13.9172 23.1927 13.8605C23.1927 13.8039 23.139 13.7755 23.0316 13.7755C22.9242 13.7755 22.8705 13.7472 22.8705 13.6905C22.8705 13.6338 22.8169 13.6054 22.7095 13.6054C22.6021 13.6054 22.5484 13.5771 22.5484 13.5204C22.5484 13.4637 22.4947 13.4354 22.3874 13.4354C22.28 13.4354 22.2263 13.407 22.2263 13.3503C22.2263 13.2937 22.1726 13.2653 22.0652 13.2653C21.9579 13.2653 21.9042 13.237 21.9042 13.1803C21.9042 13.1236 21.8505 13.0952 21.7431 13.0952C21.6357 13.0952 21.5821 13.0669 21.5821 13.0102C21.5821 12.9634 21.5458 12.9252 21.5015 12.9252C21.4572 12.9252 21.421 12.8869 21.421 12.8401C21.421 12.7834 21.3673 12.7551 21.2599 12.7551C21.1526 12.7551 21.0989 12.7268 21.0989 12.6701C21.0989 12.6134 21.0452 12.585 20.9378 12.585C20.8304 12.585 20.7768 12.5567 20.7768 12.5C20.7768 12.4433 20.7231 12.415 20.6157 12.415C20.5083 12.415 20.4546 12.3866 20.4546 12.3299C20.4546 12.2832 20.4184 12.2449 20.3741 12.2449C20.3298 12.2449 20.2936 12.2066 20.2936 12.1599C20.2936 12.1032 20.3473 12.0748 20.4546 12.0748C20.562 12.0748 20.6157 12.0465 20.6157 11.9898C20.6157 11.943 20.6519 11.9048 20.6962 11.9048C20.7405 11.9048 20.7768 11.8665 20.7768 11.8197C20.7768 11.763 20.8304 11.7347 20.9378 11.7347C21.0452 11.7347 21.0989 11.7063 21.0989 11.6497C21.0989 11.593 21.1526 11.5646 21.2599 11.5646C21.3673 11.5646 21.421 11.5363 21.421 11.4796C21.421 11.4229 21.4747 11.3946 21.5821 11.3946C21.6894 11.3946 21.7431 11.3662 21.7431 11.3095C21.7431 11.2628 21.7794 11.2245 21.8237 11.2245C21.8679 11.2245 21.9042 11.1862 21.9042 11.1395C21.9042 11.0828 21.9579 11.0544 22.0652 11.0544C22.1726 11.0544 22.2263 11.0261 22.2263 10.9694C22.2263 10.9127 22.28 10.8844 22.3874 10.8844C22.4947 10.8844 22.5484 10.856 22.5484 10.7993C22.5484 10.7426 22.6021 10.7143 22.7095 10.7143C22.8169 10.7143 22.8705 10.6859 22.8705 10.6293C22.8705 10.5825 22.9068 10.5442 22.9511 10.5442C22.9954 10.5442 23.0316 10.506 23.0316 10.4592C23.0316 10.4025 23.0853 10.3741 23.1927 10.3741C23.3 10.3741 23.3537 10.3458 23.3537 10.2891C23.3537 10.2324 23.4074 10.2041 23.5148 10.2041C23.6222 10.2041 23.6758 10.1757 23.6758 10.119C23.6758 10.0723 23.7121 10.034 23.7564 10.034C23.8007 10.034 23.8369 9.99575 23.8369 9.94898C23.8369 9.90221 23.8731 9.86395 23.9174 9.86395C23.9617 9.86395 23.998 9.82568 23.998 9.77891C23.998 9.73214 24.0342 9.69388 24.0785 9.69388C24.1228 9.69388 24.159 9.65561 24.159 9.60884C24.159 9.56207 24.1953 9.52381 24.2396 9.52381C24.2838 9.52381 24.3201 9.48554 24.3201 9.43878C24.3201 9.39201 24.3563 9.35374 24.4006 9.35374C24.4603 9.35374 24.4811 9.28758 24.4811 9.09864C24.4811 8.90969 24.502 8.84354 24.5617 8.84354C24.6324 8.84354 24.6422 8.4089 24.6422 5.27211C24.6422 2.13532 24.6324 1.70068 24.5617 1.70068C24.502 1.70068 24.4811 1.63452 24.4811 1.44558C24.4811 1.25663 24.4603 1.19048 24.4006 1.19048C24.3563 1.19048 24.3201 1.15221 24.3201 1.10544C24.3201 1.05867 24.2838 1.02041 24.2396 1.02041C24.1859 1.02041 24.159 0.963719 24.159 0.85034C24.159 0.736961 24.1322 0.680272 24.0785 0.680272C24.0342 0.680272 23.998 0.642007 23.998 0.595238C23.998 0.538549 23.9443 0.510204 23.8369 0.510204C23.7295 0.510204 23.6758 0.481859 23.6758 0.42517C23.6758 0.368481 23.6222 0.340136 23.5148 0.340136C23.4074 0.340136 23.3537 0.311791 23.3537 0.255102C23.3537 0.188946 23.2822 0.170068 23.0316 0.170068C22.781 0.170068 22.7095 0.15119 22.7095 0.085034C22.7095 0.00969388 21.412 0 11.3547 0H0V12.415ZM33.9837 0.085034C33.9837 0.131803 33.9475 0.170068 33.9032 0.170068C33.8318 0.170068 33.8226 1.57783 33.8226 12.5V24.8299H36.6412H39.4597V14.7959V4.7619H45.9021H52.3445V8.33333V11.9048H48.4791H44.6137V14.6258C44.6137 17.0068 44.6238 17.3469 44.6942 17.3469C44.7385 17.3469 44.7747 17.3852 44.7747 17.432C44.7747 17.4787 44.811 17.517 44.8553 17.517C44.8995 17.517 44.9358 17.5553 44.9358 17.602C44.9358 17.6488 44.972 17.6871 45.0163 17.6871C45.0606 17.6871 45.0968 17.7253 45.0968 17.7721C45.0968 17.8189 45.1331 17.8571 45.1774 17.8571C45.2217 17.8571 45.2579 17.8954 45.2579 17.9422C45.2579 17.9889 45.2941 18.0272 45.3384 18.0272C45.3827 18.0272 45.419 18.0655 45.419 18.1122C45.419 18.159 45.4552 18.1973 45.4995 18.1973C45.5438 18.1973 45.58 18.2355 45.58 18.2823C45.58 18.339 45.6337 18.3673 45.7411 18.3673C45.8485 18.3673 45.9021 18.3957 45.9021 18.4524C45.9021 18.4991 45.9384 18.5374 45.9827 18.5374C46.027 18.5374 46.0632 18.5757 46.0632 18.6224C46.0632 18.6692 46.0994 18.7075 46.1437 18.7075C46.188 18.7075 46.2243 18.7457 46.2243 18.7925C46.2243 18.8393 46.2605 18.8776 46.3048 18.8776C46.3491 18.8776 46.3853 18.9158 46.3853 18.9626C46.3853 19.0094 46.4216 19.0476 46.4659 19.0476C46.5101 19.0476 46.5464 19.0859 46.5464 19.1327C46.5464 19.1794 46.5826 19.2177 46.6269 19.2177C46.6712 19.2177 46.7074 19.256 46.7074 19.3027C46.7074 19.3495 46.7437 19.3878 46.788 19.3878C46.8323 19.3878 46.8685 19.426 46.8685 19.4728C46.8685 19.5196 46.9047 19.5578 46.949 19.5578C46.9933 19.5578 47.0296 19.5961 47.0296 19.6429C47.0296 19.6995 47.0832 19.7279 47.1906 19.7279C47.298 19.7279 47.3517 19.7562 47.3517 19.8129C47.3517 19.8597 47.3879 19.898 47.4322 19.898C47.4765 19.898 47.5127 19.9362 47.5127 19.983C47.5127 20.0298 47.549 20.068 47.5933 20.068C47.6376 20.068 47.6738 20.1063 47.6738 20.1531C47.6738 20.1998 47.71 20.2381 47.7543 20.2381C47.7986 20.2381 47.8349 20.2764 47.8349 20.3231C47.8349 20.3699 47.8711 20.4082 47.9154 20.4082C47.9597 20.4082 47.9959 20.4464 47.9959 20.4932C47.9959 20.54 48.0322 20.5782 48.0765 20.5782C48.1207 20.5782 48.157 20.6165 48.157 20.6633C48.157 20.71 48.1932 20.7483 48.2375 20.7483C48.2818 20.7483 48.318 20.7866 48.318 20.8333C48.318 20.8801 48.3543 20.9184 48.3986 20.9184C48.4429 20.9184 48.4791 20.9566 48.4791 21.0034C48.4791 21.0601 48.5328 21.0884 48.6402 21.0884C48.7475 21.0884 48.8012 21.1168 48.8012 21.1735C48.8012 21.2202 48.8375 21.2585 48.8818 21.2585C48.926 21.2585 48.9623 21.2968 48.9623 21.3435C48.9623 21.3903 48.9985 21.4286 49.0428 21.4286C49.0871 21.4286 49.1233 21.4668 49.1233 21.5136C49.1233 21.5604 49.1596 21.5986 49.2039 21.5986C49.2482 21.5986 49.2844 21.6369 49.2844 21.6837C49.2844 21.7304 49.3206 21.7687 49.3649 21.7687C49.4092 21.7687 49.4455 21.807 49.4455 21.8537C49.4455 21.9005 49.4817 21.9388 49.526 21.9388C49.5703 21.9388 49.6065 21.977 49.6065 22.0238C49.6065 22.0706 49.6428 22.1088 49.6871 22.1088C49.7313 22.1088 49.7676 22.1471 49.7676 22.1939C49.7676 22.2506 49.8213 22.2789 49.9286 22.2789C50.036 22.2789 50.0897 22.3073 50.0897 22.3639C50.0897 22.4107 50.1259 22.449 50.1702 22.449C50.2145 22.449 50.2508 22.4872 50.2508 22.534C50.2508 22.5808 50.287 22.619 50.3313 22.619C50.3756 22.619 50.4118 22.6573 50.4118 22.7041C50.4118 22.7508 50.4481 22.7891 50.4924 22.7891C50.5366 22.7891 50.5729 22.8274 50.5729 22.8741C50.5729 22.9209 50.6091 22.9592 50.6534 22.9592C50.6977 22.9592 50.7339 22.9974 50.7339 23.0442C50.7339 23.091 50.7702 23.1293 50.8145 23.1293C50.8588 23.1293 50.895 23.1675 50.895 23.2143C50.895 23.2611 50.9312 23.2993 50.9755 23.2993C51.0198 23.2993 51.0561 23.3376 51.0561 23.3844C51.0561 23.4311 51.0923 23.4694 51.1366 23.4694C51.1809 23.4694 51.2171 23.5077 51.2171 23.5544C51.2171 23.6111 51.2708 23.6395 51.3782 23.6395C51.4856 23.6395 51.5392 23.6678 51.5392 23.7245C51.5392 23.7713 51.5755 23.8095 51.6198 23.8095C51.6641 23.8095 51.7003 23.8478 51.7003 23.8946C51.7003 23.9413 51.7365 23.9796 51.7808 23.9796C51.8251 23.9796 51.8614 24.0179 51.8614 24.0646C51.8614 24.1114 51.8976 24.1497 51.9419 24.1497C51.9862 24.1497 52.0224 24.1879 52.0224 24.2347C52.0224 24.2815 52.0587 24.3197 52.103 24.3197C52.1472 24.3197 52.1835 24.358 52.1835 24.4048C52.1835 24.4515 52.2197 24.4898 52.264 24.4898C52.3083 24.4898 52.3445 24.5281 52.3445 24.5748C52.3445 24.6216 52.3808 24.6599 52.4251 24.6599C52.4694 24.6599 52.5056 24.6981 52.5056 24.7449C52.5056 24.8196 52.9351 24.8299 56.0489 24.8299C59.1628 24.8299 59.5923 24.8196 59.5923 24.7449C59.5923 24.6981 59.556 24.6599 59.5117 24.6599C59.4674 24.6599 59.4312 24.6216 59.4312 24.5748C59.4312 24.5281 59.395 24.4898 59.3507 24.4898C59.3064 24.4898 59.2701 24.4515 59.2701 24.4048C59.2701 24.358 59.2339 24.3197 59.1896 24.3197C59.1453 24.3197 59.1091 24.2815 59.1091 24.2347C59.1091 24.1879 59.0728 24.1497 59.0285 24.1497C58.9843 24.1497 58.948 24.1114 58.948 24.0646C58.948 24.0179 58.9118 23.9796 58.8675 23.9796C58.8232 23.9796 58.787 23.9413 58.787 23.8946C58.787 23.8379 58.7333 23.8095 58.6259 23.8095C58.5185 23.8095 58.4648 23.7812 58.4648 23.7245C58.4648 23.6777 58.4286 23.6395 58.3843 23.6395C58.34 23.6395 58.3038 23.6012 58.3038 23.5544C58.3038 23.5077 58.2675 23.4694 58.2232 23.4694C58.179 23.4694 58.1427 23.4311 58.1427 23.3844C58.1427 23.3376 58.1065 23.2993 58.0622 23.2993C58.0179 23.2993 57.9817 23.2611 57.9817 23.2143C57.9817 23.1675 57.9454 23.1293 57.9011 23.1293C57.8568 23.1293 57.8206 23.091 57.8206 23.0442C57.8206 22.9875 57.7669 22.9592 57.6595 22.9592C57.5522 22.9592 57.4985 22.9308 57.4985 22.8741C57.4985 22.8274 57.4622 22.7891 57.4179 22.7891C57.3736 22.7891 57.3374 22.7508 57.3374 22.7041C57.3374 22.6573 57.3012 22.619 57.2569 22.619C57.2126 22.619 57.1764 22.5808 57.1764 22.534C57.1764 22.4872 57.1401 22.449 57.0958 22.449C57.0515 22.449 57.0153 22.4107 57.0153 22.3639C57.0153 22.3172 56.9791 22.2789 56.9348 22.2789C56.8905 22.2789 56.8542 22.2406 56.8542 22.1939C56.8542 22.1471 56.818 22.1088 56.7737 22.1088C56.7294 22.1088 56.6932 22.0706 56.6932 22.0238C56.6932 21.9671 56.6395 21.9388 56.5321 21.9388C56.4247 21.9388 56.3711 21.9104 56.3711 21.8537C56.3711 21.807 56.3348 21.7687 56.2905 21.7687C56.2462 21.7687 56.21 21.7304 56.21 21.6837C56.21 21.6369 56.1738 21.5986 56.1295 21.5986C56.0852 21.5986 56.0489 21.5604 56.0489 21.5136C56.0489 21.4668 56.0127 21.4286 55.9684 21.4286C55.9241 21.4286 55.8879 21.3903 55.8879 21.3435C55.8879 21.2968 55.8516 21.2585 55.8073 21.2585C55.7631 21.2585 55.7268 21.2202 55.7268 21.1735C55.7268 21.1168 55.6731 21.0884 55.5658 21.0884C55.4584 21.0884 55.4047 21.0601 55.4047 21.0034C55.4047 20.9566 55.3685 20.9184 55.3242 20.9184C55.2799 20.9184 55.2436 20.8801 55.2436 20.8333C55.2436 20.7866 55.2074 20.7483 55.1631 20.7483C55.1188 20.7483 55.0826 20.71 55.0826 20.6633C55.0826 20.6165 55.0463 20.5782 55.002 20.5782C54.9577 20.5782 54.9215 20.54 54.9215 20.4932C54.9215 20.4464 54.8853 20.4082 54.841 20.4082C54.7967 20.4082 54.7604 20.3699 54.7604 20.3231C54.7604 20.2764 54.7242 20.2381 54.6799 20.2381C54.6356 20.2381 54.5994 20.1998 54.5994 20.1531C54.5994 20.0964 54.5457 20.068 54.4383 20.068C54.331 20.068 54.2773 20.0397 54.2773 19.983C54.2773 19.9362 54.241 19.898 54.1967 19.898C54.1524 19.898 54.1162 19.8597 54.1162 19.8129C54.1162 19.7662 54.08 19.7279 54.0357 19.7279C53.9914 19.7279 53.9552 19.6896 53.9552 19.6429C53.9552 19.5961 53.9189 19.5578 53.8746 19.5578C53.8303 19.5578 53.7941 19.5196 53.7941 19.4728C53.7941 19.426 53.7579 19.3878 53.7136 19.3878C53.6693 19.3878 53.633 19.3495 53.633 19.3027C53.633 19.246 53.5793 19.2177 53.472 19.2177C53.3646 19.2177 53.3109 19.1893 53.3109 19.1327C53.3109 19.0859 53.2747 19.0476 53.2304 19.0476C53.1861 19.0476 53.1498 19.0094 53.1498 18.9626C53.1498 18.9158 53.1136 18.8776 53.0693 18.8776C53.025 18.8776 52.9888 18.8393 52.9888 18.7925C52.9888 18.7457 52.9525 18.7075 52.9083 18.7075C52.864 18.7075 52.8277 18.6692 52.8277 18.6224C52.8277 18.5757 52.7915 18.5374 52.7472 18.5374C52.7029 18.5374 52.6667 18.4991 52.6667 18.4524C52.6667 18.4056 52.6304 18.3673 52.5861 18.3673C52.5418 18.3673 52.5056 18.3291 52.5056 18.2823C52.5056 18.2256 52.4519 18.1973 52.3445 18.1973C52.2372 18.1973 52.1835 18.1689 52.1835 18.1122C52.1835 18.0655 52.1472 18.0272 52.103 18.0272C52.0587 18.0272 52.0224 17.9889 52.0224 17.9422C52.0224 17.8954 51.9862 17.8571 51.9419 17.8571C51.8976 17.8571 51.8614 17.8189 51.8614 17.7721C51.8614 17.7253 51.8251 17.6871 51.7808 17.6871C51.7365 17.6871 51.7003 17.6488 51.7003 17.602C51.7003 17.5553 51.6641 17.517 51.6198 17.517C51.5755 17.517 51.5392 17.4787 51.5392 17.432C51.5392 17.3753 51.4856 17.3469 51.3782 17.3469C51.2708 17.3469 51.2171 17.3186 51.2171 17.2619C51.2171 17.2151 51.1809 17.1769 51.1366 17.1769C51.0923 17.1769 51.0561 17.1386 51.0561 17.0918C51.0561 17.0451 51.0198 17.0068 50.9755 17.0068C50.9312 17.0068 50.895 16.9685 50.895 16.9218C50.895 16.875 50.8588 16.8367 50.8145 16.8367C50.7702 16.8367 50.7339 16.7985 50.7339 16.7517C50.7339 16.7049 50.6977 16.6667 50.6534 16.6667C50.6091 16.6667 50.5729 16.6284 50.5729 16.5816C50.5729 16.5349 50.5366 16.4966 50.4924 16.4966C50.4481 16.4966 50.4118 16.4583 50.4118 16.4116C50.4118 16.3549 50.3581 16.3265 50.2508 16.3265C50.1434 16.3265 50.0897 16.2982 50.0897 16.2415C50.0897 16.1669 50.4745 16.1565 53.2304 16.1565C55.9863 16.1565 56.3711 16.146 56.3711 16.0714C56.3711 16.0084 56.4337 15.9864 56.6126 15.9864C56.7916 15.9864 56.8542 15.9643 56.8542 15.9014C56.8542 15.8447 56.9079 15.8163 57.0153 15.8163C57.1227 15.8163 57.1764 15.788 57.1764 15.7313C57.1764 15.6845 57.2126 15.6463 57.2569 15.6463C57.3012 15.6463 57.3374 15.608 57.3374 15.5612C57.3374 15.5145 57.3736 15.4762 57.4179 15.4762C57.4716 15.4762 57.4985 15.4195 57.4985 15.3061C57.4985 15.1927 57.5253 15.1361 57.579 15.1361C57.6327 15.1361 57.6595 15.0794 57.6595 14.966C57.6595 14.8526 57.6864 14.7959 57.7401 14.7959C57.7997 14.7959 57.8206 14.7298 57.8206 14.5408C57.8206 14.3519 57.8415 14.2857 57.9011 14.2857C57.9722 14.2857 57.9817 13.5676 57.9817 8.16327C57.9817 2.7589 57.9722 2.04082 57.9011 2.04082C57.8385 2.04082 57.8206 1.96525 57.8206 1.70068C57.8206 1.43611 57.8027 1.36054 57.7401 1.36054C57.6864 1.36054 57.6595 1.30385 57.6595 1.19048C57.6595 1.0771 57.6327 1.02041 57.579 1.02041C57.5347 1.02041 57.4985 0.982143 57.4985 0.935374C57.4985 0.888605 57.4622 0.85034 57.4179 0.85034C57.3736 0.85034 57.3374 0.812075 57.3374 0.765306C57.3374 0.718537 57.3012 0.680272 57.2569 0.680272C57.2126 0.680272 57.1764 0.642007 57.1764 0.595238C57.1764 0.548469 57.1401 0.510204 57.0958 0.510204C57.0515 0.510204 57.0153 0.471939 57.0153 0.42517C57.0153 0.368481 56.9616 0.340136 56.8542 0.340136C56.7469 0.340136 56.6932 0.311791 56.6932 0.255102C56.6932 0.188946 56.6216 0.170068 56.3711 0.170068C56.1205 0.170068 56.0489 0.15119 56.0489 0.085034C56.0489 0.00975057 54.7873 0 45.0163 0C35.2453 0 33.9837 0.00975057 33.9837 0.085034ZM77.7921 0.085034C77.7921 0.131803 77.7558 0.170068 77.7115 0.170068C77.6578 0.170068 77.631 0.226757 77.631 0.340136C77.631 0.453515 77.6041 0.510204 77.5505 0.510204C77.4968 0.510204 77.4699 0.566893 77.4699 0.680272C77.4699 0.793651 77.4431 0.85034 77.3894 0.85034C77.3357 0.85034 77.3089 0.907029 77.3089 1.02041C77.3089 1.13379 77.282 1.19048 77.2283 1.19048C77.1747 1.19048 77.1478 1.24717 77.1478 1.36054C77.1478 1.47392 77.121 1.53061 77.0673 1.53061C77.0136 1.53061 76.9867 1.5873 76.9867 1.70068C76.9867 1.81406 76.9599 1.87075 76.9062 1.87075C76.8525 1.87075 76.8257 1.92744 76.8257 2.04082C76.8257 2.15419 76.7988 2.21088 76.7452 2.21088C76.6915 2.21088 76.6646 2.26757 76.6646 2.38095C76.6646 2.49433 76.6378 2.55102 76.5841 2.55102C76.5304 2.55102 76.5036 2.60771 76.5036 2.72109C76.5036 2.83447 76.4767 2.89116 76.423 2.89116C76.3694 2.89116 76.3425 2.94785 76.3425 3.06122C76.3425 3.1746 76.3157 3.23129 76.262 3.23129C76.2083 3.23129 76.1814 3.28798 76.1814 3.40136C76.1814 3.51474 76.1546 3.57143 76.1009 3.57143C76.0472 3.57143 76.0204 3.62812 76.0204 3.7415C76.0204 3.85488 75.9935 3.91156 75.9399 3.91156C75.8862 3.91156 75.8593 3.96825 75.8593 4.08163C75.8593 4.19501 75.8325 4.2517 75.7788 4.2517C75.7251 4.2517 75.6983 4.30839 75.6983 4.42177C75.6983 4.53515 75.6714 4.59184 75.6177 4.59184C75.5581 4.59184 75.5372 4.65799 75.5372 4.84694C75.5372 5.03588 75.5163 5.10204 75.4567 5.10204C75.403 5.10204 75.3762 5.15873 75.3762 5.27211C75.3762 5.38549 75.3493 5.44218 75.2956 5.44218C75.2419 5.44218 75.2151 5.49887 75.2151 5.61224C75.2151 5.72562 75.1882 5.78231 75.1346 5.78231C75.0809 5.78231 75.054 5.839 75.054 5.95238C75.054 6.06576 75.0272 6.12245 74.9735 6.12245C74.9198 6.12245 74.893 6.17914 74.893 6.29252C74.893 6.4059 74.8661 6.46258 74.8124 6.46258C74.7588 6.46258 74.7319 6.51927 74.7319 6.63265C74.7319 6.74603 74.7051 6.80272 74.6514 6.80272C74.5977 6.80272 74.5708 6.85941 74.5708 6.97279C74.5708 7.08617 74.544 7.14286 74.4903 7.14286C74.4366 7.14286 74.4098 7.19955 74.4098 7.31292C74.4098 7.4263 74.3829 7.48299 74.3293 7.48299C74.2756 7.48299 74.2487 7.53968 74.2487 7.65306C74.2487 7.76644 74.2219 7.82313 74.1682 7.82313C74.1145 7.82313 74.0877 7.87982 74.0877 7.9932C74.0877 8.10658 74.0608 8.16327 74.0071 8.16327C73.9535 8.16327 73.9266 8.21995 73.9266 8.33333C73.9266 8.44671 73.8998 8.5034 73.8461 8.5034C73.7924 8.5034 73.7655 8.56009 73.7655 8.67347C73.7655 8.78685 73.7387 8.84354 73.685 8.84354C73.6313 8.84354 73.6045 8.90023 73.6045 9.01361C73.6045 9.12698 73.5776 9.18367 73.524 9.18367C73.4703 9.18367 73.4434 9.24036 73.4434 9.35374C73.4434 9.46712 73.4166 9.52381 73.3629 9.52381C73.3033 9.52381 73.2824 9.58997 73.2824 9.77891C73.2824 9.96786 73.2615 10.034 73.2018 10.034C73.1481 10.034 73.1213 10.0907 73.1213 10.2041C73.1213 10.3175 73.0945 10.3741 73.0408 10.3741C72.9871 10.3741 72.9602 10.4308 72.9602 10.5442C72.9602 10.6576 72.9334 10.7143 72.8797 10.7143C72.826 10.7143 72.7992 10.771 72.7992 10.8844C72.7992 10.9977 72.7723 11.0544 72.7187 11.0544C72.665 11.0544 72.6381 11.1111 72.6381 11.2245C72.6381 11.3379 72.6113 11.3946 72.5576 11.3946C72.5039 11.3946 72.4771 11.4512 72.4771 11.5646C72.4771 11.678 72.4502 11.7347 72.3965 11.7347C72.3428 11.7347 72.316 11.7914 72.316 11.9048C72.316 12.0181 72.2892 12.0748 72.2355 12.0748C72.1818 12.0748 72.1549 12.1315 72.1549 12.2449C72.1549 12.3583 72.1281 12.415 72.0744 12.415C72.0207 12.415 71.9939 12.4717 71.9939 12.585C71.9939 12.6984 71.967 12.7551 71.9134 12.7551C71.8597 12.7551 71.8328 12.8118 71.8328 12.9252C71.8328 13.0385 71.806 13.0952 71.7523 13.0952C71.6986 13.0952 71.6718 13.1519 71.6718 13.2653C71.6718 13.3787 71.6449 13.4354 71.5912 13.4354C71.5376 13.4354 71.5107 13.4921 71.5107 13.6054C71.5107 13.7188 71.4839 13.7755 71.4302 13.7755C71.3765 13.7755 71.3496 13.8322 71.3496 13.9456C71.3496 14.059 71.3228 14.1156 71.2691 14.1156C71.2154 14.1156 71.1886 14.1723 71.1886 14.2857C71.1886 14.3991 71.1617 14.4558 71.1081 14.4558C71.0544 14.4558 71.0275 14.5125 71.0275 14.6258C71.0275 14.7392 71.0007 14.7959 70.947 14.7959C70.8874 14.7959 70.8665 14.8621 70.8665 15.051C70.8665 15.24 70.8456 15.3061 70.7859 15.3061C70.7322 15.3061 70.7054 15.3628 70.7054 15.4762C70.7054 15.5896 70.6786 15.6463 70.6249 15.6463C70.5712 15.6463 70.5443 15.7029 70.5443 15.8163C70.5443 15.9297 70.5175 15.9864 70.4638 15.9864C70.4101 15.9864 70.3833 16.0431 70.3833 16.1565C70.3833 16.2698 70.3564 16.3265 70.3028 16.3265C70.2491 16.3265 70.2222 16.3832 70.2222 16.4966C70.2222 16.61 70.1954 16.6667 70.1417 16.6667C70.088 16.6667 70.0612 16.7234 70.0612 16.8367C70.0612 16.9501 70.0343 17.0068 69.9806 17.0068C69.9269 17.0068 69.9001 17.0635 69.9001 17.1769C69.9001 17.2902 69.8733 17.3469 69.8196 17.3469C69.7659 17.3469 69.739 17.4036 69.739 17.517C69.739 17.6304 69.7122 17.6871 69.6585 17.6871C69.6048 17.6871 69.578 17.7438 69.578 17.8571C69.578 17.9705 69.5511 18.0272 69.4975 18.0272C69.4438 18.0272 69.4169 18.0839 69.4169 18.1973C69.4169 18.3107 69.3901 18.3673 69.3364 18.3673C69.2827 18.3673 69.2559 18.424 69.2559 18.5374C69.2559 18.6508 69.229 18.7075 69.1753 18.7075C69.1216 18.7075 69.0948 18.7642 69.0948 18.8776C69.0948 18.9909 69.068 19.0476 69.0143 19.0476C68.9606 19.0476 68.9337 19.1043 68.9337 19.2177C68.9337 19.3311 68.9069 19.3878 68.8532 19.3878C68.7995 19.3878 68.7727 19.4444 68.7727 19.5578C68.7727 19.6712 68.7458 19.7279 68.6922 19.7279C68.6385 19.7279 68.6116 19.7846 68.6116 19.898C68.6116 20.0113 68.5848 20.068 68.5311 20.068C68.4714 20.068 68.4506 20.1342 68.4506 20.3231C68.4506 20.5121 68.4297 20.5782 68.37 20.5782C68.3163 20.5782 68.2895 20.6349 68.2895 20.7483C68.2895 20.8617 68.2627 20.9184 68.209 20.9184C68.1553 20.9184 68.1284 20.9751 68.1284 21.0884C68.1284 21.2018 68.1016 21.2585 68.0479 21.2585C67.9942 21.2585 67.9674 21.3152 67.9674 21.4286C67.9674 21.542 67.9405 21.5986 67.8868 21.5986C67.8332 21.5986 67.8063 21.6553 67.8063 21.7687C67.8063 21.8821 67.7795 21.9388 67.7258 21.9388C67.6721 21.9388 67.6453 21.9955 67.6453 22.1088C67.6453 22.2222 67.6184 22.2789 67.5647 22.2789C67.511 22.2789 67.4842 22.3356 67.4842 22.449C67.4842 22.5624 67.4574 22.619 67.4037 22.619C67.35 22.619 67.3231 22.6757 67.3231 22.7891C67.3231 22.9025 67.2963 22.9592 67.2426 22.9592C67.1889 22.9592 67.1621 23.0159 67.1621 23.1293C67.1621 23.2426 67.1352 23.2993 67.0816 23.2993C67.0279 23.2993 67.001 23.356 67.001 23.4694C67.001 23.5828 66.9742 23.6395 66.9205 23.6395C66.8668 23.6395 66.84 23.6961 66.84 23.8095C66.84 23.9229 66.8131 23.9796 66.7594 23.9796C66.7057 23.9796 66.6789 24.0363 66.6789 24.1497C66.6789 24.263 66.6521 24.3197 66.5984 24.3197C66.5447 24.3197 66.5178 24.3764 66.5178 24.4898C66.5178 24.6032 66.491 24.6599 66.4373 24.6599C66.3836 24.6599 66.3568 24.7166 66.3568 24.8299V25H69.2559C71.797 25 72.1549 24.9895 72.1549 24.915C72.1549 24.8682 72.1912 24.8299 72.2355 24.8299C72.2892 24.8299 72.316 24.7732 72.316 24.6599C72.316 24.5465 72.3428 24.4898 72.3965 24.4898C72.4502 24.4898 72.4771 24.4331 72.4771 24.3197C72.4771 24.2063 72.5039 24.1497 72.5576 24.1497C72.6113 24.1497 72.6381 24.093 72.6381 23.9796C72.6381 23.8662 72.665 23.8095 72.7187 23.8095C72.7723 23.8095 72.7992 23.7528 72.7992 23.6395C72.7992 23.5261 72.826 23.4694 72.8797 23.4694C72.9334 23.4694 72.9602 23.4127 72.9602 23.2993C72.9602 23.1859 72.9871 23.1293 73.0408 23.1293C73.0945 23.1293 73.1213 23.0726 73.1213 22.9592C73.1213 22.8458 73.1481 22.7891 73.2018 22.7891C73.2555 22.7891 73.2824 22.7324 73.2824 22.619C73.2824 22.5057 73.3092 22.449 73.3629 22.449C73.4225 22.449 73.4434 22.3828 73.4434 22.1939C73.4434 22.0049 73.4643 21.9388 73.524 21.9388C73.5776 21.9388 73.6045 21.8821 73.6045 21.7687C73.6045 21.6553 73.6313 21.5986 73.685 21.5986C73.7387 21.5986 73.7655 21.542 73.7655 21.4286C73.7655 21.3152 73.7924 21.2585 73.8461 21.2585C73.8998 21.2585 73.9266 21.2018 73.9266 21.0884C73.9266 20.9751 73.9535 20.9184 74.0071 20.9184C74.0608 20.9184 74.0877 20.8617 74.0877 20.7483C74.0877 20.6349 74.1145 20.5782 74.1682 20.5782C74.2219 20.5782 74.2487 20.5215 74.2487 20.4082C74.2487 20.2948 74.2756 20.2381 74.3293 20.2381C74.3829 20.2381 74.4098 20.1814 74.4098 20.068C74.4098 19.9546 74.4366 19.898 74.4903 19.898C74.544 19.898 74.5708 19.8413 74.5708 19.7279C74.5708 19.6145 74.5977 19.5578 74.6514 19.5578C74.711 19.5578 74.7319 19.4917 74.7319 19.3027C74.7319 19.1138 74.7528 19.0476 74.8124 19.0476C74.8661 19.0476 74.893 18.9909 74.893 18.8776C74.893 18.7642 74.9198 18.7075 74.9735 18.7075C75.0272 18.7075 75.054 18.6508 75.054 18.5374C75.054 18.424 75.0809 18.3673 75.1346 18.3673C75.1882 18.3673 75.2151 18.3107 75.2151 18.1973C75.2151 18.0839 75.2419 18.0272 75.2956 18.0272C75.3493 18.0272 75.3762 17.9705 75.3762 17.8571C75.3762 17.7438 75.403 17.6871 75.4567 17.6871C75.5104 17.6871 75.5372 17.6304 75.5372 17.517C75.5372 17.4036 75.564 17.3469 75.6177 17.3469C75.6714 17.3469 75.6983 17.2902 75.6983 17.1769C75.6983 17.0635 75.7251 17.0068 75.7788 17.0068C75.8325 17.0068 75.8593 16.9501 75.8593 16.8367C75.8593 16.7234 75.8862 16.6667 75.9399 16.6667C75.9935 16.6667 76.0204 16.61 76.0204 16.4966C76.0204 16.3832 76.0472 16.3265 76.1009 16.3265C76.1606 16.3265 76.1814 16.2604 76.1814 16.0714C76.1814 15.8825 76.2023 15.8163 76.262 15.8163C76.3157 15.8163 76.3425 15.7596 76.3425 15.6463C76.3425 15.5329 76.3694 15.4762 76.423 15.4762C76.4767 15.4762 76.5036 15.4195 76.5036 15.3061C76.5036 15.1927 76.5304 15.1361 76.5841 15.1361C76.6378 15.1361 76.6646 15.0794 76.6646 14.966C76.6646 14.8526 76.6915 14.7959 76.7452 14.7959C76.7988 14.7959 76.8257 14.7392 76.8257 14.6258C76.8257 14.5125 76.8525 14.4558 76.9062 14.4558C76.9599 14.4558 76.9867 14.3991 76.9867 14.2857C76.9867 14.1723 77.0136 14.1156 77.0673 14.1156C77.121 14.1156 77.1478 14.059 77.1478 13.9456C77.1478 13.8322 77.1747 13.7755 77.2283 13.7755C77.282 13.7755 77.3089 13.7188 77.3089 13.6054C77.3089 13.4921 77.3357 13.4354 77.3894 13.4354C77.449 13.4354 77.4699 13.3692 77.4699 13.1803C77.4699 12.9913 77.4908 12.9252 77.5505 12.9252C77.6041 12.9252 77.631 12.8685 77.631 12.7551C77.631 12.6417 77.6578 12.585 77.7115 12.585C77.7652 12.585 77.7921 12.5283 77.7921 12.415C77.7921 12.3016 77.8189 12.2449 77.8726 12.2449C77.9263 12.2449 77.9531 12.1882 77.9531 12.0748C77.9531 11.9615 77.98 11.9048 78.0336 11.9048C78.0873 11.9048 78.1142 11.8481 78.1142 11.7347C78.1142 11.6213 78.141 11.5646 78.1947 11.5646C78.2484 11.5646 78.2752 11.5079 78.2752 11.3946C78.2752 11.2812 78.3021 11.2245 78.3558 11.2245C78.4094 11.2245 78.4363 11.1678 78.4363 11.0544C78.4363 10.941 78.4631 10.8844 78.5168 10.8844C78.5705 10.8844 78.5974 10.8277 78.5974 10.7143C78.5974 10.6009 78.6242 10.5442 78.6779 10.5442C78.7375 10.5442 78.7584 10.4781 78.7584 10.2891C78.7584 10.1002 78.7793 10.034 78.8389 10.034C78.8926 10.034 78.9195 9.97732 78.9195 9.86395C78.9195 9.75057 78.9463 9.69388 79 9.69388C79.0537 9.69388 79.0805 9.63719 79.0805 9.52381C79.0805 9.41043 79.1074 9.35374 79.1611 9.35374C79.2148 9.35374 79.2416 9.29705 79.2416 9.18367C79.2416 9.07029 79.2684 9.01361 79.3221 9.01361C79.3758 9.01361 79.4026 8.95692 79.4026 8.84354C79.4026 8.73016 79.4295 8.67347 79.4832 8.67347C79.5369 8.67347 79.5637 8.61678 79.5637 8.5034C79.5637 8.39002 79.5906 8.33333 79.6442 8.33333C79.6979 8.33333 79.7248 8.27664 79.7248 8.16327C79.7248 8.04989 79.7516 7.9932 79.8053 7.9932C79.859 7.9932 79.8858 7.93651 79.8858 7.82313C79.8858 7.70975 79.9127 7.65306 79.9664 7.65306C80.026 7.65306 80.0469 7.5869 80.0469 7.39796C80.0469 7.20901 80.0678 7.14286 80.1274 7.14286C80.1811 7.14286 80.208 7.08617 80.208 6.97279C80.208 6.85941 80.2348 6.80272 80.2885 6.80272C80.3422 6.80272 80.369 6.74603 80.369 6.63265C80.369 6.51927 80.3959 6.46258 80.4495 6.46258C80.4938 6.46258 80.5301 6.50085 80.5301 6.54762C80.5301 6.59439 80.5663 6.63265 80.6106 6.63265C80.6643 6.63265 80.6911 6.68934 80.6911 6.80272C80.6911 6.9161 80.718 6.97279 80.7717 6.97279C80.8253 6.97279 80.8522 7.02948 80.8522 7.14286C80.8522 7.25624 80.879 7.31292 80.9327 7.31292C80.9924 7.31292 81.0133 7.37908 81.0133 7.56803C81.0133 7.75697 81.0341 7.82313 81.0938 7.82313C81.1475 7.82313 81.1743 7.87982 81.1743 7.9932C81.1743 8.10658 81.2012 8.16327 81.2548 8.16327C81.3085 8.16327 81.3354 8.21995 81.3354 8.33333C81.3354 8.44671 81.3622 8.5034 81.4159 8.5034C81.4696 8.5034 81.4964 8.56009 81.4964 8.67347C81.4964 8.78685 81.5233 8.84354 81.577 8.84354C81.6307 8.84354 81.6575 8.90023 81.6575 9.01361C81.6575 9.12698 81.6843 9.18367 81.738 9.18367C81.7917 9.18367 81.8186 9.24036 81.8186 9.35374C81.8186 9.46712 81.8454 9.52381 81.8991 9.52381C81.9587 9.52381 81.9796 9.58997 81.9796 9.77891C81.9796 9.96786 82.0005 10.034 82.0601 10.034C82.1138 10.034 82.1407 10.0907 82.1407 10.2041C82.1407 10.3175 82.1675 10.3741 82.2212 10.3741C82.2749 10.3741 82.3017 10.4308 82.3017 10.5442C82.3017 10.6576 82.3286 10.7143 82.3823 10.7143C82.436 10.7143 82.4628 10.771 82.4628 10.8844C82.4628 10.9977 82.4896 11.0544 82.5433 11.0544C82.597 11.0544 82.6239 11.1111 82.6239 11.2245C82.6239 11.3379 82.6507 11.3946 82.7044 11.3946C82.7581 11.3946 82.7849 11.4512 82.7849 11.5646C82.7849 11.678 82.8118 11.7347 82.8654 11.7347C82.9191 11.7347 82.946 11.7914 82.946 11.9048C82.946 12.0181 82.9728 12.0748 83.0265 12.0748C83.0862 12.0748 83.107 12.141 83.107 12.3299C83.107 12.5189 83.1279 12.585 83.1876 12.585C83.2412 12.585 83.2681 12.6417 83.2681 12.7551C83.2681 12.8685 83.2949 12.9252 83.3486 12.9252C83.4023 12.9252 83.4292 12.9819 83.4292 13.0952C83.4292 13.2086 83.456 13.2653 83.5097 13.2653C83.5634 13.2653 83.5902 13.322 83.5902 13.4354C83.5902 13.5488 83.6171 13.6054 83.6707 13.6054C83.7244 13.6054 83.7513 13.6621 83.7513 13.7755C83.7513 13.8889 83.7781 13.9456 83.8318 13.9456C83.8855 13.9456 83.9123 14.0023 83.9123 14.1156C83.9123 14.229 83.9392 14.2857 83.9929 14.2857C84.0525 14.2857 84.0734 14.3519 84.0734 14.5408C84.0734 14.7298 84.0943 14.7959 84.1539 14.7959C84.2076 14.7959 84.2345 14.8526 84.2345 14.966C84.2345 15.0794 84.2613 15.1361 84.315 15.1361C84.3687 15.1361 84.3955 15.1927 84.3955 15.3061C84.3955 15.4195 84.4224 15.4762 84.476 15.4762C84.5297 15.4762 84.5566 15.5329 84.5566 15.6463C84.5566 15.7596 84.5834 15.8163 84.6371 15.8163C84.6908 15.8163 84.7176 15.873 84.7176 15.9864C84.7176 16.0998 84.7445 16.1565 84.7982 16.1565C84.8519 16.1565 84.8787 16.2132 84.8787 16.3265C84.8787 16.4399 84.9055 16.4966 84.9592 16.4966C85.0129 16.4966 85.0398 16.5533 85.0398 16.6667C85.0398 16.78 85.0666 16.8367 85.1203 16.8367C85.1799 16.8367 85.2008 16.9029 85.2008 17.0918C85.2008 17.2808 85.2217 17.3469 85.2813 17.3469C85.335 17.3469 85.3619 17.4036 85.3619 17.517C85.3619 17.6304 85.3887 17.6871 85.4424 17.6871C85.4961 17.6871 85.5229 17.7438 85.5229 17.8571C85.5229 17.9705 85.5498 18.0272 85.6035 18.0272C85.6572 18.0272 85.684 18.0839 85.684 18.1973C85.684 18.3107 85.7108 18.3673 85.7645 18.3673C85.8182 18.3673 85.8451 18.424 85.8451 18.5374C85.8451 18.6508 85.8719 18.7075 85.9256 18.7075C85.9793 18.7075 86.0061 18.7642 86.0061 18.8776C86.0061 18.9909 86.033 19.0476 86.0866 19.0476C86.1403 19.0476 86.1672 19.1043 86.1672 19.2177C86.1672 19.3311 86.194 19.3878 86.2477 19.3878C86.3074 19.3878 86.3282 19.4539 86.3282 19.6429C86.3282 19.8318 86.3491 19.898 86.4088 19.898C86.4625 19.898 86.4893 19.9546 86.4893 20.068C86.4893 20.1814 86.5161 20.2381 86.5698 20.2381C86.6235 20.2381 86.6504 20.2948 86.6504 20.4082C86.6504 20.5215 86.6772 20.5782 86.7309 20.5782C86.7846 20.5782 86.8114 20.6349 86.8114 20.7483C86.8114 20.8617 86.8383 20.9184 86.892 20.9184C86.9456 20.9184 86.9725 20.9751 86.9725 21.0884C86.9725 21.2018 86.9993 21.2585 87.053 21.2585C87.1067 21.2585 87.1335 21.3152 87.1335 21.4286C87.1335 21.542 87.1604 21.5986 87.2141 21.5986C87.2737 21.5986 87.2946 21.6648 87.2946 21.8537C87.2946 22.0427 87.3155 22.1088 87.3751 22.1088C87.4288 22.1088 87.4557 22.1655 87.4557 22.2789C87.4557 22.3923 87.4825 22.449 87.5362 22.449C87.5899 22.449 87.6167 22.5057 87.6167 22.619C87.6167 22.7324 87.6436 22.7891 87.6973 22.7891C87.7509 22.7891 87.7778 22.8458 87.7778 22.9592C87.7778 23.0726 87.8046 23.1293 87.8583 23.1293C87.912 23.1293 87.9388 23.1859 87.9388 23.2993C87.9388 23.4127 87.9657 23.4694 88.0194 23.4694C88.0731 23.4694 88.0999 23.5261 88.0999 23.6395C88.0999 23.7528 88.1267 23.8095 88.1804 23.8095C88.2341 23.8095 88.261 23.8662 88.261 23.9796C88.261 24.093 88.2878 24.1497 88.3415 24.1497C88.4011 24.1497 88.422 24.2158 88.422 24.4048C88.422 24.5937 88.4429 24.6599 88.5025 24.6599C88.5562 24.6599 88.5831 24.7166 88.5831 24.8299V25H91.5627C94.1755 25 94.5423 24.9895 94.5423 24.915C94.5423 24.8682 94.5061 24.8299 94.4618 24.8299C94.4081 24.8299 94.3812 24.7732 94.3812 24.6599C94.3812 24.5465 94.3544 24.4898 94.3007 24.4898C94.2411 24.4898 94.2202 24.4236 94.2202 24.2347C94.2202 24.0457 94.1993 23.9796 94.1397 23.9796C94.086 23.9796 94.0591 23.9229 94.0591 23.8095C94.0591 23.6961 94.0323 23.6395 93.9786 23.6395C93.9249 23.6395 93.8981 23.5828 93.8981 23.4694C93.8981 23.356 93.8712 23.2993 93.8175 23.2993C93.7638 23.2993 93.737 23.2426 93.737 23.1293C93.737 23.0159 93.7102 22.9592 93.6565 22.9592C93.6028 22.9592 93.5759 22.9025 93.5759 22.7891C93.5759 22.6757 93.5491 22.619 93.4954 22.619C93.4417 22.619 93.4149 22.5624 93.4149 22.449C93.4149 22.3356 93.388 22.2789 93.3344 22.2789C93.2807 22.2789 93.2538 22.2222 93.2538 22.1088C93.2538 21.9955 93.227 21.9388 93.1733 21.9388C93.1196 21.9388 93.0928 21.8821 93.0928 21.7687C93.0928 21.6553 93.0659 21.5986 93.0122 21.5986C92.9585 21.5986 92.9317 21.542 92.9317 21.4286C92.9317 21.3152 92.9049 21.2585 92.8512 21.2585C92.7975 21.2585 92.7706 21.2018 92.7706 21.0884C92.7706 20.9751 92.7438 20.9184 92.6901 20.9184C92.6364 20.9184 92.6096 20.8617 92.6096 20.7483C92.6096 20.6349 92.5827 20.5782 92.5291 20.5782C92.4694 20.5782 92.4485 20.5121 92.4485 20.3231C92.4485 20.1342 92.4276 20.068 92.368 20.068C92.3143 20.068 92.2875 20.0113 92.2875 19.898C92.2875 19.7846 92.2606 19.7279 92.2069 19.7279C92.1532 19.7279 92.1264 19.6712 92.1264 19.5578C92.1264 19.4444 92.0996 19.3878 92.0459 19.3878C91.9922 19.3878 91.9653 19.3311 91.9653 19.2177C91.9653 19.1043 91.9385 19.0476 91.8848 19.0476C91.8311 19.0476 91.8043 18.9909 91.8043 18.8776C91.8043 18.7642 91.7774 18.7075 91.7238 18.7075C91.6701 18.7075 91.6432 18.6508 91.6432 18.5374C91.6432 18.424 91.6164 18.3673 91.5627 18.3673C91.509 18.3673 91.4822 18.3107 91.4822 18.1973C91.4822 18.0839 91.4553 18.0272 91.4016 18.0272C91.3479 18.0272 91.3211 17.9705 91.3211 17.8571C91.3211 17.7438 91.2943 17.6871 91.2406 17.6871C91.1869 17.6871 91.16 17.6304 91.16 17.517C91.16 17.4036 91.1332 17.3469 91.0795 17.3469C91.0258 17.3469 90.999 17.2902 90.999 17.1769C90.999 17.0635 90.9721 17.0068 90.9184 17.0068C90.8648 17.0068 90.8379 16.9501 90.8379 16.8367C90.8379 16.7234 90.8111 16.6667 90.7574 16.6667C90.7037 16.6667 90.6769 16.61 90.6769 16.4966C90.6769 16.3832 90.65 16.3265 90.5963 16.3265C90.5367 16.3265 90.5158 16.2604 90.5158 16.0714C90.5158 15.8825 90.4949 15.8163 90.4353 15.8163C90.3816 15.8163 90.3547 15.7596 90.3547 15.6463C90.3547 15.5329 90.3279 15.4762 90.2742 15.4762C90.2205 15.4762 90.1937 15.4195 90.1937 15.3061C90.1937 15.1927 90.1668 15.1361 90.1132 15.1361C90.0595 15.1361 90.0326 15.0794 90.0326 14.966C90.0326 14.8526 90.0058 14.7959 89.9521 14.7959C89.8984 14.7959 89.8716 14.7392 89.8716 14.6258C89.8716 14.5125 89.8447 14.4558 89.791 14.4558C89.7373 14.4558 89.7105 14.3991 89.7105 14.2857C89.7105 14.1723 89.6837 14.1156 89.63 14.1156C89.5763 14.1156 89.5494 14.059 89.5494 13.9456C89.5494 13.8322 89.5226 13.7755 89.4689 13.7755C89.4152 13.7755 89.3884 13.7188 89.3884 13.6054C89.3884 13.4921 89.3615 13.4354 89.3079 13.4354C89.2542 13.4354 89.2273 13.3787 89.2273 13.2653C89.2273 13.1519 89.2005 13.0952 89.1468 13.0952C89.0931 13.0952 89.0663 13.0385 89.0663 12.9252C89.0663 12.8118 89.0394 12.7551 88.9857 12.7551C88.932 12.7551 88.9052 12.6984 88.9052 12.585C88.9052 12.4717 88.8784 12.415 88.8247 12.415C88.765 12.415 88.7441 12.3488 88.7441 12.1599C88.7441 11.9709 88.7233 11.9048 88.6636 11.9048C88.6099 11.9048 88.5831 11.8481 88.5831 11.7347C88.5831 11.6213 88.5562 11.5646 88.5025 11.5646C88.4489 11.5646 88.422 11.5079 88.422 11.3946C88.422 11.2812 88.3952 11.2245 88.3415 11.2245C88.2878 11.2245 88.261 11.1678 88.261 11.0544C88.261 10.941 88.2341 10.8844 88.1804 10.8844C88.1267 10.8844 88.0999 10.8277 88.0999 10.7143C88.0999 10.6009 88.0731 10.5442 88.0194 10.5442C87.9657 10.5442 87.9388 10.4875 87.9388 10.3741C87.9388 10.2608 87.912 10.2041 87.8583 10.2041C87.8046 10.2041 87.7778 10.1474 87.7778 10.034C87.7778 9.92063 87.7509 9.86395 87.6973 9.86395C87.6436 9.86395 87.6167 9.80726 87.6167 9.69388C87.6167 9.5805 87.5899 9.52381 87.5362 9.52381C87.4825 9.52381 87.4557 9.46712 87.4557 9.35374C87.4557 9.24036 87.4288 9.18367 87.3751 9.18367C87.3214 9.18367 87.2946 9.12698 87.2946 9.01361C87.2946 8.90023 87.2678 8.84354 87.2141 8.84354C87.1604 8.84354 87.1335 8.78685 87.1335 8.67347C87.1335 8.56009 87.1067 8.5034 87.053 8.5034C86.9993 8.5034 86.9725 8.44671 86.9725 8.33333C86.9725 8.21995 86.9456 8.16327 86.892 8.16327C86.8323 8.16327 86.8114 8.09711 86.8114 7.90816C86.8114 7.71922 86.7905 7.65306 86.7309 7.65306C86.6772 7.65306 86.6504 7.59637 86.6504 7.48299C86.6504 7.36961 86.6235 7.31292 86.5698 7.31292C86.5161 7.31292 86.4893 7.25624 86.4893 7.14286C86.4893 7.02948 86.4625 6.97279 86.4088 6.97279C86.3551 6.97279 86.3282 6.9161 86.3282 6.80272C86.3282 6.68934 86.3014 6.63265 86.2477 6.63265C86.194 6.63265 86.1672 6.57596 86.1672 6.46258C86.1672 6.34921 86.1403 6.29252 86.0866 6.29252C86.033 6.29252 86.0061 6.23583 86.0061 6.12245C86.0061 6.00907 85.9793 5.95238 85.9256 5.95238C85.8719 5.95238 85.8451 5.89569 85.8451 5.78231C85.8451 5.66893 85.8182 5.61224 85.7645 5.61224C85.7108 5.61224 85.684 5.55556 85.684 5.44218C85.684 5.3288 85.6572 5.27211 85.6035 5.27211C85.5498 5.27211 85.5229 5.21542 85.5229 5.10204C85.5229 4.98866 85.4961 4.93197 85.4424 4.93197C85.3887 4.93197 85.3619 4.87528 85.3619 4.7619C85.3619 4.64853 85.335 4.59184 85.2813 4.59184C85.2277 4.59184 85.2008 4.53515 85.2008 4.42177C85.2008 4.30839 85.174 4.2517 85.1203 4.2517C85.0606 4.2517 85.0398 4.18554 85.0398 3.9966C85.0398 3.80765 85.0189 3.7415 84.9592 3.7415C84.9055 3.7415 84.8787 3.68481 84.8787 3.57143C84.8787 3.45805 84.8519 3.40136 84.7982 3.40136C84.7445 3.40136 84.7176 3.34467 84.7176 3.23129C84.7176 3.11791 84.6908 3.06122 84.6371 3.06122C84.5834 3.06122 84.5566 3.00453 84.5566 2.89116C84.5566 2.77778 84.5297 2.72109 84.476 2.72109C84.4224 2.72109 84.3955 2.6644 84.3955 2.55102C84.3955 2.43764 84.3687 2.38095 84.315 2.38095C84.2613 2.38095 84.2345 2.32426 84.2345 2.21088C84.2345 2.09751 84.2076 2.04082 84.1539 2.04082C84.1002 2.04082 84.0734 1.98413 84.0734 1.87075C84.0734 1.75737 84.0466 1.70068 83.9929 1.70068C83.9392 1.70068 83.9123 1.64399 83.9123 1.53061C83.9123 1.41723 83.8855 1.36054 83.8318 1.36054C83.7781 1.36054 83.7513 1.30385 83.7513 1.19048C83.7513 1.0771 83.7244 1.02041 83.6707 1.02041C83.6171 1.02041 83.5902 0.963719 83.5902 0.85034C83.5902 0.736961 83.5634 0.680272 83.5097 0.680272C83.456 0.680272 83.4292 0.623583 83.4292 0.510204C83.4292 0.396825 83.4023 0.340136 83.3486 0.340136C83.2949 0.340136 83.2681 0.283447 83.2681 0.170068V0H80.5301C78.132 0 77.7921 0.0105442 77.7921 0.085034ZM96.314 0.255102C96.314 0.444048 96.3349 0.510204 96.3945 0.510204C96.4541 0.510204 96.475 0.576361 96.475 0.765306C96.475 0.954252 96.4959 1.02041 96.5556 1.02041C96.6092 1.02041 96.6361 1.0771 96.6361 1.19048C96.6361 1.30385 96.6629 1.36054 96.7166 1.36054C96.7703 1.36054 96.7971 1.41723 96.7971 1.53061C96.7971 1.64399 96.824 1.70068 96.8777 1.70068C96.9314 1.70068 96.9582 1.75737 96.9582 1.87075C96.9582 1.98413 96.9851 2.04082 97.0387 2.04082C97.0924 2.04082 97.1193 2.09751 97.1193 2.21088C97.1193 2.32426 97.1461 2.38095 97.1998 2.38095C97.2535 2.38095 97.2803 2.43764 97.2803 2.55102C97.2803 2.6644 97.3072 2.72109 97.3609 2.72109C97.4145 2.72109 97.4414 2.77778 97.4414 2.89116C97.4414 3.00453 97.4682 3.06122 97.5219 3.06122C97.5756 3.06122 97.6024 3.11791 97.6024 3.23129C97.6024 3.34467 97.6293 3.40136 97.683 3.40136C97.7367 3.40136 97.7635 3.45805 97.7635 3.57143C97.7635 3.68481 97.7904 3.7415 97.844 3.7415C97.8977 3.7415 97.9246 3.79819 97.9246 3.91156C97.9246 4.02494 97.9514 4.08163 98.0051 4.08163C98.0588 4.08163 98.0856 4.13832 98.0856 4.2517C98.0856 4.36508 98.1125 4.42177 98.1662 4.42177C98.2198 4.42177 98.2467 4.47846 98.2467 4.59184C98.2467 4.70522 98.2735 4.7619 98.3272 4.7619C98.3869 4.7619 98.4078 4.82806 98.4078 5.01701C98.4078 5.20595 98.4286 5.27211 98.4883 5.27211C98.542 5.27211 98.5688 5.3288 98.5688 5.44218C98.5688 5.55556 98.5956 5.61224 98.6493 5.61224C98.703 5.61224 98.7299 5.66893 98.7299 5.78231C98.7299 5.89569 98.7567 5.95238 98.8104 5.95238C98.8641 5.95238 98.8909 6.00907 98.8909 6.12245C98.8909 6.23583 98.9178 6.29252 98.9715 6.29252C99.0251 6.29252 99.052 6.34921 99.052 6.46258C99.052 6.57596 99.0788 6.63265 99.1325 6.63265C99.1862 6.63265 99.2131 6.68934 99.2131 6.80272C99.2131 6.9161 99.2399 6.97279 99.2936 6.97279C99.3473 6.97279 99.3741 7.02948 99.3741 7.14286C99.3741 7.25624 99.401 7.31292 99.4546 7.31292C99.5083 7.31292 99.5352 7.36961 99.5352 7.48299C99.5352 7.59637 99.562 7.65306 99.6157 7.65306C99.6694 7.65306 99.6962 7.70975 99.6962 7.82313C99.6962 7.93651 99.7231 7.9932 99.7768 7.9932C99.8304 7.9932 99.8573 8.04989 99.8573 8.16327C99.8573 8.27664 99.8841 8.33333 99.9378 8.33333C99.9915 8.33333 100.018 8.39002 100.018 8.5034C100.018 8.61678 100.045 8.67347 100.099 8.67347C100.159 8.67347 100.179 8.73963 100.179 8.92857C100.179 9.11752 100.2 9.18367 100.26 9.18367C100.314 9.18367 100.34 9.24036 100.34 9.35374C100.34 9.46712 100.367 9.52381 100.421 9.52381C100.475 9.52381 100.502 9.5805 100.502 9.69388C100.502 9.80726 100.528 9.86395 100.582 9.86395C100.636 9.86395 100.663 9.92063 100.663 10.034C100.663 10.1474 100.689 10.2041 100.743 10.2041C100.797 10.2041 100.824 10.2608 100.824 10.3741C100.824 10.4875 100.85 10.5442 100.904 10.5442C100.958 10.5442 100.985 10.6009 100.985 10.7143C100.985 10.8277 101.012 10.8844 101.065 10.8844C101.119 10.8844 101.146 10.941 101.146 11.0544C101.146 11.1678 101.173 11.2245 101.226 11.2245C101.28 11.2245 101.307 11.2812 101.307 11.3946C101.307 11.5079 101.334 11.5646 101.387 11.5646C101.441 11.5646 101.468 11.6213 101.468 11.7347C101.468 11.8481 101.495 11.9048 101.548 11.9048C101.602 11.9048 101.629 11.9615 101.629 12.0748C101.629 12.1882 101.656 12.2449 101.709 12.2449C101.763 12.2449 101.79 12.3016 101.79 12.415C101.79 12.5283 101.817 12.585 101.871 12.585C101.924 12.585 101.951 12.6417 101.951 12.7551C101.951 12.8685 101.978 12.9252 102.032 12.9252C102.091 12.9252 102.112 12.9913 102.112 13.1803C102.112 13.3692 102.133 13.4354 102.193 13.4354C102.246 13.4354 102.273 13.4921 102.273 13.6054C102.273 13.7188 102.3 13.7755 102.354 13.7755C102.407 13.7755 102.434 13.8322 102.434 13.9456C102.434 14.059 102.461 14.1156 102.515 14.1156C102.568 14.1156 102.595 14.1723 102.595 14.2857C102.595 14.3991 102.622 14.4558 102.676 14.4558C102.73 14.4558 102.756 14.5125 102.756 14.6258C102.756 14.7392 102.783 14.7959 102.837 14.7959C102.891 14.7959 102.917 14.8526 102.917 14.966C102.917 15.0794 102.944 15.1361 102.998 15.1361C103.052 15.1361 103.078 15.1927 103.078 15.3061C103.078 15.4195 103.105 15.4762 103.159 15.4762C103.213 15.4762 103.24 15.5329 103.24 15.6463C103.24 15.7596 103.266 15.8163 103.32 15.8163C103.374 15.8163 103.401 15.873 103.401 15.9864C103.401 16.0998 103.427 16.1565 103.481 16.1565C103.535 16.1565 103.562 16.2132 103.562 16.3265C103.562 16.4399 103.589 16.4966 103.642 16.4966C103.696 16.4966 103.723 16.5533 103.723 16.6667C103.723 16.78 103.75 16.8367 103.803 16.8367C103.863 16.8367 103.884 16.9029 103.884 17.0918C103.884 17.2808 103.905 17.3469 103.964 17.3469C104.018 17.3469 104.045 17.4036 104.045 17.517C104.045 17.6304 104.072 17.6871 104.125 17.6871C104.179 17.6871 104.206 17.7438 104.206 17.8571C104.206 17.9705 104.233 18.0272 104.286 18.0272C104.34 18.0272 104.367 18.0839 104.367 18.1973C104.367 18.3107 104.394 18.3673 104.448 18.3673C104.501 18.3673 104.528 18.424 104.528 18.5374C104.528 18.6508 104.555 18.7075 104.609 18.7075C104.662 18.7075 104.689 18.7642 104.689 18.8776C104.689 18.9909 104.716 19.0476 104.77 19.0476C104.823 19.0476 104.85 19.1043 104.85 19.2177C104.85 19.3311 104.877 19.3878 104.931 19.3878C104.984 19.3878 105.011 19.4444 105.011 19.5578C105.011 19.6712 105.038 19.7279 105.092 19.7279C105.145 19.7279 105.172 19.7846 105.172 19.898C105.172 20.0113 105.199 20.068 105.253 20.068C105.306 20.068 105.333 20.1247 105.333 20.2381C105.333 20.3515 105.36 20.4082 105.414 20.4082C105.468 20.4082 105.494 20.4649 105.494 20.5782C105.494 20.6916 105.521 20.7483 105.575 20.7483C105.629 20.7483 105.655 20.805 105.655 20.9184C105.655 21.0317 105.682 21.0884 105.736 21.0884C105.796 21.0884 105.817 21.1546 105.817 21.3435C105.817 21.5325 105.837 21.5986 105.897 21.5986C105.951 21.5986 105.978 21.6553 105.978 21.7687C105.978 21.8821 106.004 21.9388 106.058 21.9388C106.112 21.9388 106.139 21.9955 106.139 22.1088C106.139 22.2222 106.165 22.2789 106.219 22.2789C106.273 22.2789 106.3 22.3356 106.3 22.449C106.3 22.5624 106.327 22.619 106.38 22.619C106.434 22.619 106.461 22.6757 106.461 22.7891C106.461 22.9025 106.488 22.9592 106.541 22.9592C106.595 22.9592 106.622 23.0159 106.622 23.1293C106.622 23.2426 106.649 23.2993 106.702 23.2993C106.756 23.2993 106.783 23.356 106.783 23.4694C106.783 23.5828 106.81 23.6395 106.863 23.6395C106.917 23.6395 106.944 23.6961 106.944 23.8095C106.944 23.9229 106.971 23.9796 107.024 23.9796C107.078 23.9796 107.105 24.0363 107.105 24.1497C107.105 24.263 107.132 24.3197 107.186 24.3197C107.239 24.3197 107.266 24.3764 107.266 24.4898C107.266 24.6032 107.293 24.6599 107.347 24.6599C107.4 24.6599 107.427 24.7166 107.427 24.8299V25H110.246C112.715 25 113.064 24.9895 113.064 24.915C113.064 24.8682 113.1 24.8299 113.145 24.8299C113.198 24.8299 113.225 24.7732 113.225 24.6599C113.225 24.5465 113.252 24.4898 113.306 24.4898C113.359 24.4898 113.386 24.4331 113.386 24.3197C113.386 24.2063 113.413 24.1497 113.467 24.1497C113.521 24.1497 113.547 24.093 113.547 23.9796C113.547 23.8662 113.574 23.8095 113.628 23.8095C113.682 23.8095 113.708 23.7528 113.708 23.6395C113.708 23.5261 113.735 23.4694 113.789 23.4694C113.843 23.4694 113.87 23.4127 113.87 23.2993C113.87 23.1859 113.896 23.1293 113.95 23.1293C114.004 23.1293 114.031 23.0726 114.031 22.9592C114.031 22.8458 114.057 22.7891 114.111 22.7891C114.171 22.7891 114.192 22.723 114.192 22.534C114.192 22.3451 114.213 22.2789 114.272 22.2789C114.326 22.2789 114.353 22.2222 114.353 22.1088C114.353 21.9955 114.38 21.9388 114.433 21.9388C114.487 21.9388 114.514 21.8821 114.514 21.7687C114.514 21.6553 114.541 21.5986 114.594 21.5986C114.648 21.5986 114.675 21.542 114.675 21.4286C114.675 21.3152 114.702 21.2585 114.755 21.2585C114.809 21.2585 114.836 21.2018 114.836 21.0884C114.836 20.9751 114.863 20.9184 114.916 20.9184C114.97 20.9184 114.997 20.8617 114.997 20.7483C114.997 20.6349 115.024 20.5782 115.077 20.5782C115.131 20.5782 115.158 20.5215 115.158 20.4082C115.158 20.2948 115.185 20.2381 115.239 20.2381C115.292 20.2381 115.319 20.1814 115.319 20.068C115.319 19.9546 115.346 19.898 115.4 19.898C115.453 19.898 115.48 19.8413 115.48 19.7279C115.48 19.6145 115.507 19.5578 115.561 19.5578C115.614 19.5578 115.641 19.5011 115.641 19.3878C115.641 19.2744 115.668 19.2177 115.722 19.2177C115.775 19.2177 115.802 19.161 115.802 19.0476C115.802 18.9342 115.829 18.8776 115.883 18.8776C115.936 18.8776 115.963 18.8209 115.963 18.7075C115.963 18.5941 115.99 18.5374 116.044 18.5374C116.098 18.5374 116.124 18.4807 116.124 18.3673C116.124 18.254 116.151 18.1973 116.205 18.1973C116.259 18.1973 116.285 18.1406 116.285 18.0272C116.285 17.9138 116.312 17.8571 116.366 17.8571C116.42 17.8571 116.446 17.8005 116.446 17.6871C116.446 17.5737 116.473 17.517 116.527 17.517C116.587 17.517 116.608 17.4508 116.608 17.2619C116.608 17.073 116.628 17.0068 116.688 17.0068C116.742 17.0068 116.769 16.9501 116.769 16.8367C116.769 16.7234 116.795 16.6667 116.849 16.6667C116.903 16.6667 116.93 16.61 116.93 16.4966C116.93 16.3832 116.957 16.3265 117.01 16.3265C117.064 16.3265 117.091 16.2698 117.091 16.1565C117.091 16.0431 117.118 15.9864 117.171 15.9864C117.225 15.9864 117.252 15.9297 117.252 15.8163C117.252 15.7029 117.279 15.6463 117.332 15.6463C117.386 15.6463 117.413 15.5896 117.413 15.4762C117.413 15.3628 117.44 15.3061 117.493 15.3061C117.547 15.3061 117.574 15.2494 117.574 15.1361C117.574 15.0227 117.601 14.966 117.654 14.966C117.708 14.966 117.735 14.9093 117.735 14.7959C117.735 14.6825 117.762 14.6258 117.815 14.6258C117.869 14.6258 117.896 14.5692 117.896 14.4558C117.896 14.3424 117.923 14.2857 117.977 14.2857C118.03 14.2857 118.057 14.229 118.057 14.1156C118.057 14.0023 118.084 13.9456 118.138 13.9456C118.191 13.9456 118.218 13.8889 118.218 13.7755C118.218 13.6621 118.245 13.6054 118.299 13.6054C118.352 13.6054 118.379 13.5488 118.379 13.4354C118.379 13.322 118.406 13.2653 118.46 13.2653C118.513 13.2653 118.54 13.2086 118.54 13.0952C118.54 12.9819 118.567 12.9252 118.621 12.9252C118.674 12.9252 118.701 12.8685 118.701 12.7551C118.701 12.6417 118.728 12.585 118.782 12.585C118.836 12.585 118.862 12.5283 118.862 12.415C118.862 12.3016 118.889 12.2449 118.943 12.2449C119.003 12.2449 119.023 12.1787 119.023 11.9898C119.023 11.8008 119.044 11.7347 119.104 11.7347C119.158 11.7347 119.185 11.678 119.185 11.5646C119.185 11.4512 119.211 11.3946 119.265 11.3946C119.319 11.3946 119.346 11.3379 119.346 11.2245C119.346 11.1111 119.372 11.0544 119.426 11.0544C119.48 11.0544 119.507 10.9977 119.507 10.8844C119.507 10.771 119.533 10.7143 119.587 10.7143C119.641 10.7143 119.668 10.6576 119.668 10.5442C119.668 10.4308 119.695 10.3741 119.748 10.3741C119.802 10.3741 119.829 10.3175 119.829 10.2041C119.829 10.0907 119.856 10.034 119.909 10.034C119.963 10.034 119.99 9.97732 119.99 9.86395C119.99 9.75057 120.017 9.69388 120.07 9.69388C120.124 9.69388 120.151 9.63719 120.151 9.52381C120.151 9.41043 120.178 9.35374 120.231 9.35374C120.285 9.35374 120.312 9.29705 120.312 9.18367C120.312 9.07029 120.339 9.01361 120.392 9.01361C120.446 9.01361 120.473 8.95692 120.473 8.84354C120.473 8.73016 120.5 8.67347 120.554 8.67347C120.607 8.67347 120.634 8.61678 120.634 8.5034C120.634 8.39002 120.661 8.33333 120.715 8.33333C120.768 8.33333 120.795 8.27664 120.795 8.16327C120.795 8.04989 120.822 7.9932 120.876 7.9932C120.929 7.9932 120.956 7.93651 120.956 7.82313C120.956 7.70975 120.983 7.65306 121.037 7.65306C121.09 7.65306 121.117 7.59637 121.117 7.48299C121.117 7.36961 121.144 7.31292 121.198 7.31292C121.257 7.31292 121.278 7.24677 121.278 7.05782C121.278 6.86888 121.299 6.80272 121.359 6.80272C121.413 6.80272 121.439 6.74603 121.439 6.63265C121.439 6.51927 121.466 6.46258 121.52 6.46258C121.574 6.46258 121.6 6.4059 121.6 6.29252C121.6 6.17914 121.627 6.12245 121.681 6.12245C121.735 6.12245 121.761 6.06576 121.761 5.95238C121.761 5.839 121.788 5.78231 121.842 5.78231C121.896 5.78231 121.923 5.72562 121.923 5.61224C121.923 5.49887 121.949 5.44218 122.003 5.44218C122.057 5.44218 122.084 5.38549 122.084 5.27211C122.084 5.15873 122.11 5.10204 122.164 5.10204C122.218 5.10204 122.245 5.04535 122.245 4.93197C122.245 4.81859 122.271 4.7619 122.325 4.7619C122.379 4.7619 122.406 4.70522 122.406 4.59184C122.406 4.47846 122.433 4.42177 122.486 4.42177C122.54 4.42177 122.567 4.36508 122.567 4.2517C122.567 4.13832 122.594 4.08163 122.647 4.08163C122.701 4.08163 122.728 4.02494 122.728 3.91156C122.728 3.79819 122.755 3.7415 122.808 3.7415C122.862 3.7415 122.889 3.68481 122.889 3.57143C122.889 3.45805 122.916 3.40136 122.969 3.40136C123.023 3.40136 123.05 3.34467 123.05 3.23129C123.05 3.11791 123.077 3.06122 123.13 3.06122C123.184 3.06122 123.211 3.00453 123.211 2.89116C123.211 2.77778 123.238 2.72109 123.292 2.72109C123.345 2.72109 123.372 2.6644 123.372 2.55102C123.372 2.43764 123.399 2.38095 123.453 2.38095C123.506 2.38095 123.533 2.32426 123.533 2.21088C123.533 2.09751 123.56 2.04082 123.614 2.04082C123.673 2.04082 123.694 1.97466 123.694 1.78571C123.694 1.59677 123.715 1.53061 123.775 1.53061C123.828 1.53061 123.855 1.47392 123.855 1.36054C123.855 1.24717 123.882 1.19048 123.936 1.19048C123.989 1.19048 124.016 1.13379 124.016 1.02041C124.016 0.907029 124.043 0.85034 124.097 0.85034C124.151 0.85034 124.177 0.793651 124.177 0.680272C124.177 0.566893 124.204 0.510204 124.258 0.510204C124.318 0.510204 124.338 0.444048 124.338 0.255102V0H121.52C119.05 0 118.701 0.0105442 118.701 0.085034C118.701 0.131803 118.665 0.170068 118.621 0.170068C118.577 0.170068 118.54 0.208333 118.54 0.255102C118.54 0.301871 118.504 0.340136 118.46 0.340136C118.406 0.340136 118.379 0.396825 118.379 0.510204C118.379 0.623583 118.352 0.680272 118.299 0.680272C118.245 0.680272 118.218 0.736961 118.218 0.85034C118.218 0.963719 118.191 1.02041 118.138 1.02041C118.078 1.02041 118.057 1.08656 118.057 1.27551C118.057 1.46446 118.036 1.53061 117.977 1.53061C117.923 1.53061 117.896 1.5873 117.896 1.70068C117.896 1.81406 117.869 1.87075 117.815 1.87075C117.762 1.87075 117.735 1.92744 117.735 2.04082C117.735 2.15419 117.708 2.21088 117.654 2.21088C117.601 2.21088 117.574 2.26757 117.574 2.38095C117.574 2.49433 117.547 2.55102 117.493 2.55102C117.44 2.55102 117.413 2.60771 117.413 2.72109C117.413 2.83447 117.386 2.89116 117.332 2.89116C117.279 2.89116 117.252 2.94785 117.252 3.06122C117.252 3.1746 117.225 3.23129 117.171 3.23129C117.118 3.23129 117.091 3.28798 117.091 3.40136C117.091 3.51474 117.064 3.57143 117.01 3.57143C116.957 3.57143 116.93 3.62812 116.93 3.7415C116.93 3.85488 116.903 3.91156 116.849 3.91156C116.789 3.91156 116.769 3.97772 116.769 4.16667C116.769 4.35561 116.748 4.42177 116.688 4.42177C116.634 4.42177 116.608 4.47846 116.608 4.59184C116.608 4.70522 116.581 4.7619 116.527 4.7619C116.473 4.7619 116.446 4.81859 116.446 4.93197C116.446 5.04535 116.42 5.10204 116.366 5.10204C116.312 5.10204 116.285 5.15873 116.285 5.27211C116.285 5.38549 116.259 5.44218 116.205 5.44218C116.151 5.44218 116.124 5.49887 116.124 5.61224C116.124 5.72562 116.098 5.78231 116.044 5.78231C115.99 5.78231 115.963 5.839 115.963 5.95238C115.963 6.06576 115.936 6.12245 115.883 6.12245C115.829 6.12245 115.802 6.17914 115.802 6.29252C115.802 6.4059 115.775 6.46258 115.722 6.46258C115.668 6.46258 115.641 6.51927 115.641 6.63265C115.641 6.74603 115.614 6.80272 115.561 6.80272C115.501 6.80272 115.48 6.86888 115.48 7.05782C115.48 7.24677 115.459 7.31292 115.4 7.31292C115.346 7.31292 115.319 7.36961 115.319 7.48299C115.319 7.59637 115.292 7.65306 115.239 7.65306C115.185 7.65306 115.158 7.70975 115.158 7.82313C115.158 7.93651 115.131 7.9932 115.077 7.9932C115.024 7.9932 114.997 8.04989 114.997 8.16327C114.997 8.27664 114.97 8.33333 114.916 8.33333C114.863 8.33333 114.836 8.39002 114.836 8.5034C114.836 8.61678 114.809 8.67347 114.755 8.67347C114.702 8.67347 114.675 8.73016 114.675 8.84354C114.675 8.95692 114.648 9.01361 114.594 9.01361C114.541 9.01361 114.514 9.07029 114.514 9.18367C114.514 9.29705 114.487 9.35374 114.433 9.35374C114.38 9.35374 114.353 9.41043 114.353 9.52381C114.353 9.63719 114.326 9.69388 114.272 9.69388C114.213 9.69388 114.192 9.76003 114.192 9.94898C114.192 10.1379 114.171 10.2041 114.111 10.2041C114.057 10.2041 114.031 10.2608 114.031 10.3741C114.031 10.4875 114.004 10.5442 113.95 10.5442C113.896 10.5442 113.87 10.6009 113.87 10.7143C113.87 10.8277 113.843 10.8844 113.789 10.8844C113.735 10.8844 113.708 10.941 113.708 11.0544C113.708 11.1678 113.682 11.2245 113.628 11.2245C113.574 11.2245 113.547 11.2812 113.547 11.3946C113.547 11.5079 113.521 11.5646 113.467 11.5646C113.413 11.5646 113.386 11.6213 113.386 11.7347C113.386 11.8481 113.359 11.9048 113.306 11.9048C113.252 11.9048 113.225 11.9615 113.225 12.0748C113.225 12.1882 113.198 12.2449 113.145 12.2449C113.091 12.2449 113.064 12.3016 113.064 12.415C113.064 12.5283 113.037 12.585 112.984 12.585C112.924 12.585 112.903 12.6512 112.903 12.8401C112.903 13.0291 112.882 13.0952 112.823 13.0952C112.769 13.0952 112.742 13.1519 112.742 13.2653C112.742 13.3787 112.715 13.4354 112.662 13.4354C112.608 13.4354 112.581 13.4921 112.581 13.6054C112.581 13.7188 112.554 13.7755 112.501 13.7755C112.447 13.7755 112.42 13.8322 112.42 13.9456C112.42 14.059 112.393 14.1156 112.339 14.1156C112.286 14.1156 112.259 14.1723 112.259 14.2857C112.259 14.3991 112.232 14.4558 112.178 14.4558C112.125 14.4558 112.098 14.5125 112.098 14.6258C112.098 14.7392 112.071 14.7959 112.017 14.7959C111.964 14.7959 111.937 14.8526 111.937 14.966C111.937 15.0794 111.91 15.1361 111.856 15.1361C111.803 15.1361 111.776 15.1927 111.776 15.3061C111.776 15.4195 111.749 15.4762 111.695 15.4762C111.636 15.4762 111.615 15.5423 111.615 15.7313C111.615 15.9202 111.594 15.9864 111.534 15.9864C111.48 15.9864 111.454 16.0431 111.454 16.1565C111.454 16.2698 111.427 16.3265 111.373 16.3265C111.319 16.3265 111.293 16.3832 111.293 16.4966C111.293 16.61 111.266 16.6667 111.212 16.6667C111.158 16.6667 111.132 16.7234 111.132 16.8367C111.132 16.9501 111.105 17.0068 111.051 17.0068C110.997 17.0068 110.97 17.0635 110.97 17.1769C110.97 17.2902 110.944 17.3469 110.89 17.3469C110.836 17.3469 110.809 17.4036 110.809 17.517C110.809 17.6304 110.783 17.6871 110.729 17.6871C110.675 17.6871 110.648 17.7438 110.648 17.8571C110.648 17.9705 110.621 18.0272 110.568 18.0272C110.514 18.0272 110.487 18.0839 110.487 18.1973C110.487 18.3107 110.46 18.3673 110.407 18.3673C110.353 18.3673 110.326 18.424 110.326 18.5374C110.326 18.6508 110.299 18.7075 110.246 18.7075C110.192 18.7075 110.165 18.6508 110.165 18.5374C110.165 18.424 110.138 18.3673 110.085 18.3673C110.031 18.3673 110.004 18.3107 110.004 18.1973C110.004 18.0839 109.977 18.0272 109.924 18.0272C109.864 18.0272 109.843 17.9611 109.843 17.7721C109.843 17.5832 109.822 17.517 109.762 17.517C109.709 17.517 109.682 17.4603 109.682 17.3469C109.682 17.2336 109.655 17.1769 109.601 17.1769C109.548 17.1769 109.521 17.1202 109.521 17.0068C109.521 16.8934 109.494 16.8367 109.44 16.8367C109.387 16.8367 109.36 16.78 109.36 16.6667C109.36 16.5533 109.333 16.4966 109.279 16.4966C109.226 16.4966 109.199 16.4399 109.199 16.3265C109.199 16.2132 109.172 16.1565 109.118 16.1565C109.065 16.1565 109.038 16.0998 109.038 15.9864C109.038 15.873 109.011 15.8163 108.957 15.8163C108.904 15.8163 108.877 15.7596 108.877 15.6463C108.877 15.5329 108.85 15.4762 108.796 15.4762C108.736 15.4762 108.716 15.41 108.716 15.2211C108.716 15.0321 108.695 14.966 108.635 14.966C108.581 14.966 108.555 14.9093 108.555 14.7959C108.555 14.6825 108.528 14.6258 108.474 14.6258C108.42 14.6258 108.393 14.5692 108.393 14.4558C108.393 14.3424 108.367 14.2857 108.313 14.2857C108.259 14.2857 108.232 14.229 108.232 14.1156C108.232 14.0023 108.206 13.9456 108.152 13.9456C108.098 13.9456 108.071 13.8889 108.071 13.7755C108.071 13.6621 108.045 13.6054 107.991 13.6054C107.937 13.6054 107.91 13.5488 107.91 13.4354C107.91 13.322 107.883 13.2653 107.83 13.2653C107.77 13.2653 107.749 13.1991 107.749 13.0102C107.749 12.8213 107.728 12.7551 107.669 12.7551C107.615 12.7551 107.588 12.6984 107.588 12.585C107.588 12.4717 107.561 12.415 107.508 12.415C107.454 12.415 107.427 12.3583 107.427 12.2449C107.427 12.1315 107.4 12.0748 107.347 12.0748C107.293 12.0748 107.266 12.0181 107.266 11.9048C107.266 11.7914 107.239 11.7347 107.186 11.7347C107.132 11.7347 107.105 11.678 107.105 11.5646C107.105 11.4512 107.078 11.3946 107.024 11.3946C106.971 11.3946 106.944 11.3379 106.944 11.2245C106.944 11.1111 106.917 11.0544 106.863 11.0544C106.81 11.0544 106.783 10.9977 106.783 10.8844C106.783 10.771 106.756 10.7143 106.702 10.7143C106.643 10.7143 106.622 10.6481 106.622 10.4592C106.622 10.2702 106.601 10.2041 106.541 10.2041C106.488 10.2041 106.461 10.1474 106.461 10.034C106.461 9.92063 106.434 9.86395 106.38 9.86395C106.327 9.86395 106.3 9.80726 106.3 9.69388C106.3 9.5805 106.273 9.52381 106.219 9.52381C106.165 9.52381 106.139 9.46712 106.139 9.35374C106.139 9.24036 106.112 9.18367 106.058 9.18367C106.004 9.18367 105.978 9.12698 105.978 9.01361C105.978 8.90023 105.951 8.84354 105.897 8.84354C105.843 8.84354 105.817 8.78685 105.817 8.67347C105.817 8.56009 105.79 8.5034 105.736 8.5034C105.682 8.5034 105.655 8.44671 105.655 8.33333C105.655 8.21995 105.629 8.16327 105.575 8.16327C105.515 8.16327 105.494 8.09711 105.494 7.90816C105.494 7.71922 105.474 7.65306 105.414 7.65306C105.36 7.65306 105.333 7.59637 105.333 7.48299C105.333 7.36961 105.306 7.31292 105.253 7.31292C105.199 7.31292 105.172 7.25624 105.172 7.14286C105.172 7.02948 105.145 6.97279 105.092 6.97279C105.038 6.97279 105.011 6.9161 105.011 6.80272C105.011 6.68934 104.984 6.63265 104.931 6.63265C104.877 6.63265 104.85 6.57596 104.85 6.46258C104.85 6.34921 104.823 6.29252 104.77 6.29252C104.716 6.29252 104.689 6.23583 104.689 6.12245C104.689 6.00907 104.662 5.95238 104.609 5.95238C104.549 5.95238 104.528 5.88622 104.528 5.69728C104.528 5.50833 104.507 5.44218 104.448 5.44218C104.394 5.44218 104.367 5.38549 104.367 5.27211C104.367 5.15873 104.34 5.10204 104.286 5.10204C104.233 5.10204 104.206 5.04535 104.206 4.93197C104.206 4.81859 104.179 4.7619 104.125 4.7619C104.072 4.7619 104.045 4.70522 104.045 4.59184C104.045 4.47846 104.018 4.42177 103.964 4.42177C103.911 4.42177 103.884 4.36508 103.884 4.2517C103.884 4.13832 103.857 4.08163 103.803 4.08163C103.75 4.08163 103.723 4.02494 103.723 3.91156C103.723 3.79819 103.696 3.7415 103.642 3.7415C103.589 3.7415 103.562 3.68481 103.562 3.57143C103.562 3.45805 103.535 3.40136 103.481 3.40136C103.422 3.40136 103.401 3.3352 103.401 3.14626C103.401 2.95731 103.38 2.89116 103.32 2.89116C103.266 2.89116 103.24 2.83447 103.24 2.72109C103.24 2.60771 103.213 2.55102 103.159 2.55102C103.105 2.55102 103.078 2.49433 103.078 2.38095C103.078 2.26757 103.052 2.21088 102.998 2.21088C102.944 2.21088 102.917 2.15419 102.917 2.04082C102.917 1.92744 102.891 1.87075 102.837 1.87075C102.783 1.87075 102.756 1.81406 102.756 1.70068C102.756 1.5873 102.73 1.53061 102.676 1.53061C102.622 1.53061 102.595 1.47392 102.595 1.36054C102.595 1.24717 102.568 1.19048 102.515 1.19048C102.461 1.19048 102.434 1.13379 102.434 1.02041C102.434 0.907029 102.407 0.85034 102.354 0.85034C102.294 0.85034 102.273 0.784184 102.273 0.595238C102.273 0.406292 102.252 0.340136 102.193 0.340136C102.148 0.340136 102.112 0.301871 102.112 0.255102C102.112 0.208333 102.076 0.170068 102.032 0.170068C101.987 0.170068 101.951 0.131803 101.951 0.085034C101.951 0.0105442 101.602 0 99.1325 0H96.314V0.255102ZM134.163 0.085034C134.163 0.15119 134.092 0.170068 133.841 0.170068C133.59 0.170068 133.519 0.188946 133.519 0.255102C133.519 0.311791 133.465 0.340136 133.358 0.340136C133.25 0.340136 133.197 0.368481 133.197 0.42517C133.197 0.471939 133.161 0.510204 133.116 0.510204C133.072 0.510204 133.036 0.548469 133.036 0.595238C133.036 0.642007 132.999 0.680272 132.955 0.680272C132.911 0.680272 132.875 0.718537 132.875 0.765306C132.875 0.812075 132.838 0.85034 132.794 0.85034C132.75 0.85034 132.714 0.888605 132.714 0.935374C132.714 0.982143 132.677 1.02041 132.633 1.02041C132.573 1.02041 132.553 1.08656 132.553 1.27551C132.553 1.46446 132.532 1.53061 132.472 1.53061C132.401 1.53061 132.391 2.78725 132.391 12.5C132.391 22.2128 132.401 23.4694 132.472 23.4694C132.526 23.4694 132.553 23.5261 132.553 23.6395C132.553 23.7528 132.579 23.8095 132.633 23.8095C132.687 23.8095 132.714 23.8662 132.714 23.9796C132.714 24.093 132.74 24.1497 132.794 24.1497C132.838 24.1497 132.875 24.1879 132.875 24.2347C132.875 24.2815 132.911 24.3197 132.955 24.3197C132.999 24.3197 133.036 24.358 133.036 24.4048C133.036 24.4515 133.072 24.4898 133.116 24.4898C133.161 24.4898 133.197 24.5281 133.197 24.5748C133.197 24.6315 133.25 24.6599 133.358 24.6599C133.465 24.6599 133.519 24.6882 133.519 24.7449C133.519 24.8202 134.843 24.8299 145.115 24.8299C155.387 24.8299 156.712 24.8202 156.712 24.7449C156.712 24.6882 156.765 24.6599 156.873 24.6599C156.98 24.6599 157.034 24.6315 157.034 24.5748C157.034 24.5181 157.087 24.4898 157.195 24.4898C157.302 24.4898 157.356 24.4615 157.356 24.4048C157.356 24.358 157.392 24.3197 157.436 24.3197C157.49 24.3197 157.517 24.263 157.517 24.1497C157.517 24.0363 157.544 23.9796 157.597 23.9796C157.642 23.9796 157.678 23.9413 157.678 23.8946C157.678 23.8478 157.714 23.8095 157.758 23.8095C157.818 23.8095 157.839 23.7434 157.839 23.5544C157.839 23.3655 157.86 23.2993 157.919 23.2993C157.991 23.2993 158 22.0616 158 12.5C158 2.93838 157.991 1.70068 157.919 1.70068C157.86 1.70068 157.839 1.63452 157.839 1.44558C157.839 1.25663 157.818 1.19048 157.758 1.19048C157.705 1.19048 157.678 1.13379 157.678 1.02041C157.678 0.907029 157.651 0.85034 157.597 0.85034C157.553 0.85034 157.517 0.812075 157.517 0.765306C157.517 0.718537 157.481 0.680272 157.436 0.680272C157.392 0.680272 157.356 0.642007 157.356 0.595238C157.356 0.548469 157.32 0.510204 157.275 0.510204C157.231 0.510204 157.195 0.471939 157.195 0.42517C157.195 0.368481 157.141 0.340136 157.034 0.340136C156.926 0.340136 156.873 0.311791 156.873 0.255102C156.873 0.187075 156.792 0.170068 156.47 0.170068C156.148 0.170068 156.067 0.153061 156.067 0.085034C156.067 0.00975057 154.815 0 145.115 0C135.416 0 134.163 0.00975057 134.163 0.085034ZM5.6371 12.5V20.4082H12.4016H19.1662V18.2823V16.1565H19.0051C18.8977 16.1565 18.844 16.1281 18.844 16.0714C18.844 16.0147 18.7903 15.9864 18.683 15.9864C18.5756 15.9864 18.5219 15.958 18.5219 15.9014C18.5219 15.8546 18.4857 15.8163 18.4414 15.8163C18.3971 15.8163 18.3609 15.7781 18.3609 15.7313C18.3609 15.6746 18.3072 15.6463 18.1998 15.6463C18.0924 15.6463 18.0387 15.6179 18.0387 15.5612C18.0387 15.5045 17.9851 15.4762 17.8777 15.4762C17.7703 15.4762 17.7166 15.4478 17.7166 15.3912C17.7166 15.3345 17.6629 15.3061 17.5556 15.3061C17.4482 15.3061 17.3945 15.2778 17.3945 15.2211C17.3945 15.1743 17.3583 15.1361 17.314 15.1361C17.2697 15.1361 17.2334 15.0978 17.2334 15.051C17.2334 14.9943 17.1797 14.966 17.0724 14.966C16.965 14.966 16.9113 14.9376 16.9113 14.881C16.9113 14.8243 16.8576 14.7959 16.7503 14.7959C16.6429 14.7959 16.5892 14.7676 16.5892 14.7109C16.5892 14.6542 16.5355 14.6258 16.4281 14.6258C16.3208 14.6258 16.2671 14.5975 16.2671 14.5408C16.2671 14.494 16.2308 14.4558 16.1865 14.4558C16.1423 14.4558 16.106 14.4175 16.106 14.3707C16.106 14.3141 16.0523 14.2857 15.945 14.2857C15.8376 14.2857 15.7839 14.2574 15.7839 14.2007C15.7839 14.1539 15.7477 14.1156 15.7034 14.1156C15.6334 14.1156 15.6228 13.8605 15.6228 12.1599C15.6228 10.4592 15.6334 10.2041 15.7034 10.2041C15.7477 10.2041 15.7839 10.1658 15.7839 10.119C15.7839 10.0624 15.8376 10.034 15.945 10.034C16.0523 10.034 16.106 10.0057 16.106 9.94898C16.106 9.90221 16.1423 9.86395 16.1865 9.86395C16.2308 9.86395 16.2671 9.82568 16.2671 9.77891C16.2671 9.72222 16.3208 9.69388 16.4281 9.69388C16.5355 9.69388 16.5892 9.66553 16.5892 9.60884C16.5892 9.56207 16.6254 9.52381 16.6697 9.52381C16.714 9.52381 16.7503 9.48554 16.7503 9.43878C16.7503 9.38209 16.8039 9.35374 16.9113 9.35374C17.0187 9.35374 17.0724 9.3254 17.0724 9.26871C17.0724 9.21202 17.1261 9.18367 17.2334 9.18367C17.3408 9.18367 17.3945 9.15533 17.3945 9.09864C17.3945 9.05187 17.4307 9.01361 17.475 9.01361C17.5193 9.01361 17.5556 8.97534 17.5556 8.92857C17.5556 8.87188 17.6092 8.84354 17.7166 8.84354C17.824 8.84354 17.8777 8.81519 17.8777 8.7585C17.8777 8.71173 17.9139 8.67347 17.9582 8.67347C18.0025 8.67347 18.0387 8.6352 18.0387 8.58844C18.0387 8.53175 18.0924 8.5034 18.1998 8.5034C18.3072 8.5034 18.3609 8.47506 18.3609 8.41837C18.3609 8.36168 18.4145 8.33333 18.5219 8.33333C18.6293 8.33333 18.683 8.30499 18.683 8.2483C18.683 8.20153 18.7192 8.16327 18.7635 8.16327C18.8078 8.16327 18.844 8.125 18.844 8.07823C18.844 8.03146 18.8803 7.9932 18.9246 7.9932C18.9944 7.9932 19.0051 7.76644 19.0051 6.29252V4.59184H12.3211H5.6371V12.5ZM138.029 12.5V20.2381H145.196H152.363V12.5V4.7619H145.196H138.029V12.5Z" fill="white"/>
</svg>
