<svg width="43" height="18" viewBox="0 0 43 18" fill="none" xmlns="http://www.w3.org/2000/svg">
<g id="Group 383">
<path id="Vector" d="M13.4555 7.78714C13.2588 6.59236 12.2918 5.61035 10.5874 5.61035C9.80069 5.61035 9.22707 5.77402 8.71901 6.11772L7.834 7.29614C7.47344 6.33049 6.57203 5.61035 5.1134 5.61035C4.31034 5.61035 3.75311 5.77402 3.22866 6.11772L2.57309 7.19794V5.83949H0V14.563H2.57309V10.0294C2.57309 8.24542 3.04837 7.37797 4.03172 7.37797C4.86757 7.37797 5.31007 7.86898 5.4248 8.73642C5.47396 9.17833 5.49035 9.65297 5.49035 10.0621V14.563H8.04705V10.0294C8.04705 8.24542 8.53873 7.37797 9.52207 7.37797C10.3415 7.37797 10.8004 7.86898 10.8988 8.73642C10.9479 9.17833 10.9643 9.65297 10.9643 10.0621V14.563H13.5374V9.40746C13.5374 8.70369 13.521 8.22905 13.4555 7.78714Z" fill="#5B5B5B"/>
<path id="Vector_2" d="M18.624 11.224L21.1643 14.5629H24.3601L20.5251 9.86556L24.311 5.83931H21.2626L17.952 9.66916V2.5332H15.3789V14.5629H17.952V11.9605L18.624 11.224ZM33.1288 10.0456C33.1288 7.7215 31.6866 5.61017 28.9004 5.61017C26.1306 5.61017 24.377 7.60693 24.377 10.2256C24.377 13.3026 26.2945 14.792 28.7365 14.792C30.8671 14.792 32.506 13.7281 32.9813 11.715H30.441C30.2935 12.5334 29.6871 13.0244 28.7857 13.0244C27.8187 13.0244 27.0976 12.5334 26.9501 10.8639H33.0796C33.1124 10.553 33.1288 10.2747 33.1288 10.0456ZM28.7857 7.3778C29.7362 7.3778 30.3099 8.0161 30.4574 9.24362H27.0157C27.2287 7.95064 27.8679 7.3778 28.7857 7.3778ZM42.855 5.83931H40.0524L38.0694 12.5825L36.0699 5.83931H33.2018L36.791 14.9557L36.6763 15.2339C36.3485 15.9868 35.8568 16.2486 35.1193 16.2486C34.8571 16.2486 34.6276 16.2486 34.3982 16.2159V17.9344C34.7588 17.9835 35.0702 17.9999 35.5127 17.9999C37.4138 17.9999 38.3644 17.2798 39.3641 14.7429L42.855 5.83931Z" fill="#5B5B5B"/>
<path id="Vector_3" d="M30.7831 2.18228C30.7011 1.68445 30.3323 1.30256 29.6836 1.30256C29.3627 1.30256 29.1032 1.36393 28.9188 1.51396L28.5978 1.97769C28.4613 1.58216 28.1062 1.30256 27.553 1.30256C27.2321 1.30256 26.9726 1.36393 26.7882 1.51396L26.556 1.92313V1.39803H25.9688V5.01238H26.556V3.22566C26.556 2.12772 26.8906 1.76629 27.3482 1.76629C27.7579 1.76629 28.0174 1.96405 28.072 2.37322C28.0925 2.55735 28.0993 2.75512 28.0993 3.07563V5.01238H28.6866V3.22566C28.6866 2.12772 29.0212 1.76629 29.4788 1.76629C29.8885 1.76629 30.148 1.96405 30.2026 2.37322C30.2231 2.55735 30.2299 2.75512 30.2299 3.07563V5.01238H30.8172V2.80285C30.8172 2.50961 30.8104 2.3664 30.7831 2.18228ZM34.508 3.10291C34.508 2.04589 33.9548 1.30256 32.9578 1.30256C31.9676 1.30256 31.237 2.04589 31.237 3.21884C31.237 4.4941 31.9403 5.10785 32.8827 5.10785C33.627 5.10785 34.3168 4.71914 34.4602 3.84624H33.8456C33.7636 4.36453 33.3812 4.65776 32.91 4.65776C32.3774 4.65776 31.9267 4.33725 31.872 3.38251H34.4943C34.508 3.25294 34.508 3.15747 34.508 3.10291ZM32.9442 1.75265C33.5383 1.75265 33.8592 2.18228 33.9139 2.93242H31.8789C31.9472 2.16182 32.3705 1.75265 32.9442 1.75265ZM38.1739 0H37.5866V1.89586L37.3476 1.54124C37.1632 1.39121 36.7808 1.30256 36.4803 1.30256C35.5448 1.30256 34.7117 1.92313 34.7117 3.25976C34.7117 4.31679 35.2989 5.10785 36.3574 5.10785C36.7262 5.10785 37.1086 4.99192 37.3134 4.82143L37.5866 4.43272V5.01238H38.1739V0ZM36.4462 4.65776C35.7223 4.65776 35.3536 4.00991 35.3536 3.19157C35.3536 2.24365 35.8452 1.75265 36.4803 1.75265C36.9993 1.75265 37.5866 2.10726 37.5866 3.04154V3.2393C37.5866 4.27587 37.0471 4.65776 36.4462 4.65776ZM39.2339 0.211406C39.0222 0.211406 38.8583 0.375074 38.8583 0.58648C38.8583 0.797885 39.0222 0.961581 39.2339 0.961581C39.4456 0.961581 39.6095 0.797885 39.6095 0.58648C39.6095 0.375074 39.4456 0.211406 39.2339 0.211406ZM39.5275 5.01238V1.39803H38.9403V5.01238H39.5275ZM42.3702 5.01238H42.9575C42.9029 4.61003 42.8892 4.36453 42.8892 4.09174V2.73466C42.8892 2.57781 42.8824 2.4005 42.8687 2.25729C42.8073 1.66399 42.4453 1.30256 41.5849 1.30256C40.7859 1.30256 40.2465 1.74583 40.1918 2.51643H40.8064C40.8474 2.01861 41.0932 1.75265 41.5849 1.75265C42.0698 1.75265 42.261 1.97087 42.2883 2.30503C42.3019 2.44142 42.3019 2.58463 42.3019 2.74148V2.83695H42.0698C40.6494 2.83695 40.0348 3.25976 40.0348 4.07811C40.0348 4.74642 40.5469 5.10785 41.2025 5.10785C41.5508 5.10785 41.8649 5.0533 42.1107 4.88281L42.3088 4.4941L42.3702 5.01238ZM41.4005 4.65776C40.9567 4.65776 40.6767 4.46682 40.6767 4.03037C40.6767 3.40979 41.3049 3.19839 42.3019 3.2734V3.64166C42.3019 4.29633 41.9468 4.65776 41.4005 4.65776Z" fill="#5B5B5B"/>
</g>
</svg>
