<svg width="21" height="20" viewBox="0 0 21 20" fill="none" xmlns="http://www.w3.org/2000/svg">
<g id="Group 427319229">
<path id="Vector" d="M10.8711 20C16.3939 20 20.8711 15.5228 20.8711 10C20.8711 4.47715 16.3939 0 10.8711 0C5.34825 0 0.871094 4.47715 0.871094 10C0.871094 15.5228 5.34825 20 10.8711 20Z" fill="#979797"/>
<path id="Vector_2" d="M5.03361 9.91322L11.7678 7.13863C12.4325 6.84963 14.6869 5.9248 14.6869 5.9248C14.6869 5.9248 15.7274 5.52022 15.6407 6.5028C15.6118 6.90738 15.3807 8.32363 15.1494 9.8553L14.4269 14.3928C14.4269 14.3928 14.369 15.0575 13.8769 15.1731C13.3847 15.2887 12.5763 14.7685 12.4319 14.6529C12.3163 14.5662 10.2642 13.2656 9.5127 12.6298C9.31036 12.4565 9.0792 12.1095 9.54161 11.705C10.5821 10.7512 11.8249 9.56622 12.5763 8.8148C12.9231 8.46797 13.2699 7.65872 11.8249 8.64147L7.7497 11.3871C7.7497 11.3871 7.2872 11.6761 6.4202 11.416C5.5532 11.156 4.54161 10.8091 4.54161 10.8091C4.54161 10.8091 3.84795 10.3756 5.03295 9.9133L5.03361 9.91322Z" fill="#0B0B0B"/>
</g>
</svg>
