<svg width="20" height="20" viewBox="0 0 20 20" fill="none" xmlns="http://www.w3.org/2000/svg">
<g id="Frame 427319580">
<path id="path182" d="M17.7328 1.95076C17.2358 1.49217 15.2274 0.0341638 10.7537 0.0143555C10.7537 0.0143555 5.4781 -0.303777 2.90632 2.05521C1.47472 3.48711 0.971113 5.58228 0.917991 8.17987C0.864869 10.7775 0.79614 15.6455 5.4886 16.9654H5.4931L5.4901 18.9796C5.4901 18.9796 5.46009 19.795 5.99701 19.9613C6.64648 20.163 7.02764 19.5432 7.6477 18.8751C7.98804 18.5084 8.45804 17.9697 8.81219 17.5579C12.0214 17.828 14.4897 17.2106 14.77 17.1194C15.4179 16.9093 19.0846 16.4393 19.6809 11.5719C20.2965 6.55469 19.3832 3.38116 17.7328 1.95076ZM18.2766 11.212C17.7733 15.2763 14.7994 15.5317 14.2511 15.7076C14.0179 15.7826 11.8501 16.322 9.12402 16.144C9.12402 16.144 7.09277 18.5945 6.45831 19.2317C6.35926 19.3313 6.24282 19.3715 6.16508 19.3517C6.05584 19.325 6.02583 19.1957 6.02703 19.0066C6.02883 18.7365 6.04443 15.6596 6.04443 15.6596C2.07497 14.5575 2.30637 10.4143 2.35139 8.24469C2.39641 6.07509 2.80398 4.29775 4.01468 3.10235C6.18999 1.13202 10.6712 1.42645 10.6712 1.42645C14.4554 1.44295 16.2688 2.58253 16.6893 2.96429C18.0855 4.15969 18.7968 7.02018 18.2766 11.2108V11.212Z" fill="#979797"/>
<path id="path184" d="M12.598 8.06628C12.5487 7.07407 12.0447 6.55295 11.0859 6.50293" stroke="#979797" stroke-width="0.5" stroke-linecap="round" stroke-linejoin="round"/>
<path id="path186" d="M13.8932 8.50181C13.9132 7.57742 13.6393 6.8051 13.0717 6.18484C12.5015 5.56238 11.7121 5.21964 10.6992 5.14551" stroke="#979797" stroke-width="0.5" stroke-linecap="round" stroke-linejoin="round"/>
<path id="path188" d="M15.2228 9.02158C15.2106 7.41751 14.7313 6.15418 13.7849 5.23159C12.8385 4.30901 11.6615 3.84281 10.2539 3.83301" stroke="#979797" stroke-width="0.5" stroke-linecap="round" stroke-linejoin="round"/>
<path id="path190" d="M11.1333 11.4552C11.1333 11.4552 11.489 11.4852 11.6804 11.2493L12.0538 10.7796C12.2339 10.5467 12.6685 10.3982 13.094 10.6353C13.4129 10.8171 13.7226 11.0149 14.0217 11.2277C14.3041 11.4354 14.8825 11.918 14.8843 11.918C15.1598 12.1506 15.2234 12.4921 15.0358 12.8523C15.0358 12.8544 15.0343 12.858 15.0343 12.8598C14.8277 13.2179 14.5655 13.5409 14.2573 13.8166C14.2537 13.8184 14.2537 13.8202 14.2504 13.822C13.9827 14.0457 13.7197 14.1728 13.4614 14.2034C13.4234 14.2101 13.3847 14.2125 13.3461 14.2107C13.2322 14.2118 13.1189 14.1943 13.0106 14.159L13.0022 14.1467C12.6042 14.0345 11.9397 13.7536 10.8332 13.1431C10.1928 12.794 9.5832 12.3913 9.01082 11.9393C8.72393 11.7129 8.45026 11.4702 8.19118 11.2124L8.16357 11.1848L8.13596 11.1572L8.10835 11.1296C8.09904 11.1206 8.09004 11.1113 8.08073 11.102C7.82295 10.8429 7.58025 10.5692 7.35383 10.2823C6.9019 9.70999 6.4992 9.10046 6.15003 8.46025C5.53957 7.35339 5.25866 6.68951 5.14641 6.29094L5.1341 6.28254C5.09892 6.17421 5.08158 6.06089 5.08278 5.947C5.08068 5.90844 5.083 5.86978 5.08968 5.83175C5.1219 5.57384 5.24925 5.31063 5.47174 5.04212C5.47354 5.03882 5.47535 5.03882 5.47715 5.03522C5.75275 4.72708 6.07574 4.46488 6.43395 4.25849C6.43575 4.25849 6.43935 4.25669 6.44145 4.25669C6.8016 4.06911 7.14314 4.13274 7.37544 4.40675C7.37724 4.40856 7.85894 4.9869 8.06573 5.26931C8.27859 5.56876 8.47632 5.87868 8.65817 6.1979C8.89527 6.62318 8.74671 7.05866 8.51381 7.23814L8.04412 7.61149C7.80702 7.80297 7.83823 8.15862 7.83823 8.15862C7.83823 8.15862 8.53392 10.7916 11.1333 11.4552Z" fill="#979797"/>
</g>
</svg>
