<svg width="20" height="20" viewBox="0 0 20 20" fill="none" xmlns="http://www.w3.org/2000/svg">
<path id="Vector" fill-rule="evenodd" clip-rule="evenodd" d="M14.5121 11.9851C14.2645 11.8612 13.047 11.2622 12.82 11.1795C12.593 11.0968 12.428 11.0556 12.2629 11.3034C12.0978 11.5512 11.6232 12.1091 11.4788 12.2744C11.3343 12.4396 11.1899 12.4604 10.9422 12.3363C10.6946 12.2124 9.8967 11.951 8.95088 11.1072C8.21474 10.4506 7.71774 9.63973 7.57333 9.39182C7.42884 9.14391 7.55786 9.0099 7.68185 8.88645C7.7933 8.77546 7.92955 8.59719 8.05332 8.45256C8.17714 8.30801 8.21841 8.20465 8.30095 8.0395C8.38349 7.87416 8.34222 7.72961 8.28028 7.60569C8.21841 7.48173 7.72316 6.26281 7.5168 5.76695C7.31579 5.28413 7.11164 5.34953 6.95964 5.34187C6.81537 5.3347 6.65011 5.33317 6.48506 5.33317C6.31997 5.33317 6.05167 5.39515 5.82465 5.64299C5.59773 5.8909 4.95799 6.49005 4.95799 7.70883C4.95799 8.92779 5.84528 10.1052 5.96913 10.2705C6.09298 10.4358 7.71524 12.937 10.1994 14.0096C10.7902 14.2648 11.2514 14.4171 11.6111 14.5313C12.2043 14.7198 12.7441 14.6931 13.1708 14.6294C13.6466 14.5583 14.6359 14.0304 14.8422 13.452C15.0486 12.8734 15.0486 12.3776 14.9867 12.2744C14.9248 12.1711 14.7597 12.1091 14.5121 11.9851ZM9.99378 18.1544H9.99047C8.51237 18.1538 7.06264 17.7567 5.79792 17.0062L5.49712 16.8277L2.37951 17.6455L3.21163 14.6058L3.01582 14.2942C2.19126 12.9827 1.75573 11.4669 1.75638 9.91046C1.75819 5.36881 5.45346 1.67383 9.99706 1.67383C12.1973 1.67462 14.2654 2.53254 15.8207 4.08958C17.3759 5.64652 18.2319 7.7161 18.231 9.91708C18.2292 14.4591 14.534 18.1544 9.99378 18.1544ZM17.0043 2.90644C15.1332 1.03317 12.6449 0.0010692 9.99371 0C4.53113 0 0.0852509 4.44559 0.0830412 9.90981C0.0823284 11.6566 0.538663 13.3614 1.40593 14.8645L0 20L5.2537 18.6219C6.70129 19.4114 8.33107 19.8276 9.98975 19.8281H9.99385C15.4558 19.8281 19.9021 15.3821 19.9043 9.91776C19.9053 7.26967 18.8754 4.77968 17.0043 2.90644Z" fill="#979797"/>
</svg>
